<?xml version="1.0" encoding="iso-8859-1"?>
<!-- Generator: Adobe Illustrator 19.0.0, SVG Export Plug-In . SVG Version: 6.00 Build 0)  -->
<svg version="1.1" id="Capa_1" xmlns="http://www.w3.org/2000/svg" xmlns:xlink="http://www.w3.org/1999/xlink" x="0px" y="0px"
	 viewBox="0 0 478.956 478.956" style="enable-background:new 0 0 478.956 478.956;" xml:space="preserve">
<path style="fill:#634C42;" d="M314.438,413.7h114.456c1.704,0,3.376,0.4,4.904,1.16l12.096,6.048
	c1.056,0.528,2.016,1.224,2.848,2.056l6.736-8.008l7.44-22.312c0.376-1.12,0.56-2.288,0.56-3.464V371.5
	c0-2.904,1.152-5.696,3.208-7.752l0,0c2.936-2.936,3.96-7.28,2.648-11.216l-5.296-15.888c-0.376-1.12-0.56-2.288-0.56-3.464v-12.872
	c0-0.896-0.112-1.792-0.328-2.656l-6.896-27.592c-0.504-2.024-0.424-4.144,0.232-6.128l5.832-17.504c0.752-2.248,0.752-4.68,0-6.928
	l-6.28-18.848c-0.376-1.12-0.56-2.288-0.56-3.464v-25.68c0-2.904-1.152-5.696-3.208-7.752l-9.576-9.576
	c-2.064-2.072-3.216-4.856-3.216-7.76V163.5c0-2.904-1.152-5.696-3.208-7.752l-9.576-9.576c-2.064-2.064-3.216-4.848-3.216-7.752
	V123.5c0-2.904-1.152-5.696-3.208-7.752l-10.64-10.64c-1.408-1.408-2.4-3.168-2.88-5.088l-6.04-24.168
	c-0.776-3.104-2.872-5.712-5.728-7.144l-11.504-5.752l-9.944-4.968c-3.712-1.856-6.056-5.656-6.056-9.808v-7.936
	c0-5.36-3.872-9.928-9.16-10.808l-33.336-5.56c-3.456-0.576-6.432-2.776-8-5.912l-2.472-4.952c-1.856-3.712-5.656-6.056-9.808-6.056
	h-6.64c-1.704,0-3.376,0.4-4.904,1.16l-9.28,4.64c-2.8,1.4-6.064,1.536-8.968,0.376L244.046,0.788
	c-2.904-1.168-6.168-1.032-8.968,0.368l-11.6,5.8l-13.688,6.84c-1.52,0.76-3.2,1.16-4.896,1.16h-13.416h-17.224
	c-4.152,0-7.944,2.344-9.8,6.056l-1.944,3.88c-1.856,3.72-5.656,6.064-9.808,6.064h-9.224h-17.224c-4.152,0-7.944,2.344-9.8,6.056
	l-4.176,8.352c-0.528,1.056-1.224,2.016-2.056,2.848L98.686,59.748c-2.056,2.056-4.84,3.208-7.744,3.208H70.254
	c-4.152,0-7.944,2.344-9.8,6.056L47.478,94.956l-14.84,29.688c-0.76,1.52-1.16,3.2-1.16,4.896v21.416v21.416
	c0,1.704-0.4,3.376-1.16,4.904l-5.688,11.368c-0.752,1.52-1.152,3.2-1.152,4.896v19.632c0,1.176-0.192,2.352-0.56,3.464
	l-6.88,20.632c-0.368,1.12-0.56,2.288-0.56,3.464v14.224v14.224c0,1.176-0.192,2.352-0.56,3.464l-6,18.008
	c-0.92,2.76-0.704,5.768,0.592,8.368l5.176,10.352c0.528,1.056,1.224,2.016,2.056,2.848l5.488,5.488
	c0.832,0.832,1.528,1.792,2.056,2.848l3.672,7.344c2.112,4.216,1.28,9.312-2.056,12.648l-10.424,10.408l-2.416,2.416
	c-3.336,3.336-4.16,8.432-2.056,12.648l3.672,7.344c0.528,1.056,1.224,2.016,2.056,2.848l4.912,4.912
	c1.2,1.2,2.112,2.672,2.648,4.288l3.184,9.552c2.112,6.328,9.336,24.064,15.296,21.08l2.384-1.192c1.52-0.76,3.2-1.16,4.904-1.16
	h114.456h149.92V413.7z"/>
<path style="fill:#EFE1D3;" d="M359.478,398.956h-56v-55.144c0,0-0.008,0-0.016,0.008c-4.384,2.184-8.896,4.128-13.52,5.864
	c-0.92,0.352-1.848,0.688-2.784,1.016c-2.944,1.032-5.92,1.984-8.952,2.832c-2.336,0.664-4.688,1.272-7.064,1.816
	c-1.576,0.352-3.16,0.704-4.76,1c-3.656,0.704-7.36,1.28-11.12,1.696c-0.92,0.104-1.848,0.168-2.776,0.248
	c-4.28,0.4-8.608,0.664-13.008,0.664c-4.04,0-8.024-0.232-11.976-0.56c-1.072-0.088-2.136-0.176-3.2-0.288
	c-3.536-0.376-7.048-0.856-10.504-1.496c-1.64-0.296-3.248-0.672-4.864-1.024c-1.776-0.392-3.544-0.808-5.288-1.264
	c-9.816-2.52-19.272-5.936-28.16-10.352v54.984h-56l120,72L359.478,398.956z"/>
<polygon style="fill:#E6D8CA;" points="175.494,358.956 239.478,382.956 303.478,358.092 303.478,334.956 175.478,334.956 "/>
<path style="fill:#D38181;" d="M423.478,398.956h-64l-120,72l-120-72H86.174c-0.296,2.432-0.592,4.856-0.888,7.288
	c0.296-2.432,0.592-4.856,0.888-7.288H55.478c-26.512,0-48,21.488-48,48v32h464v-32C471.478,420.444,449.99,398.956,423.478,398.956
	z"/>
<path style="fill:#F9EDE0;" d="M203.638,354.324c1.752,0.448,3.512,0.88,5.288,1.264c1.616,0.352,3.232,0.728,4.864,1.024
	c3.456,0.624,6.96,1.12,10.504,1.496c1.064,0.112,2.136,0.2,3.2,0.288c3.96,0.32,7.944,0.56,11.984,0.56
	c4.392,0,8.728-0.272,13.024-0.656c0.928-0.088,1.856-0.144,2.776-0.248c3.752-0.408,7.456-1,11.12-1.696
	c1.592-0.304,3.184-0.64,4.76-1c2.384-0.536,4.728-1.168,7.064-1.816c3.024-0.856,6.008-1.792,8.952-2.832
	c0.936-0.328,1.856-0.672,2.784-1.016c4.616-1.744,9.136-3.688,13.52-5.864c44.712-22.248,76.128-66.96,79.536-119.432
	c-6.728-3.504-10.64-12.336-13.368-20.032c-1.352-3.832-2.88-7.808-5.96-10.456c-2.912-2.504-6.816-3.472-10.088-5.472
	c-15.928-9.744-9.344-36.312-22.072-49.976c-11.128-11.944-33.328-9.888-41.736-23.872c-5.208-8.664-7.92-22.408-16.328-28.024
	c-10.504-7.6-31.344-5.728-38.888,4.816c-2.408,3.36-3.96,7.32-6.72,10.4c-6.64,7.408-18.04,7.68-27.904,6.44
	c-9.864-1.232-20.416-3.312-29.344,1.064c-17.248,8.464-16.84,34.088-30.424,47.68c-5.864,5.864-13.848,8.96-20.936,13.248
	s-13.88,10.776-14.416,19.048c-0.448,6.928,3.592,13.352,4.4,20.248c1.152,9.864-4.44,18.672-12.232,25.296
	c6.624,47.968,36.76,88.416,78.512,109.176v-0.152C184.382,348.244,193.822,351.764,203.638,354.324z"/>
<g>
	<circle style="fill:#4B413A;" cx="183.478" cy="190.956" r="16"/>
	<circle style="fill:#4B413A;" cx="295.478" cy="190.956" r="16"/>
	<path style="fill:#4B413A;" d="M378.446,382.996c0.184-2.36,0.44-5.6-0.904-9.056c-2.368-6.04-7.816-8.496-11.416-10.12
		c-1.336-0.6-3.168-1.432-3.664-1.992c-0.248-0.288-0.776-1.744-0.184-5c0.176-0.984,0.408-1.976,0.632-2.96
		c0.752-3.32,1.6-7.088,1.232-11.304c-0.632-7.368-6.032-15.456-14.808-15.936l-0.872,15.976c-0.472-0.024-0.824-0.216-0.912-0.304
		c0.2,0.176,0.584,0.872,0.656,1.632c0.152,1.744-0.368,4.008-0.904,6.408c-0.272,1.208-0.536,2.416-0.76,3.624
		c-1.744,9.576,1.168,15.312,3.904,18.432c2.784,3.16,6.288,4.736,9.112,6.008c1.128,0.504,2.8,1.288,3.024,1.16
		c0.056,0.352-0.032,1.448-0.088,2.168c-0.152,1.872-0.328,4.2,0.216,6.792c0.88,4.232,3.648,7.976,7.568,10.264
		c2.528,1.48,5.352,2.232,8.144,2.232c1.536,0,3.072-0.232,4.536-0.696l-4.592-15.088
		C378.302,384.884,378.382,383.748,378.446,382.996z"/>
	<path style="fill:#4B413A;" d="M88.262,382.452c0.296-0.728,0.68-1.416,1.048-2.12c0.68-1.32,1.352-2.656,1.872-4.04
		c3.592-9.456,0.392-20.824-7.616-27.032c-0.88-0.688-1.832-1.32-2.8-1.936c-0.76-0.496-1.872-1.192-1.96-1.088
		c-0.064-0.96,1.216-3.704,1.984-5.344l1.032-2.256c3.672-8.384,3.528-16.96-0.384-23.52c-1.696-2.832-3.832-4.88-5.704-6.68
		c-1.224-1.176-2.384-2.288-3.016-3.752c-0.128,0.632-1.296,1.968-2.992,2.168l-1.816-15.896c-4.248,0.488-7.8,3.056-9.712,7.056
		c-2.304,4.8-1.896,11.104,1,15.712c1.656,2.624,3.672,4.552,5.448,6.256c1.264,1.216,2.464,2.36,3.048,3.344
		c1.192,2.008,0.992,5.424-0.528,8.904l-0.872,1.904c-2.248,4.824-5.656,12.112-1.632,19.456c2.016,3.664,5.128,5.688,7.4,7.16
		c0.584,0.384,1.176,0.76,1.712,1.168c2.456,1.904,3.552,5.816,2.464,8.704c-0.312,0.824-0.736,1.6-1.144,2.384
		c-0.88,1.704-1.728,3.424-2.288,5.232c-1.928,6.08-0.384,12.312,3.92,15.888c0.608,0.496,1.208,0.904,1.832,1.264l-1.192,9.904
		l15.872,1.936l1.288-10.592c0.248-2.104,0.84-7.016-2.48-11.088C90.854,384.06,89.478,383.124,88.262,382.452z"/>
	<path style="fill:#4B413A;" d="M198.934,116.14c16.208,2.016,27.592-0.936,34.848-9.032c2.2-2.456,3.72-5.104,5.048-7.448
		c0.712-1.24,1.408-2.488,2.232-3.648c1.968-2.744,6.184-4.888,11.296-5.72c6.272-1.024,12.696,0.048,16.64,2.904
		c3.576,2.384,6.168,8.536,8.672,14.488c1.568,3.736,3.192,7.592,5.24,11.008c6.048,10.048,16.648,13.632,26,16.792
		c6.68,2.256,12.984,4.384,16.744,8.416c4.28,4.592,5.776,12.16,7.36,20.16c2.232,11.296,4.768,24.088,16.384,31.192
		c1.6,0.976,3.304,1.768,5.024,2.544c1.624,0.736,3.168,1.424,4.04,2.168c1.496,1.288,2.568,4.08,3.632,7.064
		c2.712,7.664,9.072,25.624,25.376,26.92l1.264-15.952c-5.336-0.424-9.16-9.504-11.56-16.312c-1.368-3.856-3.44-9.68-8.288-13.848
		c-2.624-2.248-5.424-3.512-7.888-4.624c-1.104-0.496-2.208-0.976-3.24-1.608c-5.632-3.448-7.208-11.416-9.04-20.648
		c-1.856-9.384-3.968-20.024-11.352-27.96c-6.504-6.992-15.448-10.008-23.328-12.664c-7.72-2.608-14.392-4.856-17.4-9.872
		c-1.464-2.432-2.808-5.608-4.216-8.976c-3.256-7.752-6.952-16.528-14.28-21.416c-7.184-5.2-17.816-7.28-28.344-5.56
		c-9.504,1.552-17.216,5.88-21.744,12.2c-1.144,1.6-2.136,3.312-3.12,5.024c-1.024,1.8-1.992,3.504-3.064,4.688
		c-3.456,3.856-10.496,5.144-20.952,3.84l-3.16-0.416c-9.632-1.28-20.544-2.728-30.704,2.232
		c-12.52,6.152-17.536,18.704-21.96,29.784c-3.016,7.552-5.856,14.688-10.592,19.424c-3.264,3.264-7.752,5.664-12.504,8.2
		c-2.336,1.248-4.664,2.496-6.912,3.856c-11.152,6.744-17.64,15.76-18.264,25.376c-0.36,5.536,1.216,10.408,2.608,14.704
		c0.816,2.504,1.576,4.88,1.832,7c1.168,9.968-8.768,19.552-19.136,24.64c-20.296,9.96-21.064,20.688-18.136,27.936l14.808-5.912
		c0-0.024,0.912-3.008,10.376-7.656c14.296-7.016,30.192-21.928,27.976-40.864c-0.432-3.688-1.528-7.088-2.496-10.08
		c-1.088-3.352-2.024-6.248-1.856-8.728c0.384-5.944,7.52-10.88,10.576-12.728c2.008-1.216,4.096-2.328,6.168-3.44
		c5.576-2.976,11.344-6.056,16.28-11c7.064-7.064,10.664-16.08,14.144-24.808c3.832-9.616,7.16-17.912,14.152-21.344
		c5.784-2.848,13.44-1.824,21.536-0.736L198.934,116.14z"/>
	<path style="fill:#4B413A;" d="M427.31,368.716c-0.536-1.488-0.12-4.096,0.336-6.864c0.736-4.528,1.64-10.168-0.856-15.856
		c-2.768-6.288-8.2-9.424-12.568-11.944c-2.512-1.448-4.888-2.824-5.928-4.296c-1.624-2.312-1.264-6.68-0.88-11.32
		c0.104-1.248,0.2-2.496,0.264-3.704c0.224-3.856,0.176-9.584-2.784-14.752c-3.608-6.304-9.96-9.32-15.096-11.24l-5.608,14.984
		c2.408,0.904,5.736,2.32,6.816,4.208c0.944,1.648,0.76,4.832,0.704,5.896c-0.064,1.088-0.16,2.192-0.248,3.304
		c-0.536,6.584-1.208,14.776,3.752,21.832c3.072,4.368,7.296,6.808,11.024,8.952c2.704,1.56,5.256,3.032,5.912,4.512
		c0.6,1.368,0.152,4.16-0.288,6.864c-0.68,4.208-1.528,9.456,0.4,14.816c3.256,9.112,12.512,13.12,17.496,15.272l6.36-14.688
		C433.342,373.516,428.23,371.3,427.31,368.716z"/>
	<path style="fill:#4B413A;" d="M70.374,203.724c0.384-4.16-0.816-7.704-1.768-10.552c-0.512-1.536-1.056-3.128-1.008-3.992
		c0.064-1.336,1.752-3.488,3.384-5.56c2.12-2.696,4.52-5.76,5.92-9.76c1.704-4.872,1.368-9.56,1.08-13.688
		c-0.208-2.968-0.408-5.776,0.328-7.464c0.624-1.432,2.352-3.032,4.176-4.728c1.992-1.848,4.248-3.944,6.12-6.68
		c3.352-4.936,4.6-10.656,5.704-15.696c1.256-5.752,2.168-9.32,4.272-10.264c0.816-0.368,2.296-0.528,3.872-0.704
		c0.952-0.104,1.896-0.216,2.84-0.36c11.96-1.888,22.512-10.408,26.896-21.68c0.416-1.064,0.824-2.192,1.232-3.344
		c0.88-2.472,2.528-7.072,3.712-7.992c-0.16,0.12-0.544,0.288-0.736,0.224l1.08-15.96c-12.44-0.8-16.552,11.176-19.128,18.336
		c-0.36,1.008-0.712,2-1.072,2.936c-2.328,5.984-8.152,10.672-14.488,11.68c-0.704,0.112-1.416,0.184-2.12,0.264
		c-2.488,0.272-5.568,0.616-8.68,2.016c-9.584,4.312-11.664,13.808-13.336,21.44c-0.864,3.984-1.688,7.736-3.304,10.112
		c-0.84,1.248-2.264,2.56-3.768,3.96c-2.672,2.48-6,5.568-7.952,10.048c-2.32,5.296-1.936,10.68-1.632,15
		c0.2,2.84,0.392,5.52-0.224,7.288c-0.512,1.488-1.912,3.264-3.4,5.152c-2.872,3.664-6.456,8.216-6.784,14.624
		c-0.192,3.888,0.92,7.224,1.824,9.904c0.504,1.496,1.08,3.192,1,4c-0.152,1.616-3.384,4.192-5.976,6.264
		c-5.056,4.016-11.968,9.528-11.728,18.808l16-0.424c-0.04-1.312,3.272-3.944,5.688-5.864
		C63.406,217.084,69.614,212.14,70.374,203.724z"/>
	<path style="fill:#4B413A;" d="M134.742,368.54c-0.32-0.384-0.68-0.752-0.824-0.848c-0.016-0.88,1.28-3.408,2.056-4.92
		c0.568-1.128,1.144-2.248,1.632-3.344c4.6-10.304,3.168-22.776-3.656-31.76c-0.68-0.896-1.416-1.76-2.16-2.616
		c-1.056-1.232-2.056-2.392-2.392-3.232c-0.68-1.704,0.568-5.08,3.336-9.024l-13.112-9.176c-6.216,8.872-7.928,16.992-5.096,24.12
		c1.32,3.32,3.432,5.776,5.128,7.744c0.52,0.616,1.056,1.224,1.536,1.864c3.296,4.336,4.016,10.592,1.8,15.56
		c-0.384,0.856-0.832,1.712-1.272,2.592c-2.272,4.448-5.72,11.176-2.496,18.416c0.928,2.104,2.224,3.672,3.168,4.824l0.624,0.776
		c2.216,2.872,2.904,7.104,1.712,10.528l15.112,5.272c2.992-8.584,1.408-18.384-4.152-25.584L134.742,368.54z"/>
	<path style="fill:#4B413A;" d="M404.326,215.524c1.192,4.192,0.696,9.24-0.064,14.28c-0.552,3.72-1.32,8.824,0.92,13.872
		c2.136,4.784,5.944,7.432,9.016,9.552c1.456,1.008,3.112,2.16,3.576,2.96c0.768,1.32-0.112,4.608-0.944,7.784
		c-0.768,2.872-1.624,6.136-1.8,9.584c-0.464,9.256,4.4,18.272,12.392,22.984l8.128-13.784c-2.832-1.672-4.696-5.128-4.528-8.408
		c0.088-1.784,0.664-3.968,1.28-6.288c1.512-5.736,3.408-12.872-0.696-19.92c-2.248-3.88-5.6-6.2-8.296-8.072
		c-1.344-0.936-3.192-2.216-3.504-2.912c-0.344-0.784,0.032-3.312,0.32-5.192c0.984-6.616,1.624-13.72-0.416-20.84
		c-2.608-9.12-9.304-15.92-17.464-17.768l-3.528,15.608C401.07,209.492,403.374,212.196,404.326,215.524z"/>
	<path style="fill:#4B413A;" d="M370.774,100.932c-3.584-2.92-7.568-4.736-11.088-6.336c-1.984-0.904-3.984-1.784-5.832-2.92
		c-3.704-2.272-6.736-5.696-8.528-9.664c-0.536-1.176-0.984-2.4-1.44-3.624c-1.144-3.088-2.432-6.576-4.864-9.848
		c-4.968-6.648-12.544-9.536-18.6-11.312l-3.024-0.848c-4.04-1.12-7.848-2.176-10.664-4.056c-2.264-1.512-3.896-4.16-3.488-5.664
		l-15.44-4.224c-2.632,9.632,3.144,18.584,10.04,23.192c4.944,3.304,10.432,4.824,15.264,6.168l2.8,0.792
		c3.664,1.08,8.152,2.68,10.28,5.528c1.056,1.408,1.84,3.552,2.68,5.824c0.584,1.592,1.184,3.184,1.88,4.712
		c3.112,6.832,8.336,12.744,14.728,16.664c2.416,1.48,5,2.68,7.584,3.856c2.888,1.312,5.616,2.544,7.592,4.16
		c4.832,3.936,6.888,11.312,9.072,19.12c2.776,9.92,5.912,21.16,15.8,28.072l9.168-13.112c-5.184-3.632-7.208-10.88-9.552-19.272
		C382.518,118.74,379.534,108.076,370.774,100.932z"/>
</g>
<g>
	<ellipse style="fill:#F7CDBF;" cx="171.478" cy="234.956" rx="20" ry="12"/>
	<ellipse style="fill:#F7CDBF;" cx="307.478" cy="234.956" rx="20" ry="12"/>
</g>
<path style="fill:#C16767;" d="M471.478,446.956c0-26.512-21.488-48-48-48h-64l-120,72v8h232V446.956z"/>
<g>
</g>
<g>
</g>
<g>
</g>
<g>
</g>
<g>
</g>
<g>
</g>
<g>
</g>
<g>
</g>
<g>
</g>
<g>
</g>
<g>
</g>
<g>
</g>
<g>
</g>
<g>
</g>
<g>
</g>
</svg>
