<?xml version="1.0" encoding="utf-8"?>
<!-- Generator: Adobe Illustrator 19.0.0, SVG Export Plug-In . SVG Version: 6.00 Build 0)  -->
<svg version="1.1" id="Layer_1" xmlns="http://www.w3.org/2000/svg" xmlns:xlink="http://www.w3.org/1999/xlink" x="0px" y="0px"
	 viewBox="0 0 1960 656" style="enable-background:new 0 0 1960 656;" xml:space="preserve">
<style type="text/css">
	.st0{fill:#6D6D6D;}
	.st1{fill:#020202;}
	.st2{fill:#F7F6F5;}
	.st3{fill:#EA5513;}
	.st4{fill:#F9F9F9;}
	.st5{font-family:'PlantagenetCherokee';}
	.st6{font-size:141px;}
	.st7{font-family:'CooperBlack';}
	.st8{font-size:17px;}
</style>
<image style="overflow:visible;" width="228" height="475" xlink:href="mobile_img1.png"  transform="matrix(1 0 0 1 866 90)">
</image>
<rect x="887.1" y="168.8" class="st0" width="187.2" height="334.5"/>
<image style="display:none;overflow:visible;" width="926" height="1406" xlink:href="../../../../Manhattan_Bridge_at_Night.JPG"  transform="matrix(0.3588 0 0 0.3588 972.003 83.8115)">
</image>
<circle class="st1" cx="993.6" cy="420.9" r="3.5"/>
<circle class="st1" cx="961.9" cy="420.9" r="3.5"/>
<circle class="st1" cx="977.5" cy="420.9" r="3.5"/>
<circle class="st2" cx="947.7" cy="420.9" r="3.5"/>
<g>
	
		<image style="overflow:visible;opacity:0.75;" width="156" height="194" xlink:href="59EF58A452F5C646.png"  transform="matrix(1 0 0 1 909 167)">
	</image>
	<g>
		<g>
			<circle class="st3" cx="980" cy="265" r="62.5"/>
			<g>
				
					<image style="overflow:visible;opacity:0.75;" width="101" height="194" xlink:href="59EF58A452F5C642.png"  transform="matrix(1 0 0 1 940 167)">
				</image>
				<g>
					<text transform="matrix(1 0 0 1 948.7731 293.8711)" class="st4 st5 st6">a</text>
				</g>
			</g>
		</g>
	</g>
</g>
<image style="display:none;overflow:visible;" width="276" height="182" xlink:href="../../../../images.jpeg"  transform="matrix(1.8441 0 0 1.8441 746.3137 168.2685)">
</image>
<text transform="matrix(1 0 0 1 895.7994 352.4943)"><tspan x="0" y="0" class="st4 st7 st8">The camera App</tspan><tspan x="0" y="20.4" class="st4 st7 st8"> that make sharing </tspan><tspan x="0" y="40.8" class="st4 st7 st8">easy and fun!!!</tspan></text>
</svg>
