<?xml version="1.0" encoding="utf-8"?>
<!-- Generator: Adobe Illustrator 19.0.0, SVG Export Plug-In . SVG Version: 6.00 Build 0)  -->
<svg version="1.1" id="Layer_1" xmlns="http://www.w3.org/2000/svg" xmlns:xlink="http://www.w3.org/1999/xlink" x="0px" y="0px"
	 viewBox="0 0 2324 1240" style="enable-background:new 0 0 2324 1240;" xml:space="preserve">
<style type="text/css">
	.st0{display:none;fill:#FFFFFF;}
	.st1{fill:#443938;}
	.st2{fill:#F5EFDC;}
	.st3{fill:#A0B8A0;}
	.st4{fill:#599688;}
	.st5{fill:#71292A;}
	.st6{fill:#787881;}
	.st7{fill:#58565D;}
	.st8{fill:#E5E5E5;}
	.st9{fill:#D9D9D8;}
	.st10{fill:#51BBEB;}
	.st11{fill:#309AD6;}
	.st12{fill:#2682C5;}
	.st13{fill:#E4C05C;}
	.st14{fill:#DDA970;}
	.st15{fill:#BC9C4C;}
	.st16{fill:#71BFE2;}
	.st17{fill:#698793;}
	.st18{fill:#FCFADD;}
	.st19{fill:#404E55;}
	.st20{font-family:'MyriadPro-Regular';}
	.st21{font-size:23px;}
	.st22{fill:#26B7D3;}
	.st23{fill:#FFFFFF;}
	.st24{fill:#43786D;}
	.st25{fill:#49628D;}
	.st26{fill:#EED255;}
	.st27{fill:#3C4874;}
	.st28{fill:#D7B429;}
	.st29{fill:#010101;}
	.st30{fill:#48833D;}
	.st31{fill:#509141;}
	.st32{fill:#5FAD46;}
	.st33{fill:#73BF44;}
	.st34{fill:#96CB5D;}
	.st35{fill:none;stroke:#394650;stroke-width:4.5356;stroke-linecap:round;stroke-miterlimit:10;}
	.st36{fill:#25A24C;}
	.st37{fill:#EABA1F;}
	.st38{fill:#FECD82;}
	.st39{fill:#FCB74F;}
	.st40{fill:#F15741;}
	.st41{fill:#F3705B;}
	.st42{fill:#FFD15D;}
	.st43{fill:#F6B64C;}
	.st44{fill:#435B6C;}
	.st45{fill:#354B5E;}
	.st46{fill:#8BD7F8;}
	.st47{fill:#FDEC0A;}
	.st48{fill:#4B94D0;}
	.st49{fill:#56BF99;}
	.st50{fill:#1AB57E;}
	.st51{fill:#F0504F;}
	.st52{fill:#FDCFAF;}
	.st53{fill:#FBBE93;}
	.st54{fill:#A9E0F8;}
	.st55{fill:#7BD3F7;}
	.st56{fill:#030303;}
	.st57{fill:#C64F69;}
	.st58{fill:#32140C;}
	.st59{fill:#00B397;}
	.st60{fill:#FDCD9B;}
	.st61{fill:#FCBC84;}
	.st62{fill:#3B261A;}
	.st63{fill:#694C39;}
	.st64{fill:#F7955F;}
	.st65{fill:#F9AB8D;}
	.st66{fill:#90D6E7;}
	.st67{fill:#F5B1CF;}
	.st68{fill:#F283B4;}
	.st69{fill:#3FBDAA;}
	.st70{fill:#3D1D0E;}
	.st71{fill:none;stroke:#4E8587;stroke-width:5;stroke-miterlimit:10;}
	.st72{font-size:27.6879px;}
	.st73{fill:#57ABC1;}
	.st74{fill:none;stroke:#566181;stroke-width:3.5231;stroke-linecap:round;stroke-miterlimit:10;}
	.st75{fill:#7DCAD7;}
	.st76{fill:#566181;}
	.st77{fill:#61CAE6;}
	.st78{fill:#612F76;}
	.st79{fill:#EA3758;}
	.st80{fill:#FEE600;}
	.st81{fill:#A6A8AC;}
	.st82{fill:#958F34;}
	.st83{fill:#93A73B;}
	.st84{display:none;}
	.st85{font-size:70px;}
	.st86{display:inline;}
	.st87{font-size:29px;}
</style>
<rect id="XMLID_63_" x="-24.2" class="st0" width="2348.2" height="1240"/>
<g id="XMLID_550_">
	<path id="XMLID_60_" class="st1" d="M250.6,719.7c0,1.2,0,2.4,0,3.6l0,0.4c0,1.1,0,2.4,0,3.6c0.2,16.1,0.5,53.7,17.2,69.7
		c7.4,7,19,10.4,35.4,10.2c30.6-0.3,41.2-12.1,46.9-22.3c7.2-12.7,7.8-26.9,7.8-28.1l-2.3-250.3c-0.5-58,14.7-102,45.2-130.9
		c31.4-29.7,67-31.9,77.2-31.9c40.1-0.3,74.1,13,98.5,38.6c20.6,21.6,33.7,50.7,38.8,86.5c1.4,9.8,2.2,19.9,2.3,29.9
		c0.1,6-0.1,10.7-0.3,13.6l2.3,240.6c0.4,41.2,9.6,70.8,26.8,85.6c9.4,8.2,18.9,9.4,20.6,9.6c8,6.4,28.8,21.1,59,23.4
		c41.5,3.2,70.6-19.3,77.2-24.6c0.3,27.6,0.5,55.1,0.8,82.7l-137.3,1.3c-3.8,0-38-0.4-71-25.6c-18.6-14.2-33.2-33.2-43.5-56.6
		c-11.6-26.2-17.6-58.2-17.9-94.9l-2.3-242.1l-0.1-1.9l0.2-2.1c0.1-1.6,0.3-4.4,0.2-8.3c-0.1-9.9-1.7-43.4-18.6-60.9
		c-5-5.2-11.4-8.6-19.4-10.5l-17-1.5c-2.3,0.3-9,1.5-15.6,7.1c-13.7,11.7-21.1,37.3-20.8,72.1l2.3,250.6c0.1,5.8-0.6,57.5-39.2,95.6
		c-25,24.8-58.7,37.5-100.2,37.9c-39.8,0.4-72.1-11.1-96.1-34c-19-18.1-31.8-42.9-38-73.5c-3.9-19.5-4.6-38-4.7-53.6
		c0-1.4,0-2.8,0-4.1l0-0.5c0-1.3,0-2.5,0-3.7L161,266.2l85.4-0.8L250.6,719.7z"/>
	<g id="XMLID_65_">
		<path id="XMLID_62_" class="st2" d="M171.3,723.2l0-0.2c0-1.2,0-2.4,0-3.5L167,266.2l4.3,0l4.2,453.3c0,1.1,0,2.3,0,3.5l0,0.2
			c0,1.4,0,3,0,4.6c0.1,15.1,0.8,33.1,4.5,51.8c5.8,28.6,17.6,51.6,35.1,68.3c22,21,51.9,31.4,88.8,31.1
			c38.6-0.4,69.9-12.1,92.9-34.9c35.7-35.3,36.3-83.2,36.2-88.6l-2.3-250.6c-0.4-38.3,8-65.9,24.3-79.7c9.6-8.2,19.5-9.4,22.3-9.6
			l1.2,0c18.9-0.2,33,4.8,43,15.2c20.6,21.4,22.2,62.8,21.1,76.9l-0.2,1.6l0,1.4l2.3,242.2c0.3,35.4,6.1,66,17.1,91.1
			c9.6,21.9,23.2,39.6,40.4,52.7c30.3,23.1,61.1,23.4,64.5,23.4l137.3-1.3l0,4.2l-137.3,1.3c-3.6,0-35.8-0.4-67.2-24.3
			c-17.8-13.5-31.8-31.8-41.7-54.3c-11.2-25.5-17.1-56.7-17.5-92.7l-2.3-242.2l0-1.6l0.2-1.8c1.1-13.6-0.3-53.4-19.9-73.7
			c-9.1-9.5-22.1-14-39.7-13.8l-1,0c-1.9,0.1-11,1.2-19.7,8.6c-15.3,13-23.2,39.5-22.9,76.6l2.3,250.6c0.1,5.5-0.6,55-37.4,91.5
			c-23.8,23.6-56.1,35.8-95.9,36.1c-38.1,0.4-69-10.5-91.8-32.3c-18.1-17.3-30.3-41-36.3-70.5c-3.8-19-4.5-37.2-4.6-52.6
			C171.3,726.1,171.3,724.6,171.3,723.2z M240.3,722.8l0-0.1c0-1.3,0-2.6,0-3.9L236,265.5l4.3,0l4.2,453.3c0,1.2,0,2.5,0,3.9l0,0.1
			c0.1,20.8,0.4,59.6,19.1,77.4c8.6,8.2,21.6,12.1,39.7,11.9c34.1-0.3,46.1-14.6,52.2-25.3c8.2-14.5,8.5-30.2,8.5-30.8l-2.3-250.4
			c-0.5-56.3,14.1-98.9,43.4-126.6c30.5-28.9,66.2-30.2,73-30.2c38.3-0.3,70.9,12.4,94.1,36.7c19.8,20.7,32.3,48.7,37.3,83.4
			c2.9,20.1,2.3,36.4,1.9,42.6l2.3,240.8c0.4,42.9,10.3,73.9,28.8,89.9c11.3,9.8,22.8,11,24.4,11.1c12.5,5.8,33.8,13.7,61.1,14.7
			c35.2,1.3,62.1-9.6,75.4-16c0,1.4,0,2.8,0,4.2l-137.3,1.3l0,0c-11.1-2.8-19.2-7.3-24.8-11.4c-39.1-28.4-32.6-88.4-32-93.7
			l-2.3-240.9l0-0.2c0.4-6,1-22-1.8-41.8c-4.8-33.8-17-61.1-36.2-81.1c-22.4-23.4-53.8-35.7-90.9-35.4c-6.5,0-40.7,1.3-70,29
			c-28.5,26.9-42.6,68.5-42.1,123.6l2.3,250.5c0,0.7-0.4,17.4-9.1,32.8c-6.6,11.6-19.5,27.2-55.9,27.5c-19.4,0.2-33.4-4.1-42.8-13.1
			c-18.8-18-20.1-54.7-20.3-76.7C240.3,725.2,240.3,724,240.3,722.8z"/>
		<g id="XMLID_66_">
			
				<rect id="XMLID_57_" x="193.3" y="287.7" transform="matrix(-9.373887e-03 -1 1 -9.373887e-03 -80.9334 500.3028)" class="st2" width="28.1" height="5.2"/>
			<path id="XMLID_61_" class="st2" d="M210.3,333l0.3,28.8l-5.2,0l-0.3-28.8L210.3,333z M210.9,390.6l0.3,28.8l-5.2,0l-0.3-28.8
				L210.9,390.6z M211.4,448.2l0.3,28.8l-5.2,0l-0.3-28.8L211.4,448.2z M212,505.7l0.3,28.8l-5.2,0l-0.3-28.8L212,505.7z
				 M212.5,563.3l0.3,28.8l-5.2,0l-0.3-28.8L212.5,563.3z M213,620.9l0.3,28.8l-5.2,0l-0.3-28.8L213,620.9z M213.6,678.4l0.3,28.8
				l-5.2,0l-0.3-28.8L213.6,678.4z M214.1,735.9c0.5,9.6,1.7,19.1,3.6,28.2l-5.1,1c-2-9.3-3.2-19.1-3.7-29L214.1,735.9z
				 M226.1,791.2c3.9,9.2,8.7,17.4,14.3,24.4l-4.1,3.1c-5.9-7.3-10.9-15.9-15-25.5L226.1,791.2z M261.6,834.3
				c7.9,4.8,16.8,8.3,26.6,10.3l-1.1,4.9c-10.3-2.2-19.8-5.9-28.2-11L261.6,834.3z M345,840.9l2.1,4.6c-12.6,5.3-24.1,6.3-29.9,6.5
				l-0.1-5C322.4,846.8,333.2,845.9,345,840.9z M384.4,802.1l4.7,2.1c-4.5,9.4-10.2,17.6-17,24.4l-3.7-3.5
				C374.7,818.8,380.1,811,384.4,802.1z M396.7,747.2l5.2,0.2c-0.5,10.3-1.7,20-3.6,28.9l-5.1-1C395,766.7,396.2,757.2,396.7,747.2z
				 M396.3,459.1l5.1,0.7c-1.7,10.9-1.6,18.7-1.6,18.7l0.1,9.7l-5.2,0l-0.1-9.7C394.6,478.3,394.5,470.4,396.3,459.1z M400.1,517
				l0.3,28.8l-5.2,0l-0.3-28.8L400.1,517z M400.6,574.6l0.3,28.8l-5.2,0l-0.3-28.8L400.6,574.6z M401.2,632.2l0.3,28.8l-5.2,0
				l-0.3-28.8L401.2,632.2z M401.7,689.7l0.3,28.8l-5.2,0l-0.3-28.8L401.7,689.7z M418.7,405l4,3.2c-5.7,6.7-10.4,14.8-14.1,24.3
				l-4.8-1.8C407.6,420.7,412.7,412,418.7,405z M472.7,381l0.1,0l0,5l-0.1,0c-10.2,0.1-19.5,1.9-27.7,5.5l-2.1-4.6
				C451.8,383.1,461.8,381.1,472.7,381z M502.9,384.3c10.1,2.5,19.5,6.6,27.8,12l-2.9,4.2c-7.8-5.1-16.6-8.9-26.2-11.3L502.9,384.3z
				 M552.6,416.7c5.8,7.5,10.7,16.1,14.7,25.7l-4.8,1.9c-3.8-9.2-8.5-17.4-14-24.5L552.6,416.7z M575.7,470.4
				c1.8,9.1,3,18.9,3.5,28.9l-5.2,0.2c-0.5-9.8-1.6-19.3-3.4-28.2L575.7,470.4z M576.8,776.7l-0.2-17.6l5.2,0l0.2,17.7l0,0.1
				c0,0,0,1,0,2.8c0,1.8,0.1,4.6,0.3,8.3l-5.2,0.3c-0.2-3.7-0.3-6.7-0.3-8.5C576.7,778,576.8,776.9,576.8,776.7z M579.6,528.3
				l0.3,28.9l-5.2,0l-0.3-28.9L579.6,528.3z M580.2,586l0.3,28.8l-5.2,0L575,586L580.2,586z M580.7,643.6l0.3,28.8l-5.2,0l-0.3-28.8
				L580.7,643.6z M581.2,701.3l0.3,28.8l-5.2,0l-0.3-28.8L581.2,701.3z M586.2,816c2.2,9.8,5.3,18.9,9,26.9l-4.7,2.1
				c-3.9-8.3-7-17.7-9.3-27.9L586.2,816z M610.8,866.2c6.7,7,14.5,12.2,23.2,15.7l-2,4.6c-9.4-3.7-17.9-9.4-25-16.9L610.8,866.2z
				 M662,887c0.6,0,1.1,0,1.7,0l28-0.3l0,5l-28,0.3c-0.6,0-1.2,0-1.8,0L662,887z M751.2,886.2l0,5l-29.7,0.3l0-5L751.2,886.2z"/>
			
				<rect id="XMLID_18_" x="785.5" y="880.8" transform="matrix(-9.373887e-03 -1 1 -9.373887e-03 -92.8997 1684.696)" class="st2" width="5" height="15.1"/>
		</g>
	</g>
	<g id="XMLID_137_">
		<path id="XMLID_107_" class="st1" d="M1197.3,718.9c0,1.2,0,2.4,0,3.6l0,0.4c0,1.1,0,2.4,0,3.6c-0.2,16.1-0.5,53.7-17.3,69.7
			c-7.4,7-19.1,10.4-35.6,10.2c-30.8-0.3-41.4-12.1-47.2-22.3c-7.2-12.7-7.8-26.9-7.8-28.1l2.3-250.3c0.5-58-14.8-102-45.5-130.9
			c-31.5-29.7-67.3-31.9-77.6-31.9c-40.2-0.3-74.5,13-99,38.6c-20.7,21.6-33.8,50.7-39,86.5c-1.4,9.8-2.2,19.9-2.3,29.9
			c-0.1,6,0.1,10.7,0.3,13.6l-2.3,240.6c-0.4,41.2-9.7,70.8-26.9,85.6c-9.5,8.2-19,9.4-20.7,9.6c-11.7,2.8-28.4,6-48.8,6.6
			c-6.8,0.2-17.2,0.5-29.6-0.9c-13.3-1.6-34.7-5.8-59.5-19.1c-4.3,29.7-8.5,59.4-12.8,89.2c6.9,2.2,16.4,4.9,27.8,7.4
			c30.3,6.5,54.1,6.8,70.9,6.9c17.9,0.1,40.8-0.9,67.3-5c13-3.4,34.8-10.8,56.4-27.9c25.8-20.5,38.1-43.8,43.8-56.6
			c11.6-26.2,17.7-58.2,18-94.9l2.3-242.1l0.1-1.9l-0.2-2.1c-0.1-1.6-0.3-4.4-0.2-8.3c0.1-9.9,1.7-43.4,18.6-60.9
			c5-5.2,11.4-8.6,19.5-10.5l17.1-1.5c2.3,0.3,9.1,1.5,15.7,7.1c13.8,11.7,21.2,37.3,20.9,72.1l-2.3,250.6
			c-0.1,5.8,0.6,57.5,39.4,95.6c25.1,24.8,59,37.5,100.7,37.9c39.9,0.4,72.4-11.1,96.6-34c19.1-18.1,31.9-42.9,38.1-73.5
			c3.9-19.5,4.6-38,4.8-53.6c0-1.4,0-2.8,0-4.1l0-0.5c0-1.3,0-2.5,0-3.7l4.3-454.3l-85.8-0.8L1197.3,718.9z"/>
		<g id="XMLID_136_">
			<path id="XMLID_104_" class="st2" d="M1277,727c-0.3,24.2-3,44.5-4.6,52.6c-6,29.5-18.2,53.2-36.4,70.5
				c-23,21.8-54,32.6-92.3,32.3c-40-0.4-72.4-12.5-96.4-36.1c-37.1-36.5-37.7-86-37.6-91.5l2.3-250.6c0.3-37.1-7.6-63.5-23-76.6
				c-8.7-7.4-17.9-8.5-19.8-8.6l-1,0c-17.7-0.2-30.8,4.4-39.9,13.8c-19.7,20.3-21.1,60.1-20,73.7l0.2,1.8l0,1.6L906.1,752
				c-0.3,35.9-6.2,67.1-17.5,92.7c-6.2,14.1-17.7,35.7-41.9,54.3c-27.3,21-55.8,25.8-69.2,27.2c-25.5,2.7-44.7,4-61.7,3.3
				c-21.5-0.9-51.8-3.9-87.5-13.5c0.3-1.3,0.5-2.7,0.8-4c11.6,3.4,27.2,7.1,45.9,9.6c3.3,0.4,18.3,2.3,40.3,2.8
				c24.3,0.5,46.1-1.1,64.7-3.5c12.7-1.4,38.8-6.1,64-25.1c23.3-17.7,34.3-38.4,40.6-52.7c11.1-25,16.9-55.7,17.2-91.1l2.3-242.2
				l0-1.4l-0.2-1.6c-1.2-14.2,0.4-55.5,21.2-76.9c10-10.4,24.2-15.3,43.2-15.2l1.2,0c2.8,0.2,12.8,1.5,22.4,9.6
				c16.3,13.9,24.8,41.4,24.4,79.7l-2.3,250.6c-0.1,5.4,0.5,53.3,36.4,88.6c23.1,22.8,54.5,34.5,93.4,34.9
				c37.1,0.3,67.1-10.1,89.2-31.1c17.6-16.7,29.4-39.7,35.2-68.3c3.8-18.7,4.4-36.7,4.6-51.8c0-1.6,0-3.1,0-4.6l0-0.2
				c0-1.2,0-2.4,0-3.5l4.2-453.3l4.3,0l-4.2,453.3c0,1.1,0,2.3,0,3.5C1277,723.3,1277,725,1277,727z M1207.6,725.7
				c-0.4,58.7-20.4,76.7-20.4,76.7c-9.5,9-23.6,13.3-43,13.1c-36.6-0.3-49.6-15.9-56.2-27.5c-8.7-15.4-9.1-32.1-9.1-32.8l2.3-250.5
				c0.5-55.1-13.7-96.7-42.3-123.6c-29.5-27.7-63.8-29.1-70.4-29c-37.3-0.3-68.9,11.9-91.4,35.4c-19.3,20.1-31.5,47.3-36.4,81.1
				c-2.9,19.8-2.2,35.8-1.8,41.8l0,0.2l-2.3,240.9c-0.4,44.1-10.9,76.2-30.3,93c-11.7,10.1-23.5,11.8-26.7,12.1l0,0
				c-21,4.8-38.9,6.1-52,6.3c-17.4,0.2-42.5,0.2-71.3-11.1c-8.7-3.4-15.6-7-20.3-9.7c1.2-1.1,2.4-2.1,3.6-3.2
				c4.9,3,11.9,6.7,20.5,10.1c7.6,3,18.2,6.3,35.1,8.5c20.3,2.7,49.8,6.5,83.7-5.1c10.8-3.7,17.9-5.4,24.5-11.1
				c18.5-15.9,28.5-47,28.9-89.9l2.3-240.8c-0.4-6.1-1-22.4,1.9-42.6c5-34.6,17.6-62.7,37.5-83.4c23.3-24.3,56-37,94.6-36.7
				c6.8,0,42.7,1.4,73.4,30.2c29.5,27.7,44.2,70.3,43.6,126.6l-2.3,250.4c0,0.6,0.4,16.3,8.6,30.8c6.1,10.7,18.1,25,52.4,25.3
				c18.2,0.2,31.3-3.7,39.9-11.9c18.7-17.8,19-56.6,19.1-77.4l0-0.1c0-1.3,0-2.6,0-3.9l4.2-453.3l4.3,0l-4.2,453.3
				c0,0.4,0,1.5,0,1.9C1207.6,723.2,1207.6,725.6,1207.6,725.7z"/>
			<g id="XMLID_68_">
				
					<rect id="XMLID_103_" x="1226.7" y="286.9" transform="matrix(9.373890e-03 -1 1 9.373890e-03 939.6636 1527.4366)" class="st2" width="28.1" height="5.2"/>
				<path id="XMLID_70_" class="st2" d="M1242.9,332.3l-0.3,28.8l-5.2,0l0.3-28.8L1242.9,332.3z M1242.4,389.9l-0.3,28.8l-5.2,0
					l0.3-28.8L1242.4,389.9z M1241.9,447.4l-0.3,28.8l-5.2,0l0.3-28.8L1241.9,447.4z M1241.3,505l-0.3,28.8l-5.2,0l0.3-28.8
					L1241.3,505z M1240.8,562.6l-0.3,28.8l-5.2,0l0.3-28.8L1240.8,562.6z M1240.2,620.1l-0.3,28.8l-5.2,0l0.3-28.8L1240.2,620.1z
					 M1239.7,677.7l-0.3,28.8l-5.2,0l0.3-28.8L1239.7,677.7z M1239.1,735.4c-0.5,9.9-1.8,19.6-3.8,29l-5.1-1
					c1.9-9.1,3.2-18.6,3.7-28.2L1239.1,735.4z M1226.7,792.4c-4.1,9.6-9.2,18.2-15.1,25.5l-4.1-3.1c5.6-7,10.5-15.2,14.4-24.4
					L1226.7,792.4z M1189,837.7c-8.5,5.1-18,8.8-28.3,11l-1.1-4.9c9.8-2,18.7-5.5,26.7-10.3L1189,837.7z M1130.5,846.2l-0.1,5
					c-5.8-0.1-17.3-1.1-30-6.5l2.1-4.6C1114.3,845.1,1125.1,846.1,1130.5,846.2z M1078.9,824.4l-3.7,3.5c-6.8-6.8-12.5-15-17.1-24.4
					l4.7-2.1C1067.2,810.2,1072.6,818,1078.9,824.4z M1054,774.5l-5.1,1c-1.9-8.9-3.1-18.6-3.6-28.9l5.2-0.2
					C1051,756.5,1052.2,765.9,1054,774.5z M1052.6,477.8l-0.1,9.7l-5.2,0l0.1-9.7c0-0.1,0-7.9-1.7-18.7l5.1-0.7
					C1052.7,469.6,1052.6,477.5,1052.6,477.8z M1052.3,516.3l-0.3,28.8l-5.2,0l0.3-28.8L1052.3,516.3z M1051.7,573.8l-0.3,28.8
					l-5.2,0l0.3-28.8L1051.7,573.8z M1051.2,631.4l-0.3,28.8l-5.2,0l0.3-28.8L1051.2,631.4z M1050.6,689l-0.3,28.8l-5.2,0l0.3-28.8
					L1050.6,689z M1043.4,429.9l-4.9,1.8c-3.7-9.5-8.5-17.6-14.2-24.3l4-3.2C1034.4,411.3,1039.5,419.9,1043.4,429.9z M1004,386.1
					l-2.1,4.6c-8.2-3.5-17.6-5.4-27.8-5.5l-0.1,0l0-5l0.1,0C985,380.3,995.1,382.3,1004,386.1z M945.1,388.4
					c-9.6,2.4-18.5,6.2-26.3,11.3l-2.9-4.2c8.3-5.4,17.7-9.4,27.9-12L945.1,388.4z M898,418.9c-5.5,7.1-10.3,15.4-14.1,24.5
					l-4.8-1.9c4-9.6,8.9-18.2,14.7-25.7L898,418.9z M875.7,470.6c-1.8,8.9-2.9,18.4-3.4,28.2l-5.2-0.2c0.5-10.1,1.7-19.8,3.5-28.9
					L875.7,470.6z M869.6,778.8c0,1.8-0.1,4.8-0.3,8.5L864,787c0.2-3.6,0.3-6.5,0.3-8.3c0-1.8,0-2.7,0-2.8l0-0.1l0.2-17.7l5.2,0
					l-0.2,17.6C869.6,776.1,869.6,777.2,869.6,778.8z M871.9,527.5l-0.3,28.9l-5.2,0l0.3-28.9L871.9,527.5z M871.3,585.2l-0.3,28.8
					l-5.2,0l0.3-28.8L871.3,585.2z M870.8,642.9l-0.3,28.8l-5.2,0l0.3-28.8L870.8,642.9z M870.3,700.6l-0.3,28.8l-5.2,0l0.3-28.8
					L870.3,700.6z M865.1,816.3c-2.3,10.2-5.5,19.5-9.4,27.9l-4.7-2.1c3.8-8,6.8-17,9-26.9L865.1,816.3z M839.1,868.8
					c-7.2,7.5-15.7,13.2-25.2,16.9l-2-4.6c8.8-3.5,16.6-8.7,23.3-15.7L839.1,868.8z M783.9,891.2c-0.6,0-1.2,0-1.8,0L754,891l0-5
					l28.1,0.3c0.6,0,1.2,0,1.7,0L783.9,891.2z M724.2,885.7l0,5l-29.9-0.3l0-5L724.2,885.7z"/>
				
					<rect id="XMLID_69_" x="654.7" y="880" transform="matrix(9.373890e-03 -1 1 9.373890e-03 -236.4398 1536.451)" class="st2" width="5" height="15.2"/>
			</g>
		</g>
	</g>
	<g id="XMLID_123_">
		<path id="XMLID_131_" class="st3" d="M1030.1,989.7c0,5.4-4.4,9.8-9.8,9.8h-23.5c-5.4,0-9.8-4.4-9.8-9.8l0,0
			c0-5.4,4.4-9.8,9.8-9.8h23.5C1025.7,980,1030.1,984.3,1030.1,989.7L1030.1,989.7z"/>
		<g id="XMLID_124_">
			<path id="XMLID_130_" class="st4" d="M1034.9,944.7c0,13.8-12.7,25-28.3,25c-15.7,0-28.3-11.2-28.3-25
				c0-13.8,12.7-73.8,28.3-73.8C1022.2,870.9,1034.9,930.9,1034.9,944.7z"/>
			<g id="XMLID_125_">
				<path id="XMLID_129_" class="st5" d="M1016.1,992.2h-19.4c-1.1,0-2-0.9-2-2c0-1.1,0.9-2,2-2h19.4c1.1,0,2,0.9,2,2
					C1018.1,991.2,1017.2,992.2,1016.1,992.2z"/>
				<path id="XMLID_128_" class="st5" d="M1006.5,992.2c-1.1,0-2-0.9-2-2v-98.3c0-1.1,0.9-2,2-2c1.1,0,2,0.9,2,2v98.3
					C1008.6,991.2,1007.7,992.2,1006.5,992.2z"/>
				<path id="XMLID_127_" class="st5" d="M1006.3,927.4c-0.6,0-1.1-0.2-1.5-0.6l-12.5-12.9c-0.8-0.8-0.8-2.1,0.1-2.9
					c0.8-0.8,2.1-0.8,2.9,0.1l10.9,11.3l10.1-12c0.7-0.9,2-1,2.9-0.3s1,2,0.2,2.9l-11.6,13.8C1007.5,927.1,1007,927.3,1006.3,927.4
					C1006.4,927.3,1006.4,927.4,1006.3,927.4z"/>
				<path id="XMLID_126_" class="st5" d="M1006.3,951.2c-0.6,0-1.1-0.2-1.5-0.6l-12.5-12.9c-0.8-0.8-0.8-2.1,0.1-2.9
					c0.8-0.8,2.1-0.8,2.9,0.1l11,11.4l11.5-12.2c0.8-0.8,2.1-0.9,2.9-0.1c0.8,0.8,0.9,2.1,0.1,2.9l-13,13.8
					C1007.4,951,1006.9,951.2,1006.3,951.2C1006.3,951.2,1006.3,951.2,1006.3,951.2z"/>
			</g>
		</g>
	</g>
	<path id="XMLID_175_" class="st2" d="M1225.8,779.8c2-2.6,4.7-6.8,6.5-12.7c1.8-5.9,2-10.9,1.8-14.2c1.6,0.5,3.3,1,4.9,1.5
		c0.2,3.2,0.1,8.3-1.7,14.2c-1.8,5.9-4.7,10.1-6.6,12.6C1229.1,780.8,1227.4,780.3,1225.8,779.8z"/>
	<g id="XMLID_138_">
		<path id="XMLID_179_" class="st1" d="M1284.9,332.6c0-1.2,0-2.4,0-3.6l0-0.4c0-1.1,0-2.4,0-3.6c0.2-16.1,0.7-53.7,18.5-69.6
			c7.9-7,20.2-10.3,37.7-10.1c32.5,0.4,43.7,12.2,49.8,22.4c7.6,12.7,8.2,26.9,8.2,28.1l-3.2,250.3c-0.8,58,15.3,102,47.6,131
			c33.2,29.8,71,32.1,81.9,32.1c42.5,0.4,78.7-12.8,104.7-38.3c22-21.5,35.9-50.6,41.5-86.4c1.5-9.8,2.4-19.9,2.5-29.9
			c0.1-6-0.1-10.7-0.3-13.6l3.1-240.6c0.5-41.2,10.4-70.7,28.7-85.5c10-8.1,20.1-9.4,21.9-9.6c12.3-2.8,30-5.9,51.6-6.5
			c7.2-0.2,18.2-0.5,31.3,1c14.1,1.6,36.6,5.9,62.8,19.3c4.6-29.7,9.2-59.4,13.8-89.1c-7.3-2.2-17.3-5-29.3-7.5
			c-32-6.6-57.1-7-74.9-7.1c-18.9-0.2-43.1,0.8-71.1,4.8c-13.8,3.3-36.8,10.7-59.6,27.8c-27.3,20.5-40.3,43.7-46.4,56.5
			c-12.3,26.2-18.8,58.1-19.3,94.8l-3.1,242.1l-0.1,1.9l0.2,2.1c0.1,1.6,0.3,4.4,0.2,8.3c-0.1,9.9-1.9,43.4-19.9,60.9
			c-5.3,5.2-12.1,8.6-20.7,10.4l-18,1.4c-2.4-0.3-9.6-1.5-16.6-7.2c-14.6-11.7-22.3-37.4-21.9-72.2l3.2-250.6
			c0.1-5.8-0.4-57.5-41.3-95.7c-26.5-24.8-62.2-37.7-106.3-38.2c-42.2-0.5-76.6,10.9-102.1,33.7c-20.2,18.1-33.9,42.8-40.5,73.4
			c-4.2,19.5-5,38-5.2,53.6c0,1.4,0,2.8,0,4.1l0,0.5c0,1.3,0,2.5,0,3.7l-5.9,454.2l90.6,1L1284.9,332.6z"/>
		<path id="XMLID_176_" class="st2" d="M1198.7,324.3c0.4-24.2,3.3-44.5,5.1-52.6c6.4-29.5,19.5-53.1,38.8-70.4
			c24.4-21.7,57.3-32.5,97.9-32c42.4,0.5,76.7,12.7,102,36.4c39.2,36.6,39.7,86.1,39.6,91.6l-3.2,250.6
			c-0.5,37.1,7.9,63.5,24.1,76.6c9.2,7.4,18.9,8.5,21,8.7l1,0c18.8,0.2,32.6-4.3,42.4-13.7c20.9-20.3,22.6-60.1,21.4-73.7l-0.2-1.8
			l0.1-1.6l3.1-242.2c0.5-35.9,6.8-67.1,18.9-92.6c6.6-14.1,18.8-35.7,44.6-54.2c29-20.9,59.2-25.7,73.4-27.1
			c27.1-2.6,47.4-3.8,65.4-3.1c22.8,0.9,54.9,4,92.6,13.8c-0.3,1.3-0.6,2.7-0.9,4c-12.3-3.4-28.8-7.2-48.6-9.7
			c-3.5-0.5-19.3-2.4-42.7-2.9c-25.7-0.6-48.8,0.9-68.6,3.3c-13.4,1.4-41.1,5.9-67.9,25c-24.7,17.6-36.4,38.3-43.2,52.6
			c-11.8,25-18,55.6-18.5,91l-3.1,242.2l0,1.4l0.2,1.6c1.2,14.2-0.6,55.5-22.6,76.9c-10.7,10.4-25.6,15.3-45.8,15l-1.2,0
			c-3-0.2-13.5-1.5-23.7-9.7c-17.3-13.9-26.2-41.5-25.7-79.8l3.2-250.5c0.1-5.4-0.4-53.3-38.3-88.7c-24.4-22.8-57.7-34.7-98.8-35.1
			c-39.3-0.4-71.1,9.9-94.6,30.8c-18.7,16.6-31.3,39.6-37.5,68.2c-4.1,18.7-4.8,36.7-5,51.8c0,1.6,0,3.1-0.1,4.6l0,0.2
			c0,1.2,0,2.4,0,3.5l-5.9,453.3l-4.6-0.1l5.9-453.3c0-1.1,0-2.3,0-3.5C1198.6,328,1198.6,326.3,1198.7,324.3z M1272.1,325.8
			c0.6-58.7,21.9-76.7,21.9-76.7c10.1-9,25-13.2,45.6-13c38.8,0.4,52.5,16,59.5,27.7c9.2,15.4,9.6,32.1,9.6,32.8l-3.2,250.4
			c-0.7,55.1,14.2,96.7,44.5,123.7c31.2,27.8,67.5,29.2,74.5,29.2c39.5,0.4,73-11.8,96.9-35.1c20.5-20,33.5-47.3,38.8-81
			c3.1-19.8,2.5-35.8,2.1-41.8l0-0.2l3.1-240.8c0.6-44.1,11.8-76.2,32.4-92.9c12.4-10.1,24.9-11.8,28.4-12.1l0,0
			c22.2-4.8,41.2-6,55.2-6.1c18.4-0.2,45-0.1,75.5,11.3c9.2,3.4,16.5,7,21.5,9.8c-1.3,1.1-2.6,2.1-3.9,3.2
			c-5.2-3-12.5-6.7-21.7-10.1c-8.1-3-19.3-6.3-37.2-8.6c-21.5-2.7-52.7-6.7-88.7,4.8c-11.5,3.7-19,5.3-26,11
			c-19.7,15.9-30.3,46.9-30.9,89.8l-3.1,240.8c0.4,6.1,1,22.4-2.1,42.5c-5.4,34.6-18.8,62.6-39.9,83.3
			c-24.8,24.3-59.5,36.9-100.3,36.5c-7.3,0-45.2-1.5-77.7-30.4c-31.2-27.8-46.6-70.5-45.8-126.8l3.2-250.4c0-0.6-0.4-16.3-9-30.8
			c-6.4-10.7-19.1-25.1-55.5-25.5c-19.3-0.2-33.2,3.6-42.3,11.8c-19.9,17.7-20.3,56.5-20.5,77.3l0,0.1c0,1.3,0,2.6,0,3.9l-5.9,453.3
			l-4.6-0.1l5.9-453.3c0-0.4,0-1.5,0-1.9C1272.1,328.2,1272.1,325.8,1272.1,325.8z"/>
		<path id="XMLID_142_" class="st2" d="M1233.5,719l0.4-28.8l5.5,0.1l-0.4,28.8L1233.5,719z M1234.3,661.5l0.4-28.8l5.5,0.1
			l-0.4,28.8L1234.3,661.5z M1235,603.9l0.4-28.8l5.5,0.1l-0.4,28.8L1235,603.9z M1235.8,546.3l0.4-28.8l5.5,0.1l-0.4,28.8
			L1235.8,546.3z M1236.5,488.8l0.4-28.8l5.5,0.1l-0.4,28.8L1236.5,488.8z M1237.3,431.2l0.4-28.8l5.5,0.1l-0.4,28.8L1237.3,431.2z
			 M1238,373.6l0.4-28.8l5.5,0.1l-0.4,28.8L1238,373.6z M1238.8,316c0.6-9.9,2-19.6,4.1-29l5.4,1c-2.1,9.1-3.4,18.6-4,28.2
			L1238.8,316z M1252.1,259c4.4-9.6,9.8-18.2,16.1-25.5l4.3,3.1c-6,7-11.1,15.1-15.3,24.3L1252.1,259z M1292.2,213.7
			c9-5.1,19.1-8.7,30.1-10.9l1.2,4.9c-10.4,2-19.9,5.5-28.3,10.2L1292.2,213.7z M1354.2,205.5l0.1-5c6.1,0.1,18.4,1.2,31.8,6.5
			l-2.2,4.6C1371.3,206.6,1359.9,205.6,1354.2,205.5z M1408.8,227.4l4-3.5c7.2,6.8,13.2,15,18,24.5l-5,2.1
			C1421.2,241.6,1415.5,233.8,1408.8,227.4z M1435.1,277.3l5.4-1c2,8.9,3.2,18.6,3.7,28.9l-5.5,0.2
			C1438.2,295.4,1437,285.9,1435.1,277.3z M1435.6,574.1l0.1-9.7l5.5,0.1l-0.1,9.7c0,0.1-0.1,7.9,1.7,18.7l-5.5,0.7
			C1435.5,582.3,1435.6,574.4,1435.6,574.1z M1436.1,535.6l0.4-28.8l5.5,0.1l-0.4,28.8L1436.1,535.6z M1436.9,478l0.4-28.8l5.5,0.1
			l-0.4,28.8L1436.9,478z M1437.6,420.4l0.4-28.8l5.5,0.1l-0.4,28.8L1437.6,420.4z M1438.4,362.9l0.4-28.8l5.5,0.1l-0.4,28.8
			L1438.4,362.9z M1445.3,622l5.2-1.8c3.9,9.5,8.9,17.6,15,24.3l-4.3,3.2C1454.7,640.7,1449.4,632,1445.3,622z M1486.9,665.9
			l2.3-4.6c8.7,3.6,18.6,5.4,29.5,5.6l0.1,0l-0.1,5l-0.1,0C1506.9,671.8,1496.3,669.7,1486.9,665.9z M1549.3,663.8
			c10.2-2.4,19.6-6.1,27.9-11.2l3.1,4.2c-8.8,5.4-18.8,9.4-29.6,11.9L1549.3,663.8z M1599.3,633.4c5.9-7.1,10.9-15.3,15-24.5
			l5.1,1.9c-4.2,9.6-9.5,18.2-15.7,25.6L1599.3,633.4z M1623,581.8c1.9-8.9,3.2-18.4,3.7-28.2l5.5,0.3c-0.6,10-1.8,19.8-3.8,28.9
			L1623,581.8z M1630.5,273.5c0-1.8,0.1-4.8,0.4-8.5l5.5,0.3c-0.2,3.6-0.3,6.5-0.4,8.3c0,1.8,0,2.7,0,2.8l0,0.1l-0.2,17.7l-5.5-0.1
			l0.2-17.6C1630.5,276.2,1630.5,275.2,1630.5,273.5z M1627.3,524.8l0.4-28.9l5.5,0.1l-0.4,28.9L1627.3,524.8z M1628,467.1l0.4-28.8
			l5.5,0.1l-0.4,28.8L1628,467.1z M1628.8,409.5l0.4-28.8l5.5,0.1l-0.4,28.8L1628.8,409.5z M1629.5,351.8l0.4-28.8l5.5,0.1
			l-0.4,28.8L1629.5,351.8z M1635.3,236.1c2.5-10.2,5.9-19.5,10-27.8l5,2.1c-4,8-7.2,17-9.6,26.8L1635.3,236.1z M1663,183.6
			c7.7-7.5,16.7-13.1,26.7-16.9l2.1,4.6c-9.3,3.4-17.6,8.7-24.8,15.6L1663,183.6z M1721.6,161.4c0.6,0,1.3,0,1.9,0l29.8,0.3l-0.1,5
			l-29.8-0.3c-0.6,0-1.2,0-1.8,0L1721.6,161.4z M1784.9,167.1l0.1-5l31.6,0.4l-0.1,5L1784.9,167.1z"/>
		<polygon id="XMLID_141_" class="st2" points="1847.7,167.8 1847.8,162.8 1863.8,163 1863.8,168 		"/>
	</g>
	<g id="XMLID_140_">
		<g id="XMLID_19_">
			<path id="XMLID_17_" class="st6" d="M244.5,205.9h-79.9c-21.8,0-21.8,33,0,33h79.9C266.4,238.9,266.4,205.9,244.5,205.9z"/>
			<path id="XMLID_16_" class="st7" d="M244.5,238.9h-40.3v-33h40.3C266.4,205.9,266.4,238.9,244.5,238.9z"/>
			<g id="XMLID_34_">
				<path id="XMLID_15_" class="st8" d="M177.9,225.7h-6.6c-4.4,0-4.4-6.6,0-6.6h6.6C182.2,219.1,182.2,225.7,177.9,225.7z"/>
				<path id="XMLID_14_" class="st8" d="M197.7,225.7h-6.6c-1.8,0-3.3-1.5-3.3-3.3s1.5-3.3,3.3-3.3h6.6
					C202,219.1,202,225.7,197.7,225.7z"/>
			</g>
			<g id="XMLID_31_">
				<path id="XMLID_13_" class="st9" d="M217.5,225.7h-6.6c-4.4,0-4.4-6.6,0-6.6h6.6C221.8,219.1,221.8,225.7,217.5,225.7z"/>
				<path id="XMLID_12_" class="st9" d="M237.9,225.7h-6.6c-4.4,0-4.4-6.6,0-6.6h6.6C242.3,219.1,242.3,225.7,237.9,225.7z"/>
			</g>
			<g id="XMLID_28_">
				<path id="XMLID_11_" class="st10" d="M220.1,145.4c-0.2,8.4-6.2,16.2-15.8,16.4h-0.1c-8.7-0.1-15.8-7.1-15.8-15.8
					s7.1-15.8,15.8-15.8C212.9,130.2,219.8,136.9,220.1,145.4z"/>
				<path id="XMLID_10_" class="st10" d="M236.6,182.3v12.5h-64.7v-12.5c0-10.6,8.6-19.1,19.1-19.1h26.4
					C228,163.2,236.6,171.8,236.6,182.3z"/>
			</g>
			<g id="XMLID_21_">
				<path id="XMLID_9_" class="st11" d="M204.3,161.9v-31.7c8.6,0,15.6,6.7,15.8,15.2C219.9,153.8,213.9,161.6,204.3,161.9z"/>
				<path id="XMLID_8_" class="st11" d="M236.6,194.9h-32.3v-31.7h13.2c10.6,0,19.1,8.6,19.1,19.1V194.9z"/>
				<path id="XMLID_22_" class="st11" d="M218.6,159.4c3.2-3.6,5.3-8.5,5.5-13.9c-0.3-10.8-9-19.3-19.8-19.3
					c-10.9,0-19.8,8.9-19.8,19.8c0,5,1.9,9.7,5.3,13.3c-12.1,0.7-21.8,10.7-21.8,23v13.2c0,1.8,1.5,3.3,3.3,3.3h66
					c1.8,0,3.3-1.5,3.3-3.3v-13.2C240.6,170,230.8,160,218.6,159.4z M204.3,132.8c7.2,0,13,5.6,13.2,12.7
					c-0.2,7.3-5.7,13.3-12.4,13.7h-0.9c-3.5,0-6.8-1.4-9.2-3.9c-2.5-2.4-3.9-5.8-3.9-9.3C191.1,138.8,197,132.8,204.3,132.8z
					 M234,192.2h-6.6v-9.9c0-4.4-6.6-4.4-6.6,0v9.9h-33v-9.9c0-4.4-6.6-4.4-6.6,0v9.9h-6.6v-9.9c0-9.1,7.4-16.5,16.5-16.5h26.4
					c9.1,0,16.5,7.4,16.5,16.5V192.2z"/>
			</g>
			<path id="XMLID_2_" class="st12" d="M240.6,182.3v13.2c0,1.8-1.5,3.3-3.3,3.3h-33v-6.6h16.5v-9.9c0-4.4,6.6-4.4,6.6,0v9.9h6.6
				v-9.9c0-9.1-7.4-16.5-16.5-16.5h-13.2v-6.6h0.8c6.7-0.4,12.2-6.4,12.4-13.7c-0.2-7.1-6-12.7-13.2-12.7v-6.6
				c10.8,0,19.5,8.4,19.8,19.3c-0.1,5.3-2.2,10.2-5.5,13.9C230.8,160,240.6,170,240.6,182.3z"/>
		</g>
		<g id="XMLID_139_">
			<path id="XMLID_185_" class="st13" d="M218.2,235.4c3-6,2.9-12.7-2.1-17.7c-6.6-6.6-17.4-6.2-23.6,1c-5.3,6.3-4.9,15.9,1,21.7
				c4.5,4.4,10.6,5.4,16.2,3.5l2.8,2.9h5v4h4v4h5v5h3v2.8c0,0.8,0,1,0.6,1.6c0.4,0.4,0.9,0.6,1.4,0.7h8v-9L218.2,235.4z M204,228.3
				c-2,2-5.1,2-7.1,0s-2-5.1,0-7.1s5.1-2,7.1,0C206,223.2,206,226.4,204,228.3z"/>
			<path id="XMLID_184_" class="st14" d="M215.5,239.7l-5.6,4.4l2.6,2.6h5v4h4v4h5v5h3v2.8c0,0.8,0,1,0.6,1.6
				c0.4,0.4,0.9,0.6,1.4,0.7h8v-1L215.5,239.7z"/>
			<path id="XMLID_181_" class="st15" d="M200.5,217.7c-3.9,0-7,3.1-7,7c0,3.9,3.1,7,7,7c3.9,0,7-3.1,7-7
				C207.5,220.9,204.4,217.7,200.5,217.7z M200.5,229.7c-2.8,0-5-2.2-5-5c0-2.8,2.2-5,5-5s5,2.2,5,5
				C205.5,227.5,203.3,229.7,200.5,229.7z"/>
		</g>
	</g>
	<g id="XMLID_188_">
		<path id="XMLID_180_" class="st16" d="M567.7,226.4H318.2c-4.8,0-8.7-3.9-8.7-8.7V114c0-4.8,3.9-8.7,8.7-8.7h249.6
			c4.8,0,8.7,3.9,8.7,8.7v103.8C576.4,222.5,572.5,226.4,567.7,226.4z"/>
		<path id="XMLID_189_" class="st16" d="M322.1,159.2l-66.4,33c10.3-2.7,29.6-6.2,52.8-1.1c15.8,3.5,27.8,9.8,35.6,14.7
			C336.9,190.3,329.5,174.8,322.1,159.2z"/>
	</g>
	<g id="XMLID_64_">
		<path id="XMLID_112_" class="st3" d="M473.3,288.6c0,5.4-4.4,9.9-9.9,9.9h-91c-5.4,0-9.9-4.4-9.9-9.9v-2.8c0-5.4,4.4-9.9,9.9-9.9
			h91c5.4,0,9.9,4.4,9.9,9.9V288.6z"/>
		<path id="XMLID_111_" class="st3" d="M523.3,280.1c0,5.4-4.4,9.9-9.9,9.9h-91c-5.4,0-9.9-4.4-9.9-9.9v-2.8c0-5.4,4.4-9.9,9.9-9.9
			h91c5.4,0,9.9,4.4,9.9,9.9V280.1z"/>
		<path id="XMLID_110_" class="st17" d="M476.1,203c-0.2-0.6-0.5-1.2-0.9-1.8l0-0.1l0,0c-1.6-2.7-4.3-4.4-7.2-4.4
			c-3,0-5.6,1.7-7.2,4.4l0,0l0,0.1c-0.3,0.6-0.6,1.2-0.9,1.8l-36.1,74.7H468h44.2L476.1,203z"/>
		<path id="XMLID_109_" class="st18" d="M469,230.3c0.4,3.7,3.1,6.3,6.1,5.9c3-0.4,5.2-3.8,4.8-7.4l-0.6-6.4c1.6,2,4.1,2.7,6.3,1.5
			c0.2-0.1,0.4-0.2,0.6-0.4l-10-21.1c-0.2-0.6-0.5-1.3-0.9-1.8l0-0.1l0,0c-1.6-2.7-4.3-4.5-7.2-4.5c-0.6,0-1.2,0.1-1.8,0.2
			c0,0.1,0,0.2-0.1,0.3c0,0-0.1,0-0.1,0c0-0.1,0-0.2,0-0.2c-2.2,0.6-4,2.1-5.3,4.2l0,0l0,0.1c-0.3,0.6-0.6,1.2-0.9,1.8L446.7,230
			c0.3,0.3,0.7,0.6,1.1,0.8c2.8,1.5,6,0,7.2-3.4l2.3-6.3l-1.1,12.7c-0.3,3.7,1.9,7,4.9,7.3c3,0.4,5.7-2.3,6-6l1.1-12.8L469,230.3z"
			/>
		<path id="XMLID_108_" class="st19" d="M426.1,214c-0.2-0.6-0.5-1.2-0.9-1.8l0-0.1l0,0c-1.6-2.7-4.3-4.4-7.2-4.4
			c-3,0-5.6,1.7-7.2,4.4l0,0l0,0.1c-0.3,0.6-0.6,1.2-0.9,1.8l-36.1,74.7H418h44.2L426.1,214z"/>
		<path id="XMLID_67_" class="st18" d="M419,241.3c0.4,3.7,3.1,6.3,6.1,5.9c3-0.4,5.2-3.8,4.8-7.4l-0.6-6.4c1.6,2,4.1,2.7,6.3,1.5
			c0.2-0.1,0.4-0.2,0.6-0.4l-10-21.1c-0.2-0.6-0.5-1.3-0.9-1.8l0-0.1l0,0c-1.6-2.7-4.3-4.5-7.2-4.5c-0.6,0-1.2,0.1-1.8,0.2
			c0,0.1,0,0.2-0.1,0.3c0,0-0.1,0-0.1,0c0-0.1,0-0.2,0-0.2c-2.2,0.6-4,2.1-5.3,4.2l0,0l0,0.1c-0.3,0.6-0.6,1.2-0.9,1.8L396.7,241
			c0.3,0.3,0.7,0.6,1.1,0.8c2.8,1.5,6,0,7.2-3.4l2.3-6.3l-1.1,12.7c-0.3,3.7,1.9,7,4.9,7.3c3,0.4,5.7-2.3,6-6l1.1-12.8L419,241.3z"
			/>
	</g>
	<text id="XMLID_190_" transform="matrix(1 0 0 1 324.5726 146.0389)"><tspan x="0" y="0" class="st20 st21">user creates a unique </tspan><tspan x="0" y="27.6" class="st20 st21">password , which logs in</tspan><tspan x="0" y="55.2" class="st20 st21">once.</tspan></text>
	<g id="XMLID_198_">
		<path id="XMLID_196_" class="st22" d="M267.3,1014.9c0-29.4-23.8-53.1-53.1-53.1c-29.4,0-53.1,23.8-53.1,53.1
			c0,29.3,23.8,53.1,53.1,53.1C243.5,1068.1,267.3,1044.3,267.3,1014.9z"/>
		<g id="XMLID_199_">
			<path id="XMLID_195_" class="st23" d="M228.5,1038.8c-0.3-0.4-0.9-0.6-1.3-0.4c-5.3,2.5-11.2,5.1-12.4,5.4c0,0-0.1-0.1-0.1-0.2
				c-0.2-0.2-0.2-0.5-0.2-0.9c0-3,2.2-12,6.7-26.9c3.7-12.5,4.2-15.1,4.2-16c0-1.3-0.5-2.4-1.5-3.2c-0.9-0.8-2.2-1.1-3.8-1.1
				c-2.7,0-5.8,1-9.5,3.1c-3.6,2-7.6,5.4-11.9,10.2c-0.3,0.4-0.4,0.9-0.1,1.3c0.3,0.4,0.8,0.6,1.3,0.4c1.5-0.6,9.1-3.7,10.2-4.4
				c0.9-0.6,1.7-0.9,2.3-0.9c0,0,0,0,0.1,0c0,0,0,0.1,0,0.2c0,0.7-0.1,1.4-0.4,2.3c-6.5,20.9-9.6,33.7-9.6,39.2
				c0,1.9,0.5,3.5,1.6,4.6c1.1,1.2,2.5,1.7,4.3,1.7c1.9,0,4.2-0.8,7.1-2.4c2.8-1.6,7-5.1,12.9-10.7
				C228.8,1039.8,228.8,1039.2,228.5,1038.8z"/>
			<path id="XMLID_191_" class="st23" d="M228.3,978.2c-1.1-1.1-2.4-1.6-4-1.6c-2,0-3.7,0.8-5.2,2.4c-1.4,1.5-2.1,3.4-2.1,5.6
				c0,1.7,0.5,3.1,1.6,4.2c1.1,1.1,2.4,1.7,4,1.7c1.9,0,3.7-0.8,5.2-2.5c1.5-1.6,2.2-3.5,2.2-5.7
				C229.9,980.7,229.4,979.3,228.3,978.2z"/>
		</g>
	</g>
	<g id="XMLID_197_">
		<path id="XMLID_201_" class="st16" d="M587.8,1042H338.2c-4.8,0-8.7-3.9-8.7-8.7V929.6c0-4.8,3.9-8.7,8.7-8.7h249.6
			c4.8,0,8.7,3.9,8.7,8.7v103.8C596.4,1038.1,592.5,1042,587.8,1042z"/>
		<path id="XMLID_200_" class="st16" d="M342.2,974.9l-66.4,33c10.3-2.7,29.6-6.2,52.8-1.1c15.8,3.5,27.8,9.8,35.6,14.7
			C356.9,1006,349.5,990.4,342.2,974.9z"/>
	</g>
	<text id="XMLID_202_" transform="matrix(1 0 0 1 349.9486 974.5775)"><tspan x="0" y="0" class="st20 st21">Carousel - information </tspan><tspan x="0" y="27.6" class="st20 st21">About the application.</tspan></text>
	<g id="XMLID_114_">
		<path id="XMLID_122_" class="st3" d="M618.6,1108.4c0,5.4-4.4,9.8-9.8,9.8h-23.5c-5.4,0-9.8-4.4-9.8-9.8l0,0
			c0-5.4,4.4-9.8,9.8-9.8h23.5C614.2,1098.6,618.6,1103,618.6,1108.4L618.6,1108.4z"/>
		<g id="XMLID_115_">
			<path id="XMLID_121_" class="st24" d="M623.6,1062.3c0,13.8-12.7,25-28.3,25c-15.7,0-28.3-11.2-28.3-25
				c0-13.8,12.7-73.8,28.3-73.8C610.9,988.4,623.6,1048.5,623.6,1062.3z"/>
			<g id="XMLID_116_">
				<path id="XMLID_120_" class="st5" d="M604.8,1109.7h-19.4c-1.1,0-2-0.9-2-2c0-1.1,0.9-2,2-2h19.4c1.1,0,2,0.9,2,2
					C606.8,1108.8,605.9,1109.7,604.8,1109.7z"/>
				<path id="XMLID_119_" class="st5" d="M595.2,1109.7c-1.1,0-2-0.9-2-2v-98.3c0-1.1,0.9-2,2-2c1.1,0,2,0.9,2,2v98.3
					C597.2,1108.8,596.3,1109.7,595.2,1109.7z"/>
				<path id="XMLID_118_" class="st5" d="M595,1044.9c-0.6,0-1.1-0.2-1.5-0.6l-12.5-12.9c-0.8-0.8-0.8-2.1,0.1-2.9
					c0.8-0.8,2.1-0.8,2.9,0.1l10.9,11.3l10.1-12c0.7-0.9,2-1,2.9-0.3c0.9,0.7,1,2,0.2,2.9l-11.6,13.8
					C596.2,1044.6,595.7,1044.9,595,1044.9C595.1,1044.9,595,1044.9,595,1044.9z"/>
				<path id="XMLID_117_" class="st5" d="M595,1068.8c-0.6,0-1.1-0.2-1.5-0.6l-12.5-12.9c-0.8-0.8-0.8-2.1,0.1-2.9
					c0.8-0.8,2.1-0.8,2.9,0.1l11,11.4l11.5-12.2c0.8-0.8,2.1-0.9,2.9-0.1c0.8,0.8,0.9,2.1,0.1,2.9l-13,13.8
					C596.1,1068.5,595.6,1068.8,595,1068.8C595,1068.8,595,1068.8,595,1068.8z"/>
			</g>
		</g>
	</g>
	<g id="XMLID_204_">
		<g id="XMLID_224_">
			<polygon id="XMLID_226_" class="st25" points="348.4,669.9 348.4,732.2 340.1,732.2 340.1,668.9 			"/>
			<polygon id="XMLID_225_" class="st25" points="463.2,668.9 463.2,732.2 454.8,732.2 454.8,669.9 			"/>
		</g>
		<path id="XMLID_223_" class="st26" d="M469.5,623.9v44.2c-18.9,2.7-37.9,4.3-56.9,4.7c-26.4,0.6-52.8-1-78.9-4.7v-44.2
			c6.4,0.9,12.9,1.7,19.3,2.4h0C391.8,630.2,430.9,629.4,469.5,623.9z"/>
		<g id="XMLID_220_">
			<path id="XMLID_222_" class="st27" d="M340.1,668.9l8.3,1v9.6c-2.8-0.3-5.6-0.6-8.3-1C340.1,678.5,340.1,668.9,340.1,668.9z"/>
			<path id="XMLID_221_" class="st27" d="M463.2,668.9v9.6c-2.8,0.4-5.5,0.7-8.3,1v-9.6L463.2,668.9z"/>
		</g>
		<path id="XMLID_219_" class="st28" d="M412.6,672.7c-26.4,0.6-52.8-1-78.9-4.7v-44.2c6.4,0.9,12.9,1.7,19.3,2.4
			C353,626.2,370.3,669.9,412.6,672.7C412.6,672.7,412.6,672.7,412.6,672.7z"/>
		<path id="XMLID_218_" class="st29" d="M381.3,661.4c1.1,0,2.1-0.9,2.1-2.1v-15.8c1.5,0.1,3,0.2,4.5,0.2c0,0,0.1,0,0.1,0
			c1.1,0,2-0.9,2.1-2c0-1.1-0.8-2.1-2-2.2c-4.4-0.2-8.8-0.5-13.2-0.8c-1.1-0.1-2.1,0.8-2.2,1.9c-0.1,1.1,0.8,2.1,1.9,2.2
			c1.6,0.1,3.1,0.2,4.7,0.3v16C379.3,660.4,380.2,661.4,381.3,661.4z"/>
		<path id="XMLID_217_" class="st29" d="M439.3,659.8c1.1,0,2.1-0.9,2.1-2.1v-16.1c1.6-0.2,3.2-0.4,4.8-0.6c1.1-0.2,1.9-1.2,1.8-2.3
			c-0.2-1.1-1.2-1.9-2.3-1.8c-4.3,0.6-8.8,1.1-13.1,1.5c-1.1,0.1-2,1.1-1.9,2.3c0.1,1.1,1,1.9,2.1,1.9c0.1,0,0.1,0,0.2,0
			c1.4-0.1,2.9-0.3,4.3-0.4v15.7C437.2,658.9,438.1,659.8,439.3,659.8z"/>
		<path id="XMLID_214_" class="st29" d="M425.8,646.4v-0.6c0-1.8-0.7-3.4-2-4.7c-1.3-1.2-3-1.8-4.8-1.7c-1.7,0.1-3.5,0.2-5.2,0.2
			c-1.1,0-2,1-2,2.1v9.8v8.2c0,1.1,0.9,2.1,2.1,2.1c1.1,0,2.1-0.9,2.1-2.1v-6.2c1.5,0,2.9,0.6,4,1.6c1.1,1,1.7,2.5,1.7,4.1
			c0,1.1,0.9,2.1,2.1,2.1c1.1,0,2.1-0.9,2.1-2.1c0-2.7-1.1-5.2-3-7.1c0,0,0,0,0,0C424.6,650.8,425.8,648.7,425.8,646.4z
			 M415.9,643.7c1.1,0,2.2-0.1,3.3-0.2c0.7,0,1.3,0.2,1.7,0.6c0.4,0.4,0.7,1,0.7,1.6v0.6c0,1.4-1.2,2.7-2.6,2.8h0
			c-1,0.1-2,0.1-3,0.1V643.7z"/>
		<path id="XMLID_211_" class="st29" d="M404.6,662c1.1,0,2.1-0.9,2.1-2.1v-13.2c0-3.8-3.1-6.8-6.9-6.8c-1.9,0-3.6,0.7-4.9,2
			c-1.3,1.3-2,3-2,4.8v13.2c0,1.1,0.9,2.1,2.1,2.1c1.1,0,2.1-0.9,2.1-2.1v-6.2c1.5,0,3,0,4.5,0c0.3,0,0.6,0,0.9,0v6.2
			C402.5,661,403.4,662,404.6,662z M397.1,649.5v-2.8c0-0.7,0.3-1.4,0.8-1.9c0.5-0.5,1.2-0.8,1.9-0.8c1.5,0,2.7,1.2,2.7,2.7v2.8
			C400.7,649.5,398.9,649.5,397.1,649.5z"/>
		<path id="XMLID_210_" class="st29" d="M360,642c0.4-0.3,0.9-0.5,1.6-0.4c1.7,0.2,3.4,0.4,5.1,0.6c1.1,0.1,2.2-0.7,2.3-1.8
			c0.1-1.1-0.7-2.2-1.8-2.3c-1.7-0.2-3.4-0.4-5-0.6c-1.8-0.2-3.5,0.3-4.8,1.4c-1.3,1.1-2,2.7-2,4.5c0,3.6,2.8,6.7,6.3,7.1l0.6,0.1
			c1.4,0.2,2.7,1.5,2.7,2.9c0,0.6-0.2,1.1-0.6,1.5c-0.4,0.4-0.9,0.5-1.5,0.4c-1.7-0.2-3.3-0.4-5-0.6c-1.1-0.2-2.2,0.6-2.3,1.8
			c-0.2,1.1,0.6,2.2,1.8,2.3c1.7,0.2,3.4,0.4,5.1,0.6c0.3,0,0.5,0,0.8,0c1.5,0,2.9-0.5,4-1.5c1.3-1.1,2-2.8,2-4.6
			c0-3.5-2.8-6.6-6.3-7.1l-0.6-0.1c-1.4-0.2-2.6-1.6-2.6-3C359.4,642.8,359.6,642.4,360,642z"/>
		<path id="XMLID_207_" class="st29" d="M470.9,622.3c-0.5-0.4-1.1-0.6-1.7-0.5c-38.4,5.5-77.4,6.3-116,2.3
			c-1.1-0.1-2.2,0.7-2.3,1.9s0.7,2.2,1.9,2.3c38.1,3.9,76.7,3.2,114.7-2v40c-43.7,6.1-88,6.1-131.7,0v-40c3.2,0.4,6.4,0.8,9.6,1.2
			c1.1,0.1,2.2-0.7,2.3-1.8c0.1-1.1-0.7-2.2-1.8-2.3c-4-0.5-8-1-11.9-1.5c-0.6-0.1-1.2,0.1-1.7,0.5c-0.5,0.4-0.7,1-0.7,1.6v44.2
			c0,1,0.8,1.9,1.8,2.1c1.5,0.2,3.1,0.4,4.6,0.6v61.4c0,1.1,0.9,2.1,2.1,2.1h8.3c1.1,0,2.1-0.9,2.1-2.1v-59.9
			c17,1.8,34.1,2.7,51.2,2.7s34.1-0.9,51.2-2.7v18.5c0,1.1,0.9,2.1,2.1,2.1c1.1,0,2.1-0.9,2.1-2.1v-18.9c1.4-0.2,2.8-0.3,4.2-0.5
			v58.8h-4.2v-32.4c0-1.1-0.9-2.1-2.1-2.1c-1.1,0-2.1,0.9-2.1,2.1v34.5c0,1.1,0.9,2.1,2.1,2.1h8.3c1.1,0,2.1-0.9,2.1-2.1v-61.4
			c1.5-0.2,3.1-0.4,4.6-0.6c1-0.1,1.8-1,1.8-2.1v-44.2C471.6,623.3,471.4,622.7,470.9,622.3z M346.3,730.1h-4.2v-58.8
			c1.4,0.2,2.8,0.3,4.2,0.5L346.3,730.1L346.3,730.1z"/>
	</g>
	<g id="XMLID_240_">
		<path id="XMLID_238_" class="st30" d="M284.4,757.6c0.4-0.8,1.2-1.2,2-1c4.3,0.8,8.9,3,13.6,6.3c3.7,2.6,7.5,6.1,11.3,10.2
			c0,0,0.1,0.1,0.1,0.1h-12.9c-1.3-1.4-2.5-2.7-3.6-3.8c-5.6-5.8-10-9.5-10.1-9.5C284.2,759.3,284,758.4,284.4,757.6z"/>
		<path id="XMLID_237_" class="st31" d="M287.3,743.8c0.5-0.7,1.4-0.9,2.2-0.6c4,1.7,8.1,4.7,12,9c3.1,3.4,6.1,7.5,9,12.3
			c1.9,3.1,3.4,6.1,4.7,8.6h-11.4c-2.8-6.2-6-11.6-8.5-15.7c-4.3-6.9-7.8-11.3-7.9-11.4C286.8,745.5,286.8,744.5,287.3,743.8z"/>
		<path id="XMLID_236_" class="st32" d="M294.5,733.3c0.6-0.6,1.6-0.6,2.3-0.2c3.7,2.4,7.1,6.1,10.1,11.1c2.4,3.9,4.6,8.5,6.6,13.7
			c2.5,6.7,3.9,12.6,4.5,15.3h-10.9c-1.7-9.7-4.8-18.8-7.3-25c-3-7.6-5.6-12.6-5.7-12.6C293.7,734.8,293.9,733.9,294.5,733.3z"/>
		<path id="XMLID_235_" class="st33" d="M310.5,773.2c0-0.1,0-0.1,0-0.2c0.6-11-0.8-22-2-29.3c-1.4-8-3-13.4-3-13.5
			c-0.2-0.8,0.1-1.7,0.8-2.1c0.7-0.4,1.6-0.3,2.2,0.3c3,3.1,5.6,7.4,7.6,12.8c1.6,4.3,2.8,9.2,3.7,14.7c1.5,9.3,1.4,16.8,1.4,17.3
			L310.5,773.2z"/>
		<path id="XMLID_234_" class="st31" d="M349.8,757.6c-0.4-0.8-1.2-1.2-2-1c-4.3,0.8-8.9,3-13.6,6.3c-3.7,2.6-7.5,6.1-11.3,10.2
			c0,0-0.1,0.1-0.1,0.1h12.9c1.3-1.4,2.5-2.7,3.6-3.8c5.6-5.8,10-9.5,10.1-9.5C349.9,759.3,350.1,758.4,349.8,757.6z"/>
		<path id="XMLID_233_" class="st32" d="M346.8,743.8c-0.5-0.7-1.4-0.9-2.2-0.6c-4,1.7-8.1,4.7-12,9c-3.1,3.4-6.1,7.5-9,12.3
			c-1.9,3.1-3.4,6.1-4.7,8.6h11.4c2.8-6.2,6-11.6,8.5-15.7c4.3-6.9,7.8-11.3,7.9-11.4C347.3,745.5,347.3,744.5,346.8,743.8z"/>
		<path id="XMLID_232_" class="st33" d="M339.6,733.3c-0.6-0.6-1.6-0.6-2.3-0.2c-3.7,2.4-7.1,6.1-10.1,11.1
			c-2.4,3.9-4.6,8.5-6.6,13.7c-2.5,6.7-3.9,12.6-4.5,15.3h10.9c1.7-9.7,4.8-18.8,7.3-25c3-7.6,5.6-12.6,5.7-12.6
			C340.4,734.8,340.2,733.9,339.6,733.3z"/>
		<path id="XMLID_231_" class="st34" d="M323.9,773.2c0-0.1,0-0.1,0-0.2c-0.6-11,0.9-22,2.2-29.3c1.5-8,3.1-13.4,3.1-13.5
			c0.2-0.8-0.1-1.7-0.8-2.1c-0.7-0.4-1.7-0.3-2.3,0.3c-3.1,3.1-5.8,7.4-7.8,12.8c-1.6,4.2-2.9,9.2-3.8,14.7
			c-1.5,9.2-1.5,16.8-1.5,17.3L323.9,773.2L323.9,773.2L323.9,773.2z"/>
		<g id="XMLID_247_">
			<path id="XMLID_230_" class="st30" d="M299.6,773.2h-9.2c-0.6,0-1-0.5-1-1c0-0.6,0.5-1,1-1h9.2c0.6,0,1,0.5,1,1
				C300.6,772.7,300.2,773.2,299.6,773.2z"/>
			<path id="XMLID_229_" class="st30" d="M287,773.2h-1.7c-0.6,0-1-0.5-1-1c0-0.6,0.5-1,1-1h1.7c0.6,0,1,0.5,1,1
				C288,772.7,287.6,773.2,287,773.2z"/>
		</g>
		<g id="XMLID_244_">
			<path id="XMLID_228_" class="st31" d="M341.3,773.2h-7.4c-0.6,0-1-0.5-1-1c0-0.6,0.5-1,1-1h7.4c0.6,0,1,0.5,1,1
				C342.3,772.7,341.8,773.2,341.3,773.2z"/>
			<path id="XMLID_227_" class="st31" d="M348.8,773.2h-3.9c-0.6,0-1-0.5-1-1c0-0.6,0.5-1,1-1h3.9c0.6,0,1,0.5,1,1
				C349.8,772.7,349.3,773.2,348.8,773.2z"/>
		</g>
		<g id="XMLID_241_">
			<path id="XMLID_206_" class="st32" d="M319,769.2c-0.5,0-1-0.4-1-1c-0.1-3.4,0.1-7.1,0.5-10.9c0.1-0.6,0.6-1,1.1-0.9
				c0.6,0.1,1,0.6,0.9,1.1c-0.4,3.7-0.6,7.3-0.5,10.6C320,768.7,319.6,769.2,319,769.2C319,769.2,319,769.2,319,769.2z"/>
			<path id="XMLID_205_" class="st32" d="M320.1,754.1c-0.1,0-0.1,0-0.2,0c-0.5-0.1-0.9-0.6-0.8-1.2c0.5-3,0.9-4.9,0.9-5
				c0.1-0.5,0.7-0.9,1.2-0.7c0.5,0.1,0.9,0.7,0.7,1.2c0,0-0.4,1.9-0.9,4.8C321,753.7,320.6,754.1,320.1,754.1z"/>
		</g>
	</g>
	<g id="XMLID_549_">
		<line id="XMLID_135_" class="st35" x1="1757.6" y1="861.6" x2="1757.6" y2="854.8"/>
		<line id="XMLID_134_" class="st35" x1="1757.6" y1="987.9" x2="1757.6" y2="944.3"/>
		<line id="XMLID_133_" class="st35" x1="1757.6" y1="898.4" x2="1757.6" y2="907.6"/>
		<path id="XMLID_132_" class="st36" d="M1802.2,898.4h-86.2c-3,0-5.4-2.5-5.4-5.5v-25.7c0-3,2.4-5.5,5.4-5.5h86.2l19.5,18
			c0.2,0.2,0.2,0.5,0,0.7L1802.2,898.4z"/>
		<path id="XMLID_113_" class="st37" d="M1719,944.3h86.9c3,0,5.4-2.5,5.4-5.5v-25.7c0-3-2.4-5.5-5.4-5.5H1719l-19.5,18
			c-0.2,0.2-0.2,0.5,0,0.7L1719,944.3z"/>
		<g id="XMLID_239_">
			<path id="XMLID_260_" class="st30" d="M1694.5,992.9c0.4-0.8,1.2-1.2,2-1c4.3,0.8,8.9,3,13.6,6.3c3.7,2.6,7.5,6.1,11.3,10.2
				c0,0,0.1,0.1,0.1,0.1h-12.9c-1.3-1.4-2.5-2.7-3.6-3.8c-5.6-5.8-10-9.5-10.1-9.5C1694.3,994.6,1694.1,993.7,1694.5,992.9z"/>
			<path id="XMLID_259_" class="st31" d="M1697.4,979.1c0.5-0.7,1.4-0.9,2.2-0.6c4,1.7,8.1,4.7,12,9c3.1,3.4,6.1,7.5,9,12.3
				c1.9,3.1,3.4,6.1,4.7,8.6h-11.4c-2.8-6.2-6-11.6-8.5-15.7c-4.3-6.9-7.8-11.3-7.9-11.4C1696.9,980.8,1696.9,979.8,1697.4,979.1z"
				/>
			<path id="XMLID_258_" class="st32" d="M1704.6,968.6c0.6-0.6,1.6-0.6,2.3-0.2c3.7,2.4,7.1,6.1,10.1,11.1
				c2.4,3.9,4.6,8.5,6.6,13.7c2.5,6.7,3.9,12.6,4.5,15.3h-10.9c-1.7-9.7-4.8-18.8-7.3-25c-3-7.6-5.6-12.6-5.7-12.6
				C1703.8,970.1,1704,969.2,1704.6,968.6z"/>
			<path id="XMLID_257_" class="st33" d="M1720.6,1008.5c0-0.1,0-0.1,0-0.2c0.6-11-0.8-22-2-29.3c-1.4-8-3-13.4-3-13.5
				c-0.2-0.8,0.1-1.7,0.8-2.1c0.7-0.4,1.6-0.3,2.2,0.3c3,3.1,5.6,7.4,7.6,12.8c1.6,4.3,2.8,9.2,3.7,14.7c1.5,9.3,1.4,16.8,1.4,17.3
				L1720.6,1008.5z"/>
			<path id="XMLID_256_" class="st31" d="M1759.9,992.9c-0.4-0.8-1.2-1.2-2-1c-4.3,0.8-8.9,3-13.6,6.3c-3.7,2.6-7.5,6.1-11.3,10.2
				c0,0-0.1,0.1-0.1,0.1h12.9c1.3-1.4,2.5-2.7,3.6-3.8c5.6-5.8,10-9.5,10.1-9.5C1760,994.6,1760.2,993.7,1759.9,992.9z"/>
			<path id="XMLID_255_" class="st32" d="M1756.9,979.1c-0.5-0.7-1.4-0.9-2.2-0.6c-4,1.7-8.1,4.7-12,9c-3.1,3.4-6.1,7.5-9,12.3
				c-1.9,3.1-3.4,6.1-4.7,8.6h11.4c2.8-6.2,6-11.6,8.5-15.7c4.3-6.9,7.8-11.3,7.9-11.4C1757.4,980.8,1757.4,979.8,1756.9,979.1z"/>
			<path id="XMLID_254_" class="st33" d="M1749.7,968.6c-0.6-0.6-1.6-0.6-2.3-0.2c-3.7,2.4-7.1,6.1-10.1,11.1
				c-2.4,3.9-4.6,8.5-6.6,13.7c-2.5,6.7-3.9,12.6-4.5,15.3h10.9c1.7-9.7,4.8-18.8,7.3-25c3-7.6,5.6-12.6,5.7-12.6
				C1750.5,970.1,1750.3,969.2,1749.7,968.6z"/>
			<path id="XMLID_253_" class="st34" d="M1734,1008.5c0-0.1,0-0.1,0-0.2c-0.6-11,0.9-22,2.2-29.3c1.5-8,3.1-13.4,3.1-13.5
				c0.2-0.8-0.1-1.7-0.8-2.1c-0.7-0.4-1.7-0.3-2.3,0.3c-3.1,3.1-5.8,7.4-7.8,12.8c-1.6,4.2-2.9,9.2-3.8,14.7
				c-1.5,9.2-1.5,16.8-1.5,17.3L1734,1008.5L1734,1008.5L1734,1008.5z"/>
			<g id="XMLID_250_">
				<path id="XMLID_252_" class="st30" d="M1709.7,1008.5h-9.2c-0.6,0-1-0.5-1-1c0-0.6,0.5-1,1-1h9.2c0.6,0,1,0.5,1,1
					C1710.7,1008.1,1710.3,1008.5,1709.7,1008.5z"/>
				<path id="XMLID_251_" class="st30" d="M1697.1,1008.5h-1.7c-0.6,0-1-0.5-1-1c0-0.6,0.5-1,1-1h1.7c0.6,0,1,0.5,1,1
					C1698.1,1008.1,1697.7,1008.5,1697.1,1008.5z"/>
			</g>
			<g id="XMLID_246_">
				<path id="XMLID_249_" class="st31" d="M1751.4,1008.5h-7.4c-0.6,0-1-0.5-1-1c0-0.6,0.5-1,1-1h7.4c0.6,0,1,0.5,1,1
					C1752.4,1008.1,1751.9,1008.5,1751.4,1008.5z"/>
				<path id="XMLID_248_" class="st31" d="M1758.9,1008.5h-3.9c-0.6,0-1-0.5-1-1c0-0.6,0.5-1,1-1h3.9c0.6,0,1,0.5,1,1
					C1759.9,1008.1,1759.5,1008.5,1758.9,1008.5z"/>
			</g>
			<g id="XMLID_242_">
				<path id="XMLID_245_" class="st32" d="M1729.1,1004.5c-0.5,0-1-0.4-1-1c-0.1-3.4,0.1-7.1,0.5-10.9c0.1-0.6,0.6-1,1.1-0.9
					c0.6,0.1,1,0.6,0.9,1.1c-0.4,3.7-0.6,7.3-0.5,10.6C1730.1,1004,1729.7,1004.5,1729.1,1004.5
					C1729.1,1004.5,1729.1,1004.5,1729.1,1004.5z"/>
				<path id="XMLID_243_" class="st32" d="M1730.2,989.4c-0.1,0-0.1,0-0.2,0c-0.5-0.1-0.9-0.6-0.8-1.2c0.5-3,0.9-4.9,0.9-5
					c0.1-0.5,0.7-0.9,1.2-0.7c0.5,0.1,0.9,0.7,0.7,1.2c0,0-0.4,1.9-0.9,4.8C1731.1,989,1730.7,989.4,1730.2,989.4z"/>
			</g>
		</g>
		<g id="XMLID_261_">
			<path id="XMLID_278_" class="st30" d="M1746,989.6c0.4-0.8,1.2-1.2,2-1c4.3,0.8,8.9,3,13.6,6.3c3.7,2.6,7.5,6.1,11.3,10.2
				c0,0,0.1,0.1,0.1,0.1h-12.9c-1.3-1.4-2.5-2.7-3.6-3.8c-5.6-5.8-10-9.5-10.1-9.5C1745.9,991.2,1745.7,990.3,1746,989.6z"/>
			<path id="XMLID_277_" class="st31" d="M1749,975.8c0.5-0.7,1.4-0.9,2.2-0.6c4,1.7,8.1,4.7,12,9c3.1,3.4,6.1,7.5,9,12.3
				c1.9,3.1,3.4,6.1,4.7,8.6h-11.4c-2.8-6.2-6-11.6-8.5-15.7c-4.3-6.9-7.8-11.3-7.9-11.4C1748.5,977.4,1748.5,976.4,1749,975.8z"/>
			<path id="XMLID_276_" class="st32" d="M1756.2,965.3c0.6-0.6,1.6-0.6,2.3-0.2c3.7,2.4,7.1,6.1,10.1,11.1
				c2.4,3.9,4.6,8.5,6.6,13.7c2.5,6.7,3.9,12.6,4.5,15.3h-10.9c-1.7-9.7-4.8-18.8-7.3-25c-3-7.6-5.6-12.6-5.7-12.6
				C1755.4,966.8,1755.6,965.8,1756.2,965.3z"/>
			<path id="XMLID_275_" class="st33" d="M1772.2,1005.1c0-0.1,0-0.1,0-0.2c0.6-11-0.8-22-2-29.3c-1.4-8-3-13.4-3-13.5
				c-0.2-0.8,0.1-1.7,0.8-2.1c0.7-0.4,1.6-0.3,2.2,0.3c3,3.1,5.6,7.4,7.6,12.8c1.6,4.3,2.8,9.2,3.7,14.7c1.5,9.3,1.4,16.8,1.4,17.3
				L1772.2,1005.1z"/>
			<path id="XMLID_274_" class="st31" d="M1811.5,989.6c-0.4-0.8-1.2-1.2-2-1c-4.3,0.8-8.9,3-13.6,6.3c-3.7,2.6-7.5,6.1-11.3,10.2
				c0,0-0.1,0.1-0.1,0.1h12.9c1.3-1.4,2.5-2.7,3.6-3.8c5.6-5.8,10-9.5,10.1-9.5C1811.6,991.2,1811.8,990.3,1811.5,989.6z"/>
			<path id="XMLID_273_" class="st32" d="M1808.5,975.8c-0.5-0.7-1.4-0.9-2.2-0.6c-4,1.7-8.1,4.7-12,9c-3.1,3.4-6.1,7.5-9,12.3
				c-1.9,3.1-3.4,6.1-4.7,8.6h11.4c2.8-6.2,6-11.6,8.5-15.7c4.3-6.9,7.8-11.3,7.9-11.4C1809,977.4,1809,976.4,1808.5,975.8z"/>
			<path id="XMLID_272_" class="st33" d="M1801.3,965.3c-0.6-0.6-1.6-0.6-2.3-0.2c-3.7,2.4-7.1,6.1-10.1,11.1
				c-2.4,3.9-4.6,8.5-6.6,13.7c-2.5,6.7-3.9,12.6-4.5,15.3h10.9c1.7-9.7,4.8-18.8,7.3-25c3-7.6,5.6-12.6,5.7-12.6
				C1802.1,966.8,1801.9,965.8,1801.3,965.3z"/>
			<path id="XMLID_271_" class="st34" d="M1785.5,1005.1c0-0.1,0-0.1,0-0.2c-0.6-11,0.9-22,2.2-29.3c1.5-8,3.1-13.4,3.1-13.5
				c0.2-0.8-0.1-1.7-0.8-2.1c-0.7-0.4-1.7-0.3-2.3,0.3c-3.1,3.1-5.8,7.4-7.8,12.8c-1.6,4.2-2.9,9.2-3.8,14.7
				c-1.5,9.2-1.5,16.8-1.5,17.3L1785.5,1005.1L1785.5,1005.1L1785.5,1005.1z"/>
			<g id="XMLID_268_">
				<path id="XMLID_270_" class="st30" d="M1761.3,1005.1h-9.2c-0.6,0-1-0.5-1-1c0-0.6,0.5-1,1-1h9.2c0.6,0,1,0.5,1,1
					C1762.3,1004.7,1761.9,1005.1,1761.3,1005.1z"/>
				<path id="XMLID_269_" class="st30" d="M1748.7,1005.1h-1.7c-0.6,0-1-0.5-1-1c0-0.6,0.5-1,1-1h1.7c0.6,0,1,0.5,1,1
					C1749.7,1004.7,1749.2,1005.1,1748.7,1005.1z"/>
			</g>
			<g id="XMLID_265_">
				<path id="XMLID_267_" class="st31" d="M1803,1005.1h-7.4c-0.6,0-1-0.5-1-1c0-0.6,0.5-1,1-1h7.4c0.6,0,1,0.5,1,1
					C1804,1004.7,1803.5,1005.1,1803,1005.1z"/>
				<path id="XMLID_266_" class="st31" d="M1810.5,1005.1h-3.9c-0.6,0-1-0.5-1-1c0-0.6,0.5-1,1-1h3.9c0.6,0,1,0.5,1,1
					C1811.5,1004.7,1811,1005.1,1810.5,1005.1z"/>
			</g>
			<g id="XMLID_262_">
				<path id="XMLID_264_" class="st32" d="M1780.7,1001.1c-0.5,0-1-0.4-1-1c-0.1-3.4,0.1-7.1,0.5-10.9c0.1-0.6,0.6-1,1.1-0.9
					c0.6,0.1,1,0.6,0.9,1.1c-0.4,3.7-0.6,7.3-0.5,10.6C1781.7,1000.7,1781.3,1001.1,1780.7,1001.1
					C1780.7,1001.1,1780.7,1001.1,1780.7,1001.1z"/>
				<path id="XMLID_263_" class="st32" d="M1781.8,986c-0.1,0-0.1,0-0.2,0c-0.5-0.1-0.9-0.6-0.8-1.2c0.5-3,0.9-4.9,0.9-5
					c0.1-0.5,0.7-0.9,1.2-0.7c0.5,0.1,0.9,0.7,0.7,1.2c0,0-0.4,1.9-0.9,4.8C1782.7,985.6,1782.3,986,1781.8,986z"/>
			</g>
		</g>
		<g id="XMLID_279_">
			<path id="XMLID_296_" class="st30" d="M1727.4,1011.6c0.4-0.8,1.2-1.2,2-1c4.3,0.8,8.9,3,13.6,6.3c3.7,2.6,7.5,6.1,11.3,10.2
				c0,0,0.1,0.1,0.1,0.1h-12.9c-1.3-1.4-2.5-2.7-3.6-3.8c-5.6-5.8-10-9.5-10.1-9.5C1727.2,1013.3,1727,1012.4,1727.4,1011.6z"/>
			<path id="XMLID_295_" class="st31" d="M1730.3,997.8c0.5-0.7,1.4-0.9,2.2-0.6c4,1.7,8.1,4.7,12,9c3.1,3.4,6.1,7.5,9,12.3
				c1.9,3.1,3.4,6.1,4.7,8.6h-11.4c-2.8-6.2-6-11.6-8.5-15.7c-4.3-6.9-7.8-11.3-7.9-11.4C1729.8,999.4,1729.8,998.5,1730.3,997.8z"
				/>
			<path id="XMLID_294_" class="st32" d="M1737.5,987.3c0.6-0.6,1.6-0.6,2.3-0.2c3.7,2.4,7.1,6.1,10.1,11.1
				c2.4,3.9,4.6,8.5,6.6,13.7c2.5,6.7,3.9,12.6,4.5,15.3h-10.9c-1.7-9.7-4.8-18.8-7.3-25c-3-7.6-5.6-12.6-5.7-12.6
				C1736.7,988.8,1736.9,987.9,1737.5,987.3z"/>
			<path id="XMLID_293_" class="st33" d="M1753.5,1027.2c0-0.1,0-0.1,0-0.2c0.6-11-0.8-22-2-29.3c-1.4-8-3-13.4-3-13.5
				c-0.2-0.8,0.1-1.7,0.8-2.1c0.7-0.4,1.6-0.3,2.2,0.3c3,3.1,5.6,7.4,7.6,12.8c1.6,4.3,2.8,9.2,3.7,14.7c1.5,9.3,1.4,16.8,1.4,17.3
				L1753.5,1027.2z"/>
			<path id="XMLID_292_" class="st31" d="M1792.8,1011.6c-0.4-0.8-1.2-1.2-2-1c-4.3,0.8-8.9,3-13.6,6.3c-3.7,2.6-7.5,6.1-11.3,10.2
				c0,0-0.1,0.1-0.1,0.1h12.9c1.3-1.4,2.5-2.7,3.6-3.8c5.6-5.8,10-9.5,10.1-9.5C1792.9,1013.3,1793.1,1012.4,1792.8,1011.6z"/>
			<path id="XMLID_291_" class="st32" d="M1789.8,997.8c-0.5-0.7-1.4-0.9-2.2-0.6c-4,1.7-8.1,4.7-12,9c-3.1,3.4-6.1,7.5-9,12.3
				c-1.9,3.1-3.4,6.1-4.7,8.6h11.4c2.8-6.2,6-11.6,8.5-15.7c4.3-6.9,7.8-11.3,7.9-11.4C1790.3,999.4,1790.3,998.5,1789.8,997.8z"/>
			<path id="XMLID_290_" class="st33" d="M1782.6,987.3c-0.6-0.6-1.6-0.6-2.3-0.2c-3.7,2.4-7.1,6.1-10.1,11.1
				c-2.4,3.9-4.6,8.5-6.6,13.7c-2.5,6.7-3.9,12.6-4.5,15.3h10.9c1.7-9.7,4.8-18.8,7.3-25c3-7.6,5.6-12.6,5.7-12.6
				C1783.4,988.8,1783.2,987.9,1782.6,987.3z"/>
			<path id="XMLID_289_" class="st34" d="M1766.9,1027.2c0-0.1,0-0.1,0-0.2c-0.6-11,0.9-22,2.2-29.3c1.5-8,3.1-13.4,3.1-13.5
				c0.2-0.8-0.1-1.7-0.8-2.1c-0.7-0.4-1.7-0.3-2.3,0.3c-3.1,3.1-5.8,7.4-7.8,12.8c-1.6,4.2-2.9,9.2-3.8,14.7
				c-1.5,9.2-1.5,16.8-1.5,17.3L1766.9,1027.2L1766.9,1027.2L1766.9,1027.2z"/>
			<g id="XMLID_286_">
				<path id="XMLID_288_" class="st30" d="M1742.6,1027.2h-9.2c-0.6,0-1-0.5-1-1c0-0.6,0.5-1,1-1h9.2c0.6,0,1,0.5,1,1
					C1743.6,1026.7,1743.2,1027.2,1742.6,1027.2z"/>
				<path id="XMLID_287_" class="st30" d="M1730,1027.2h-1.7c-0.6,0-1-0.5-1-1c0-0.6,0.5-1,1-1h1.7c0.6,0,1,0.5,1,1
					C1731,1026.7,1730.5,1027.2,1730,1027.2z"/>
			</g>
			<g id="XMLID_283_">
				<path id="XMLID_285_" class="st31" d="M1784.3,1027.2h-7.4c-0.6,0-1-0.5-1-1c0-0.6,0.5-1,1-1h7.4c0.6,0,1,0.5,1,1
					C1785.3,1026.7,1784.8,1027.2,1784.3,1027.2z"/>
				<path id="XMLID_284_" class="st31" d="M1791.8,1027.2h-3.9c-0.6,0-1-0.5-1-1c0-0.6,0.5-1,1-1h3.9c0.6,0,1,0.5,1,1
					C1792.8,1026.7,1792.3,1027.2,1791.8,1027.2z"/>
			</g>
			<g id="XMLID_280_">
				<path id="XMLID_282_" class="st32" d="M1762,1023.2c-0.5,0-1-0.4-1-1c-0.1-3.4,0.1-7.1,0.5-10.9c0.1-0.6,0.6-0.9,1.1-0.9
					c0.6,0.1,1,0.6,0.9,1.1c-0.4,3.7-0.6,7.3-0.5,10.6C1763,1022.7,1762.6,1023.2,1762,1023.2C1762,1023.2,1762,1023.2,1762,1023.2z
					"/>
				<path id="XMLID_281_" class="st32" d="M1763.1,1008c-0.1,0-0.1,0-0.2,0c-0.5-0.1-0.9-0.6-0.8-1.2c0.5-3,0.9-4.9,0.9-5
					c0.1-0.5,0.7-0.9,1.2-0.7c0.5,0.1,0.9,0.7,0.7,1.2c0,0-0.4,1.9-0.9,4.8C1764,1007.7,1763.6,1008,1763.1,1008z"/>
			</g>
		</g>
	</g>
	<path id="XMLID_302_" class="st38" d="M637.1,361.6c-2.1-2.3-5.7-2.5-8-0.4l2.8-2.6c2.3-2.1,2.5-5.7,0.4-8c-2.1-2.3-5.7-2.5-8-0.4
		l2.8-2.6c2.3-2.1,2.5-5.7,0.4-8c-2.1-2.3-5.7-2.5-8-0.4l13.9-12.8c2.3-2.1,2.5-5.7,0.4-8c-2.1-2.3-5.7-2.5-8-0.4l-34.8,31.9
		l-4-14.1c-0.4-1.4-1.1-2.7-2.1-3.8c-2-2.2-5.4-2.3-7.5-0.3l0,0c-1,1-1.7,2.3-1.7,3.7l-1.5,34.5c-0.3,7.2,2.3,14.3,7.2,19.7l0,0
		c8.5,9.2,22.8,9.9,32,1.4l23.7-21.7C639,367.5,639.2,363.9,637.1,361.6z"/>
	<g id="XMLID_307_">
		<path id="XMLID_301_" class="st39" d="M623.7,338l-15.6,14.3c-0.8,0.7-2,0.7-2.7-0.1l13.9-12.8C620.5,338.4,622.1,337.8,623.7,338
			z"/>
		<path id="XMLID_300_" class="st39" d="M628.6,348.9l-12.8,11.8c-0.8,0.7-2,0.7-2.7-0.1l11.1-10.2
			C625.4,349.3,627,348.8,628.6,348.9z"/>
		<path id="XMLID_299_" class="st39" d="M633.4,359.8l-10.1,9.2c-0.8,0.7-2,0.7-2.7-0.1l8.4-7.7
			C630.2,360.2,631.8,359.7,633.4,359.8z"/>
	</g>
	<path id="XMLID_304_" class="st29" d="M579.6,391.2c-5.3-5.7-8-13.3-7.7-21l1.5-34.5c0.2-4,3.6-7.1,7.5-6.9c1.9,0.1,3.7,0.9,5,2.3
		c1.2,1.3,2.1,2.9,2.5,4.5l3.2,11.2l32.6-29.8c3.1-2.8,7.9-2.6,10.7,0.5c2.8,3.1,2.6,7.9-0.5,10.7l-9.1,8.3c4,1.3,6.2,5.5,4.9,9.5
		c-0.1,0.4-0.3,0.9-0.5,1.3c4.1,1,6.5,5.1,5.6,9.1c-0.2,0.6-0.4,1.2-0.7,1.8c4.1,1,6.5,5.1,5.5,9.1c-0.4,1.5-1.1,2.8-2.2,3.8
		l-23.7,21.7C604.3,401.9,588.8,401.2,579.6,391.2z M583.2,333.6c-1.3-1.4-3.5-1.5-4.9-0.2c-0.7,0.6-1.1,1.5-1.1,2.4l-1.5,34.5
		c-0.3,6.8,2.1,13.4,6.7,18.3c7.8,8.4,20.9,9,29.4,1.3l23.7-21.7c1.5-1.4,1.6-3.8,0.2-5.3c-1.4-1.5-3.8-1.6-5.3-0.2l-7,6.4
		c-0.8,0.7-2,0.7-2.7-0.1c-0.7-0.8-0.7-2,0.1-2.7l9.8-8.9c1.5-1.4,1.6-3.8,0.2-5.3s-3.8-1.6-5.3-0.2l-9.8,8.9
		c-0.8,0.7-2,0.7-2.7-0.1c-0.7-0.8-0.7-2,0.1-2.7l12.5-11.5c1.5-1.4,1.6-3.8,0.2-5.3s-3.8-1.6-5.3-0.2l-12.5,11.5
		c-0.8,0.7-2,0.7-2.7-0.1c-0.7-0.8-0.7-2,0.1-2.7l26.5-24.2c1.5-1.4,1.6-3.8,0.2-5.3s-3.8-1.6-5.3-0.2L592,351.6
		c-0.8,0.7-2,0.7-2.7-0.1c-0.2-0.2-0.3-0.5-0.4-0.8l-4-14.1C584.6,335.5,584,334.5,583.2,333.6z"/>
	<g id="XMLID_327_">
		<g id="XMLID_315_">
			<g id="XMLID_316_">
				<path id="XMLID_317_" class="st29" d="M721.1,219.9c-11.8-7-27-3.1-34,8.7c-7,11.8-3.1,27,8.7,34c11.8,7,27,3.1,34-8.7
					C736.8,242.1,732.9,226.8,721.1,219.9z M713.3,245.1l-3.5-2.1c-3.3,5.6-7.3,12.4-7.3,12.4l-5.1-3.1c0,0,4-6.8,7.3-12.4l-2.4-1.5
					l2.6-4.4l2.4,1.5l1.7-2.8c1.2-2,4-4.6,8.3-2.1l3.8,2.3l-2.5,4.2c0,0-2.3-1.4-2.8-1.6s-1.2-0.4-1.8,0.5l-1.5,2.6l3.9,2.3
					L713.3,245.1z"/>
			</g>
		</g>
		<g id="XMLID_305_">
			<g id="XMLID_306_">
				<g id="XMLID_308_">
					<path id="XMLID_314_" class="st29" d="M651.2,235.7c2.4-1.3,3.4-4.3,2.2-6.7c-0.5-1-1.3-1.7-2.2-2.1c-1.4-0.7-3.1-0.8-4.5,0
						c-1.5,0.8-2.4,2.2-2.6,3.7c-0.2,1,0,2,0.5,3C645.7,236,648.7,237,651.2,235.7z"/>
					<polygon id="XMLID_313_" class="st29" points="655.8,220.9 653.9,217.2 653.6,216.7 653,217 649.3,218.9 651.5,223.1 					"/>
					<path id="XMLID_310_" class="st29" d="M637.6,209.2c-12.2,6.3-17,21.3-10.7,33.4c6.3,12.2,21.3,17,33.4,10.7
						c12.2-6.3,17-21.3,10.7-33.4C664.7,207.8,649.7,203,637.6,209.2z M660.1,222.3l5.3,10.3c1.4,2.7,0.3,6-2.4,7.3l-15.4,7.9
						c-2.7,1.4-6,0.3-7.3-2.4l-5.3-10.3l-2.6-5.1c-1.4-2.7-0.3-6,2.4-7.3l15.4-7.9c2.7-1.4,6-0.3,7.3,2.4L660.1,222.3z"/>
					<path id="XMLID_309_" class="st29" d="M655.8,227.8c1.9,3.8,0.4,8.5-3.3,10.4c-3.8,1.9-8.5,0.4-10.4-3.3
						c-0.5-0.9-0.7-1.9-0.8-2.8l-3.7,1.9l5.3,10.3c0.7,1.3,2.3,1.9,3.6,1.2l15.4-7.9c1.3-0.7,1.9-2.3,1.2-3.6l-5.3-10.3l-3.8,1.9
						C654.7,226.1,655.3,226.9,655.8,227.8z"/>
				</g>
			</g>
		</g>
		<g id="XMLID_320_">
			<g id="XMLID_321_">
				<path id="XMLID_322_" class="st29" d="M741.9,284.6c-7.4-11.5-22.8-14.9-34.3-7.4c-11.5,7.4-14.9,22.8-7.4,34.3
					c7.4,11.5,22.8,14.9,34.3,7.4C746,311.5,749.4,296.1,741.9,284.6z M731.8,304.3c-0.2,0.1-0.4,0.3-0.6,0.4
					c-6.4,4.1-16.8,4-22.5-4.9c-1.7-2.7-2.6-5.8-2.6-8.8c0.2,0.4,0.4,0.8,0.7,1.2c1.4,2.3,3.6,3.8,5.9,4.6c-1.3-2.1-1.1-4.8,0.4-6.6
					c0.1,0.3,0.3,0.7,0.5,1c0.3,0.4,0.6,0.8,1,1.2c-1-2.5-0.1-5.4,2.2-6.9c0,0,0,0,0.1,0c0.1,0.9,0.3,1.8,0.8,2.6
					c0-1.8,1-3.6,2.6-4.7c0.9-0.6,1.9-0.9,2.8-0.9c-1.4,4.2-1,9,1.4,13.1c0.3-0.3,0.6-0.6,1-0.8c2.7-1.7,6.2-0.9,7.9,1.7
					c0.9,1.4,1.1,3,0.7,4.5c0.9,1,2,1.7,3.1,2.3c-1.4,0.4-2.8,0.2-4-0.4c0.7,0.9,1.6,1.7,2.5,2.3
					C734.5,305.1,733.1,304.8,731.8,304.3z"/>
			</g>
		</g>
	</g>
	<path id="XMLID_303_" class="st29" d="M631.3,305v-28.6c-1,0.6-2,1.2-3,1.8c1.9-6.1,3.9-12.3,5.8-18.4c1.4,6.3,2.9,12.6,4.3,18.8
		c-1.2-0.7-2.5-1.5-3.7-2.2L631.3,305z"/>
	<path id="XMLID_325_" class="st29" d="M643.6,307.5l20.4-20.1c-1.1-0.3-2.2-0.6-3.4-0.9c5.7-2.9,11.5-5.8,17.2-8.8
		c-3.5,5.4-6.9,10.9-10.4,16.3c-0.3-1.4-0.7-2.8-1-4.2L643.6,307.5z"/>
	<path id="XMLID_326_" class="st29" d="M643.6,320.5l28.3-4c-0.7-0.9-1.4-1.8-2.2-2.7c6.3,1.1,12.7,2.1,19,3.2c-6,2.3-12,4.6-18,6.9
		c0.6-1.3,1.1-2.6,1.7-4L643.6,320.5z"/>
	<g id="XMLID_1_">
		<path id="XMLID_330_" class="st16" d="M980.4,190.6H730.8c-4.8,0-8.7-3.9-8.7-8.7V78.2c0-4.8,3.9-8.7,8.7-8.7h249.6
			c4.8,0,8.7,3.9,8.7,8.7v103.8C989,186.7,985.1,190.6,980.4,190.6z"/>
		<path id="XMLID_329_" class="st16" d="M725.5,161.4L713,210.4c2.3-3.8,6.3-9.3,13-13.6c1-0.6,4.7-2.9,11.4-4.9
			c5.5-1.6,14.8-3.6,27-2.5C751.4,180.1,738.4,170.7,725.5,161.4z"/>
		<text id="XMLID_331_" transform="matrix(1 0 0 1 754.0084 99.777)"><tspan x="0" y="0" class="st20 st21">User selects multiple</tspan><tspan x="0" y="27.6" class="st20 st21">applications and then </tspan><tspan x="0" y="55.2" class="st20 st21">authenticate.</tspan></text>
	</g>
	<g id="XMLID_332_">
		<path id="XMLID_349_" class="st30" d="M721.3,757.7c0.4-0.8,1.2-1.2,2-1c4.3,0.8,8.9,3,13.6,6.3c3.7,2.6,7.5,6.1,11.3,10.2
			c0,0,0.1,0.1,0.1,0.1h-12.9c-1.3-1.4-2.5-2.7-3.6-3.8c-5.6-5.8-10-9.5-10.1-9.5C721.1,759.4,720.9,758.5,721.3,757.7z"/>
		<path id="XMLID_348_" class="st31" d="M724.2,743.9c0.5-0.7,1.4-0.9,2.2-0.6c4,1.7,8.1,4.7,12,9c3.1,3.4,6.1,7.5,9,12.3
			c1.9,3.1,3.4,6.1,4.7,8.6h-11.4c-2.8-6.2-6-11.6-8.5-15.7c-4.3-6.9-7.8-11.3-7.9-11.4C723.7,745.5,723.7,744.6,724.2,743.9z"/>
		<path id="XMLID_347_" class="st32" d="M731.4,733.4c0.6-0.6,1.6-0.6,2.3-0.2c3.7,2.4,7.1,6.1,10.1,11.1c2.4,3.9,4.6,8.5,6.6,13.7
			c2.5,6.7,3.9,12.6,4.5,15.3H744c-1.7-9.7-4.8-18.8-7.3-25c-3-7.6-5.6-12.6-5.7-12.6C730.7,734.9,730.8,734,731.4,733.4z"/>
		<path id="XMLID_346_" class="st33" d="M747.4,773.3c0-0.1,0-0.1,0-0.2c0.6-11-0.8-22-2-29.3c-1.4-8-3-13.4-3-13.5
			c-0.2-0.8,0.1-1.7,0.8-2.1c0.7-0.4,1.6-0.3,2.2,0.3c3,3.1,5.6,7.4,7.6,12.8c1.6,4.3,2.8,9.2,3.7,14.7c1.5,9.3,1.4,16.8,1.4,17.3
			L747.4,773.3z"/>
		<path id="XMLID_345_" class="st31" d="M786.7,757.7c-0.4-0.8-1.2-1.2-2-1c-4.3,0.8-8.9,3-13.6,6.3c-3.7,2.6-7.5,6.1-11.3,10.2
			c0,0-0.1,0.1-0.1,0.1h12.9c1.3-1.4,2.5-2.7,3.6-3.8c5.6-5.8,10-9.5,10.1-9.5C786.8,759.4,787,758.5,786.7,757.7z"/>
		<path id="XMLID_344_" class="st32" d="M783.7,743.9c-0.5-0.7-1.4-0.9-2.2-0.6c-4,1.7-8.1,4.7-12,9c-3.1,3.4-6.1,7.5-9,12.3
			c-1.9,3.1-3.4,6.1-4.7,8.6h11.4c2.8-6.2,6-11.6,8.5-15.7c4.3-6.9,7.8-11.3,7.9-11.4C784.2,745.5,784.2,744.6,783.7,743.9z"/>
		<path id="XMLID_343_" class="st33" d="M776.5,733.4c-0.6-0.6-1.6-0.6-2.3-0.2c-3.7,2.4-7.1,6.1-10.1,11.1
			c-2.4,3.9-4.6,8.5-6.6,13.7c-2.5,6.7-3.9,12.6-4.5,15.3H764c1.7-9.7,4.8-18.8,7.3-25c3-7.6,5.6-12.6,5.7-12.6
			C777.3,734.9,777.1,734,776.5,733.4z"/>
		<path id="XMLID_342_" class="st34" d="M760.8,773.3c0-0.1,0-0.1,0-0.2c-0.6-11,0.9-22,2.2-29.3c1.5-8,3.1-13.4,3.1-13.5
			c0.2-0.8-0.1-1.7-0.8-2.1c-0.7-0.4-1.7-0.3-2.3,0.3c-3.1,3.1-5.8,7.4-7.8,12.8c-1.6,4.2-2.9,9.2-3.8,14.7
			c-1.5,9.2-1.5,16.8-1.5,17.3L760.8,773.3L760.8,773.3L760.8,773.3z"/>
		<g id="XMLID_339_">
			<path id="XMLID_341_" class="st30" d="M736.5,773.3h-9.2c-0.6,0-1-0.5-1-1c0-0.6,0.5-1,1-1h9.2c0.6,0,1,0.5,1,1
				C737.5,772.8,737.1,773.3,736.5,773.3z"/>
			<path id="XMLID_340_" class="st30" d="M723.9,773.3h-1.7c-0.6,0-1-0.5-1-1c0-0.6,0.5-1,1-1h1.7c0.6,0,1,0.5,1,1
				C724.9,772.8,724.5,773.3,723.9,773.3z"/>
		</g>
		<g id="XMLID_336_">
			<path id="XMLID_338_" class="st31" d="M778.2,773.3h-7.4c-0.6,0-1-0.5-1-1c0-0.6,0.5-1,1-1h7.4c0.6,0,1,0.5,1,1
				C779.2,772.8,778.7,773.3,778.2,773.3z"/>
			<path id="XMLID_337_" class="st31" d="M785.7,773.3h-3.9c-0.6,0-1-0.5-1-1c0-0.6,0.5-1,1-1h3.9c0.6,0,1,0.5,1,1
				C786.7,772.8,786.3,773.3,785.7,773.3z"/>
		</g>
		<g id="XMLID_333_">
			<path id="XMLID_335_" class="st32" d="M755.9,769.3c-0.5,0-1-0.4-1-1c-0.1-3.4,0.1-7.1,0.5-10.9c0.1-0.6,0.6-0.9,1.1-0.9
				c0.6,0.1,1,0.6,0.9,1.1c-0.4,3.7-0.6,7.3-0.5,10.6C756.9,768.8,756.5,769.3,755.9,769.3C755.9,769.3,755.9,769.3,755.9,769.3z"/>
			<path id="XMLID_334_" class="st32" d="M757,754.1c-0.1,0-0.1,0-0.2,0c-0.5-0.1-0.9-0.6-0.8-1.2c0.5-3,0.9-4.9,0.9-5
				c0.1-0.5,0.7-0.9,1.2-0.7c0.5,0.1,0.9,0.7,0.7,1.2c0,0-0.4,1.9-0.9,4.8C757.9,753.8,757.5,754.1,757,754.1z"/>
		</g>
	</g>
	<g id="XMLID_360_">
		<rect id="XMLID_358_" x="723.8" y="661" class="st40" width="12.7" height="22.2"/>
		<rect id="XMLID_357_" x="718.9" y="649.7" class="st41" width="22.4" height="12"/>
		<path id="XMLID_356_" class="st42" d="M650.5,704.9V756h90.6v-51.1c-17.8-17.8-27.7-27.7-45.3-45.3l0,0
			C678.3,677.4,668.3,687.3,650.5,704.9z"/>
		<path id="XMLID_355_" class="st43" d="M741.4,704.9c-17.8-17.8-27.7-27.7-45.3-45.3c-9,8.8-15.9,15.7-22.9,22.6
			c-6.9,6.9-13.9,13.9-22.6,22.6v10.4c17.8-17.8,27.7-27.7,45.3-45.3c17.8,17.8,27.7,27.7,45.3,45.3v1.4l0,0v-11.8L741.4,704.9
			L741.4,704.9z"/>
		<path id="XMLID_354_" class="st44" d="M687.7,756h-27.3v-26.8c0-7.6,6.2-13.6,13.6-13.6l0,0c7.6,0,13.6,6.2,13.6,13.6V756z"/>
		<rect id="XMLID_353_" x="695.8" y="715.5" class="st45" width="35.6" height="31.2"/>
		<g id="XMLID_362_">
			<rect id="XMLID_352_" x="699.5" y="719.2" class="st46" width="12.2" height="23.8"/>
			<rect id="XMLID_351_" x="715.5" y="719.2" class="st46" width="12.2" height="23.8"/>
		</g>
		<path id="XMLID_350_" class="st41" d="M749.7,695.4l-48.3-48.3c-2.8-2.8-7.6-2.8-10.4,0l-48.1,48.3c-2.8,2.8-2.8,7.6,0,10.4
			c2.8,2.8,7.6,2.8,10.4,0l43-43l43,43c2.8,2.8,7.6,2.8,10.4,0C752.5,702.8,752.5,698.2,749.7,695.4z"/>
	</g>
	<path id="XMLID_359_" class="st16" d="M792.2,834.3H648c-6.6,0-12-5.4-12-12v-28.9c0-6.6,5.4-12,12-12h144.2c6.6,0,12,5.4,12,12
		v28.9C804.2,828.9,798.8,834.3,792.2,834.3z"/>
	<text id="XMLID_361_" transform="matrix(1 0 0 1 664.8459 809.4161)" class="st20 st21">Home-Page</text>
	<path id="XMLID_381_" class="st47" d="M633.5,569.2c0.2,0.4,0.1,0.9-0.3,1.1c-0.4,0.2-0.9,0.1-1.1-0.3c0,0,0,0,0,0l-2.3-4
		c-0.2-0.4-0.1-0.9,0.3-1.1c0.4-0.2,0.9-0.1,1.1,0.3c0,0,0,0,0,0L633.5,569.2z M627,575.1c0.4,0.2,0.5,0.7,0.3,1.1
		c-0.2,0.4-0.7,0.5-1.1,0.3l-4-2.3c-0.4-0.2-0.5-0.7-0.3-1.1c0.2-0.4,0.7-0.5,1.1-0.3L627,575.1z M624.4,583.5
		c0.4,0,0.8,0.4,0.8,0.8c0,0.4-0.4,0.8-0.8,0.8h-4.6c-0.4,0-0.8-0.4-0.8-0.8c0-0.4,0.4-0.8,0.8-0.8l0,0H624.4z M626.2,592
		c0.4-0.2,0.9-0.1,1.1,0.3c0.2,0.4,0.1,0.9-0.3,1.1c0,0,0,0,0,0l-4,2.3c-0.4,0.2-0.9,0.1-1.1-0.3c-0.2-0.4-0.1-0.9,0.3-1.1
		c0,0,0,0,0,0L626.2,592z M632.1,598.5c0.2-0.4,0.7-0.5,1.1-0.3c0.4,0.2,0.5,0.7,0.3,1.1l-2.3,4c-0.2,0.4-0.7,0.5-1.1,0.3
		c-0.4-0.2-0.5-0.7-0.3-1.1c0,0,0,0,0,0L632.1,598.5z M640.5,601.2c0-0.4,0.4-0.8,0.8-0.8c0.4,0,0.8,0.4,0.8,0.8v4.6
		c0,0.4-0.4,0.8-0.8,0.8c-0.4,0-0.8-0.4-0.8-0.8V601.2z M649,599.3c-0.2-0.4-0.1-0.9,0.3-1.1c0.4-0.2,0.8-0.1,1.1,0.3l2.3,4
		c0.2,0.4,0.1,0.9-0.3,1.1c-0.4,0.2-0.9,0.1-1.1-0.3c0,0,0,0,0,0L649,599.3z M655.5,593.4c-0.4-0.2-0.5-0.7-0.3-1.1
		c0.2-0.4,0.7-0.5,1.1-0.3c0,0,0,0,0,0l4,2.3c0.4,0.2,0.5,0.7,0.3,1.1c-0.2,0.4-0.7,0.5-1.1,0.3c0,0,0,0,0,0L655.5,593.4z
		 M658.2,585.1c-0.4,0-0.8-0.4-0.8-0.8c0-0.4,0.4-0.8,0.8-0.8l0,0h4.6c0.4,0,0.8,0.4,0.8,0.8c0,0.4-0.4,0.8-0.8,0.8l0,0H658.2z
		 M656.3,576.5c-0.4,0.2-0.9,0.1-1.1-0.3c-0.2-0.4-0.1-0.9,0.3-1.1c0,0,0,0,0,0l4-2.3c0.4-0.2,0.9-0.1,1.1,0.3
		c0.2,0.4,0.1,0.8-0.3,1.1L656.3,576.5z M650.4,570c-0.2,0.4-0.7,0.5-1.1,0.3c-0.4-0.2-0.5-0.7-0.3-1.1c0,0,0,0,0,0l2.3-4
		c0.2-0.4,0.7-0.5,1.1-0.3c0.4,0.2,0.5,0.7,0.3,1.1c0,0,0,0,0,0L650.4,570z M642.1,567.3c0,0.4-0.4,0.8-0.8,0.8
		c-0.4,0-0.8-0.4-0.8-0.8l0,0v-4.6c0-0.4,0.4-0.8,0.8-0.8c0.4,0,0.8,0.4,0.8,0.8V567.3z M641.3,573.1c6.2,0,11.2,5,11.2,11.2
		s-5,11.2-11.2,11.2s-11.2-5-11.2-11.2S635.1,573.1,641.3,573.1z"/>
	<path id="XMLID_365_" class="st48" d="M690.4,605c5.8,0,10.5-3.8,10.5-8.5c0-4-3.5-7.4-8.1-8.3c-0.1-8.5-8.6-15.4-19.2-15.4
		c-7.2,0-13.5,3.3-16.8,8.1c-1-0.3-2.1-0.5-3.2-0.5c-4.2,0-7.6,2.5-8.1,5.8c-5.4,0.9-9.5,4.7-9.5,9.4c0,5.3,5.3,9.6,11.8,9.6
		C649.5,605,689.1,605,690.4,605z"/>
	<path id="XMLID_366_" class="st48" d="M780.9,584.3c5.8,0,10.5-3.8,10.5-8.5c0-4-3.5-7.4-8.1-8.3c-0.1-8.5-8.6-15.4-19.2-15.4
		c-7.2,0-13.5,3.3-16.8,8.1c-1-0.3-2.1-0.5-3.2-0.5c-4.2,0-7.6,2.5-8.1,5.8c-5.4,0.9-9.5,4.7-9.5,9.4c0,5.3,5.3,9.6,11.8,9.6
		C740.1,584.3,779.7,584.3,780.9,584.3z"/>
	<path id="XMLID_328_" class="st16" d="M1182.8,301.6H931.6c-4.3,0-7.8-3.5-7.8-7.8v-83.2c0-4.3,3.5-7.8,7.8-7.8h251.2
		c4.3,0,7.8,3.5,7.8,7.8v83.2C1190.7,298.1,1187.1,301.6,1182.8,301.6z"/>
	<path id="XMLID_203_" class="st16" d="M980.1,300.6l47.7,16.9c-3.6-2.6-8.7-7.1-12.4-14.1c-0.6-1.1-2.5-4.9-3.8-11.8
		c-1.1-5.7-2.2-15,0-27.1C1001.1,276.4,990.6,288.5,980.1,300.6z"/>
	<text id="XMLID_5_" transform="matrix(1 0 0 1 930.453 233.0604)"><tspan x="0" y="0" class="st20 st21">Complete action choosing</tspan><tspan x="0" y="27.6" class="st20 st21">either gallery or use of</tspan><tspan x="0" y="55.2" class="st20 st21">the devices camera</tspan></text>
	<g id="XMLID_403_">
		<path id="XMLID_401_" class="st49" d="M1142.7,312.4l0,25.9c0,1.9-1.5,3.4-3.4,3.4l-51.3-0.1c-1.9,0-3.4-1.5-3.4-3.4l0-25.9
			c0-1.9,1.5-3.4,3.4-3.4l51.3,0.1C1141.2,309,1142.7,310.6,1142.7,312.4z"/>
		<path id="XMLID_400_" class="st50" d="M1111.3,340.6l0,1.1l-23.3,0c-1.9,0-3.4-1.5-3.4-3.4l0-3.7c0.7-1.5,1.7-3,2.9-4.2
			c2.6-2.6,6.1-4.1,9.8-4.1C1105,326.3,1111.3,332.8,1111.3,340.6z"/>
		
			<rect id="XMLID_399_" x="1036.6" y="309" transform="matrix(-1 -1.028102e-03 1.028102e-03 -1 2107.5925 646.4889)" class="st51" width="34.8" height="27.5"/>
		
			<rect id="XMLID_398_" x="1158.1" y="311" transform="matrix(-1 -1.028102e-03 1.028102e-03 -1 2348.4875 650.9263)" class="st51" width="32.7" height="27.7"/>
		<path id="XMLID_397_" class="st52" d="M1147.6,386.9l0-0.6c0-3.3-2.7-6-6-6l0,0c-2.3,0-4.3,1.3-5.3,3.2l-0.7-0.2l0-5
			c0-4-3.2-7.2-7.2-7.2c-2,0-3.8,0.8-5.1,2.1c-1.3,1.3-2.1,3.1-2.1,5.1l0-7.4c0-4-3.2-7.3-7.2-7.3l-0.6,0c-4,0-7.3,3.2-7.3,7.2
			l0-30.6c0-4.8-3.9-8.7-8.7-8.7c-2.4,0-4.6,1-6.1,2.5c-1.6,1.6-2.5,3.7-2.5,6.1l-0.1,50.5l-2.8,0c-3.9,0-7.1,3.2-7.1,7.1l0,5.5
			c0,10.4,4.8,20.2,13.1,26.5c5.3,4,10.2,9,10.5,14.1l0,8.2l45.1,0L1147.6,386.9L1147.6,386.9z"/>
		<path id="XMLID_396_" class="st53" d="M1147.6,386.9l-0.1,65.4l-5.6,0l0.1-66c0-2.3-1.3-4.3-3.2-5.3c0.8-0.4,1.8-0.7,2.8-0.7l0,0
			c3.3,0,6,2.7,6,6L1147.6,386.9L1147.6,386.9L1147.6,386.9L1147.6,386.9z"/>
		
			<rect id="XMLID_395_" x="1098.4" y="447.3" transform="matrix(-1 -1.028102e-03 1.028102e-03 -1 2249.865 911.246)" class="st54" width="53.5" height="15.5"/>
		
			<rect id="XMLID_394_" x="1098.4" y="457.4" transform="matrix(-1 -1.028102e-03 1.028102e-03 -1 2249.8494 921.356)" class="st55" width="53.5" height="5.4"/>
		<path id="XMLID_393_" class="st29" d="M1109.9,334.4c0.6,0,1.2-0.2,1.6-0.7l14.4-14.4c0.9-0.9,0.9-2.4,0-3.3
			c-0.9-0.9-2.4-0.9-3.3,0l-12.8,12.7l-5.3-5.3c-0.9-0.9-2.4-0.9-3.3,0c-0.9,0.9-0.9,2.4,0,3.3l7,7
			C1108.7,334.2,1109.3,334.4,1109.9,334.4z"/>
		<path id="XMLID_392_" class="st29" d="M1174.9,351.5c-1.3-0.3-2.5,0.5-2.8,1.7c0,0.1-3.5,14.6-19.6,21.6c-1.2,0.5-1.7,1.9-1.2,3.1
			c0.4,0.9,1.2,1.4,2.1,1.4c0.3,0,0.6-0.1,0.9-0.2c18.2-7.9,22.1-24.1,22.2-24.8C1176.9,353.1,1176.1,351.8,1174.9,351.5z"/>
		<path id="XMLID_391_" class="st29" d="M1074.7,374.8c-15.9-7-19.4-21-19.5-21.6c-0.3-1.3-1.5-2-2.8-1.7c-1.3,0.3-2,1.5-1.7,2.8
			c0.2,0.7,4,16.8,22.2,24.8c0.3,0.1,0.6,0.2,0.9,0.2c0.9,0,1.7-0.5,2.1-1.4C1076.4,376.7,1075.9,375.3,1074.7,374.8z"/>
		<path id="XMLID_426_" class="st29" d="M1151.9,445l-2.1,0l0.1-58.7c0-4.6-3.7-8.3-8.3-8.3l0,0c-1.3,0-2.6,0.3-3.7,0.8l0-0.5
			c0-5.3-4.3-9.6-9.5-9.6c-1.8,0-3.5,0.5-4.9,1.4c-0.4-4.9-4.5-8.8-9.5-8.8l-0.6,0c-1.8,0-3.5,0.5-4.9,1.4l0-18.7l30.9,0
			c3.2,0,5.7-2.6,5.7-5.7l0-25.9c0-3.2-2.6-5.7-5.7-5.7l-51.3-0.1c-3.2,0-5.7,2.6-5.7,5.7l0,25.9c0,2.6,1.7,4.8,4.1,5.5l0,10.6
			c0,1.3,1,2.3,2.3,2.3s2.3-1,2.3-2.3l0-14.1c0-1.7,0.7-3.3,1.9-4.5c1.2-1.2,2.8-1.9,4.5-1.9c3.5,0,6.4,2.9,6.3,6.4l0,30.6
			c0,1.3,1,2.3,2.3,2.3c1.3,0,2.3-1,2.3-2.3c0-2.7,2.2-4.9,4.9-4.9l0.6,0c2.7,0,4.9,2.2,4.9,4.9l0,7.4c0,1.3,1,2.3,2.3,2.3
			s2.3-1,2.3-2.3c0-1.3,0.5-2.5,1.4-3.5c0.9-0.9,2.1-1.4,3.5-1.4c2.7,0,4.9,2.2,4.9,4.9l0,5c0,1,0.7,1.9,1.7,2.2l0.7,0.2
			c1.1,0.3,2.2-0.2,2.7-1.2c0.6-1.2,1.9-2,3.3-2l0,0c2,0,3.7,1.7,3.7,3.7l-0.1,58.7l-40.5,0l0-1c0,0,0-0.1,0-0.1
			c-0.3-5-4.2-10.4-11.5-15.8c-7.6-5.7-12.2-14.9-12.2-24.6l0-5.5c0-2.6,2.1-4.8,4.8-4.8l0.5,0l0,12.1c0,1.3,1,2.3,2.3,2.3
			s2.3-1,2.3-2.3l0-14.4c0,0,0,0,0,0l0-26c0-1.3-1-2.3-2.3-2.3c-1.3,0-2.3,1-2.3,2.3l0,23.7l-0.5,0c-5.2,0-9.4,4.2-9.4,9.4l0,5.5
			c0,11.1,5.2,21.7,14,28.3c6,4.5,9.4,8.8,9.6,12.3l0,0.9l-1.6,0c-1.3,0-2.3,1-2.3,2.3l0,15.5c0,1.3,1,2.3,2.3,2.3l31.7,0
			c0.6,0,1.2-0.3,1.7-0.7c0.4-0.5,0.7-1.1,0.6-1.7c0,0,0-0.1,0-0.1c-0.1-1.2-1.2-2.2-2.4-2.1c-0.1,0-0.2,0-0.3,0l-29,0l0-10.8
			l48.9,0.1l0,10.8l-8.6,0c-0.2,0-0.3,0-0.5,0c-1.2,0-2.2,1.1-2.2,2.3c0,0,0,0.1,0,0.1c0,1.3,1.1,2.3,2.3,2.3l11.4,0
			c1.3,0,2.3-1,2.3-2.3l0-15.5C1154.3,446.1,1153.2,445,1151.9,445z M1097.4,329.3c-2.9,0-5.7,1.1-7.8,3.2c-1.2,1.2-2.1,2.7-2.7,4.3
			l0-24.4c0-0.6,0.5-1.1,1.1-1.1l51.3,0.1c0.6,0,1.1,0.5,1.1,1.1l0,25.9c0,0.6-0.5,1.1-1.1,1.1l-31,0
			C1107.9,333.7,1103.1,329.3,1097.4,329.3z"/>
		<path id="XMLID_388_" class="st29" d="M1102.5,453.8l0,1.4c0,1.3,1,2.3,2.3,2.3s2.3-1,2.3-2.3l0-1.4c0-1.3-1-2.3-2.3-2.3
			C1103.5,451.5,1102.5,452.5,1102.5,453.8z"/>
		<g id="XMLID_418_">
			<path id="XMLID_419_" class="st29" d="M1067.3,336.5l-26.8,0c-2.2,0-4-1.8-4-4l0-16.3c0-2.2,1.8-4,4-4l5.5,0l0.5-1.6
				c0.2-0.9,1-1.5,2-1.5l11,0c0.9,0,1.7,0.6,2,1.5l0,0.1l0.4,1.6l5.5,0c2.2,0,4,1.8,4,4l0,16.3
				C1071.4,334.7,1069.5,336.5,1067.3,336.5z M1040.6,313.4c-1.5,0-2.7,1.2-2.7,2.7l0,16.3c0,1.5,1.2,2.7,2.7,2.7l26.8,0
				c1.5,0,2.7-1.2,2.7-2.7l0-16.3c0-1.5-1.2-2.7-2.7-2.7l-6.5,0l-0.7-2.6c-0.1-0.3-0.3-0.5-0.7-0.5l-11,0c-0.3,0-0.6,0.2-0.7,0.5
				l-0.8,2.6L1040.6,313.4z M1054,332.4c-4.7,0-8.5-3.8-8.5-8.5c0-4.7,3.8-8.5,8.5-8.5c4.7,0,8.5,3.8,8.5,8.5
				C1062.5,328.6,1058.6,332.4,1054,332.4z M1054,316.7c-4,0-7.2,3.2-7.2,7.2c0,4,3.2,7.2,7.2,7.2c4,0,7.2-3.2,7.2-7.2
				C1061.1,319.9,1057.9,316.7,1054,316.7z M1066.5,315.9c-0.7,0-1.2,0.6-1.2,1.2c0,0.7,0.6,1.2,1.2,1.2c0.7,0,1.2-0.6,1.2-1.2
				C1067.7,316.5,1067.2,315.9,1066.5,315.9z"/>
		</g>
		<g id="XMLID_404_">
			<g id="XMLID_413_">
				<g id="XMLID_414_">
					<path id="XMLID_415_" class="st29" d="M1189.1,311.2l-29.4,0c-0.5,0-0.9,0.4-0.9,0.9l0,25.9c0,0.5,0.4,0.9,0.9,0.9l29.4,0
						c0.5,0,0.9-0.4,0.9-0.9l0-25.9C1190,311.5,1189.6,311.2,1189.1,311.2z M1188.2,337.1l-27.7,0l0-24.2l27.7,0L1188.2,337.1z"/>
				</g>
			</g>
			<g id="XMLID_410_">
				<g id="XMLID_411_">
					<path id="XMLID_364_" class="st29" d="M1189.9,337.6l-9.5-19c-0.1-0.3-0.4-0.5-0.7-0.5c-0.3,0-0.6,0.2-0.8,0.4l-6.4,11.1
						l-4.4-4.4c-0.2-0.2-0.4-0.3-0.7-0.2c-0.3,0-0.5,0.2-0.6,0.4l-7.8,12.1c-0.3,0.4-0.1,0.9,0.3,1.2c0.4,0.3,0.9,0.1,1.2-0.3
						l7.2-11.2l4.4,4.4c0.2,0.2,0.5,0.3,0.7,0.2c0.3,0,0.5-0.2,0.6-0.4l6.1-10.7l8.8,17.6c0.2,0.3,0.5,0.5,0.8,0.5
						c0.1,0,0.3,0,0.4-0.1C1189.9,338.5,1190.1,338,1189.9,337.6z"/>
				</g>
			</g>
			<g id="XMLID_405_">
				<g id="XMLID_406_">
					<path id="XMLID_407_" class="st29" d="M1168.4,314.6c-2.4,0-4.3,1.9-4.3,4.3c0,2.4,1.9,4.3,4.3,4.3c2.4,0,4.3-1.9,4.3-4.3
						S1170.8,314.6,1168.4,314.6z M1168.4,321.5c-1.4,0-2.6-1.2-2.6-2.6s1.2-2.6,2.6-2.6c1.4,0,2.6,1.2,2.6,2.6
						S1169.8,321.5,1168.4,321.5z"/>
				</g>
			</g>
		</g>
	</g>
	<g id="XMLID_437_">
		<path id="XMLID_435_" class="st49" d="M1351.9,824.2v27.4c0,2-1.6,3.6-3.6,3.6h-54.3c-2,0-3.6-1.6-3.6-3.6v-27.4
			c0-2,1.6-3.6,3.6-3.6h54.3C1350.3,820.6,1351.9,822.2,1351.9,824.2z"/>
		<path id="XMLID_434_" class="st50" d="M1318.7,853.9v1.2h-24.7c-2,0-3.6-1.6-3.6-3.6v-3.9c0.7-1.6,1.8-3.1,3.1-4.5
			c2.8-2.8,6.5-4.3,10.4-4.3C1312.1,838.9,1318.7,845.8,1318.7,853.9z"/>
		<g id="XMLID_463_">
			<g id="XMLID_464_">
				<path id="XMLID_465_" class="st29" d="M1349.4,819.6h-57.5c-0.9,0-1.7,0.5-1.7,1.1V854c0,0.6,0.8,1.1,1.7,1.1h57.5
					c0.9,0,1.7-0.5,1.7-1.1v-33.4C1351.1,820.1,1350.3,819.6,1349.4,819.6z M1347.7,852.9h-54.1v-31.1h54.1V852.9z"/>
			</g>
		</g>
		<g id="XMLID_460_">
			<g id="XMLID_461_">
				<path id="XMLID_431_" class="st29" d="M1350.9,853.5l-18.6-24.5c-0.3-0.4-0.8-0.6-1.5-0.6c-0.6,0-1.2,0.2-1.5,0.6l-12.4,14.3
					l-8.6-5.6c-0.4-0.2-0.9-0.4-1.4-0.3c-0.5,0-1,0.2-1.2,0.5l-15.2,15.6c-0.5,0.5-0.3,1.2,0.5,1.5c0.8,0.3,1.8,0.2,2.3-0.3
					l14.1-14.4l8.7,5.7c0.4,0.2,0.9,0.4,1.4,0.3c0.5,0,1-0.3,1.2-0.6l12-13.8l17.2,22.6c0.3,0.4,0.9,0.6,1.5,0.6
					c0.3,0,0.5,0,0.8-0.1C1351,854.7,1351.3,854.1,1350.9,853.5z"/>
			</g>
		</g>
		<g id="XMLID_455_">
			<g id="XMLID_456_">
				<path id="XMLID_457_" class="st29" d="M1306.2,824c-3.2,0-5.8,2.5-5.8,5.6c0,3.1,2.6,5.6,5.8,5.6c3.2,0,5.8-2.5,5.8-5.6
					C1312,826.5,1309.4,824,1306.2,824z M1306.2,832.9c-1.9,0-3.5-1.5-3.5-3.3s1.6-3.3,3.5-3.3c1.9,0,3.5,1.5,3.5,3.3
					S1308.1,832.9,1306.2,832.9z"/>
			</g>
		</g>
		<path id="XMLID_428_" class="st52" d="M1357.1,902.9v-0.6c0-3.5-2.8-6.3-6.3-6.3h0c-2.5,0-4.6,1.4-5.6,3.4l-0.7-0.2v-5.3
			c0-4.2-3.4-7.6-7.6-7.6c-2.1,0-4,0.9-5.4,2.2c-1.4,1.4-2.2,3.3-2.2,5.4V886c0-4.2-3.4-7.7-7.7-7.7h-0.6c-4.2,0-7.7,3.4-7.7,7.7
			v-32.4c0-5.1-4.1-9.2-9.2-9.2c-2.5,0-4.8,1-6.5,2.7c-1.7,1.7-2.7,4-2.7,6.5v53.5h-3c-4.1,0-7.5,3.4-7.5,7.5v5.8
			c0,11,5.1,21.4,13.9,28c5.6,4.2,10.8,9.5,11.2,14.9v8.7h47.7V902.9L1357.1,902.9z"/>
		<path id="XMLID_427_" class="st53" d="M1357.1,902.9V972h-6v-69.8c0-2.4-1.4-4.6-3.4-5.6c0.9-0.5,1.9-0.7,3-0.7h0
			c3.5,0,6.3,2.8,6.3,6.3L1357.1,902.9L1357.1,902.9L1357.1,902.9L1357.1,902.9z"/>
		<rect id="XMLID_425_" x="1305.2" y="966.8" class="st54" width="56.6" height="16.4"/>
		<rect id="XMLID_424_" x="1305.2" y="977.5" class="st55" width="56.6" height="5.7"/>
		<path id="XMLID_423_" class="st29" d="M1386,865.5c-1.3-0.3-2.6,0.5-2.9,1.8c0,0.2-3.7,15.4-20.7,22.8c-1.2,0.5-1.8,2-1.3,3.2
			c0.4,0.9,1.3,1.5,2.3,1.5c0.3,0,0.7-0.1,1-0.2c19.2-8.4,23.3-25.5,23.5-26.2C1388.1,867.1,1387.3,865.8,1386,865.5z"/>
		<path id="XMLID_422_" class="st29" d="M1280.1,890.2c-16.8-7.4-20.5-22.2-20.7-22.8c-0.3-1.3-1.6-2.1-2.9-1.8
			c-1.3,0.3-2.2,1.6-1.8,2.9c0.2,0.7,4.3,17.8,23.5,26.2c0.3,0.1,0.7,0.2,1,0.2c0.9,0,1.8-0.5,2.3-1.5
			C1281.9,892.2,1281.3,890.7,1280.1,890.2z"/>
		<path id="XMLID_446_" class="st29" d="M1361.8,964.3h-2.2v-62.1c0-4.9-4-8.8-8.8-8.8h0c-1.4,0-2.7,0.3-3.9,0.9v-0.5
			c0-5.6-4.5-10.1-10.1-10.1c-1.9,0-3.7,0.5-5.2,1.4c-0.4-5.2-4.8-9.3-10.1-9.3h-0.6c-1.9,0-3.7,0.5-5.2,1.4v-19.7h32.7
			c3.3,0,6.1-2.7,6.1-6.1v-27.4c0-3.3-2.7-6-6.1-6h-54.3c-3.3,0-6.1,2.7-6.1,6v27.4c0,2.7,1.8,5,4.3,5.8v11.2c0,1.4,1.1,2.5,2.5,2.5
			s2.5-1.1,2.5-2.5v-14.9c0-1.8,0.7-3.5,2-4.8c1.3-1.3,3-2,4.8-2c3.7,0,6.7,3,6.7,6.7V886c0,1.4,1.1,2.5,2.5,2.5s2.5-1.1,2.5-2.5
			c0-2.9,2.3-5.2,5.2-5.2h0.6c2.9,0,5.2,2.3,5.2,5.2v7.8c0,1.4,1.1,2.5,2.5,2.5s2.5-1.1,2.5-2.5c0-1.4,0.5-2.7,1.5-3.7
			c1-1,2.3-1.5,3.7-1.5c2.9,0,5.2,2.3,5.2,5.2v5.3c0,1.1,0.7,2,1.8,2.4l0.7,0.2c1.1,0.3,2.3-0.2,2.9-1.2c0.7-1.3,2-2.1,3.4-2.1h0
			c2.1,0,3.9,1.7,3.9,3.9v62.1h-42.8v-1c0-0.1,0-0.1,0-0.2c-0.3-5.3-4.4-11-12.1-16.7c-8.1-6.1-12.9-15.8-12.9-26v-5.8
			c0-2.8,2.3-5,5-5h0.5v12.8c0,1.4,1.1,2.5,2.5,2.5s2.5-1.1,2.5-2.5v-15.3c0,0,0,0,0,0v-27.5c0-1.4-1.1-2.5-2.5-2.5
			s-2.5,1.1-2.5,2.5v25.1h-0.5c-5.5,0-10,4.5-10,10v5.8c0,11.8,5.6,23,14.9,29.9c6.4,4.8,9.9,9.3,10.2,13v0.9h-1.7
			c-1.4,0-2.5,1.1-2.5,2.5v16.4c0,1.4,1.1,2.5,2.5,2.5h33.6c0.7,0,1.3-0.3,1.8-0.8c0.5-0.5,0.7-1.1,0.7-1.8c0,0,0-0.1,0-0.1
			c-0.1-1.3-1.2-2.3-2.5-2.2c-0.1,0-0.2,0-0.3,0h-30.7v-11.4h51.7v11.4h-9.1c-0.2,0-0.3,0-0.5,0c-1.3,0.1-2.4,1.1-2.4,2.4
			c0,0,0,0.1,0,0.1c0,1.3,1.1,2.4,2.5,2.4h12c1.4,0,2.5-1.1,2.5-2.5v-16.4C1364.3,965.4,1363.2,964.3,1361.8,964.3z M1304,842
			c-3.1,0-6,1.2-8.2,3.4c-1.3,1.3-2.2,2.8-2.8,4.5v-25.8c0-0.6,0.5-1.1,1.1-1.1h54.3c0.6,0,1.1,0.5,1.1,1.1v27.4
			c0,0.6-0.5,1.1-1.1,1.1h-32.7C1315.1,846.7,1310.1,842,1304,842z"/>
		<path id="XMLID_417_" class="st29" d="M1309.5,973.7v1.5c0,1.4,1.1,2.5,2.5,2.5s2.5-1.1,2.5-2.5v-1.5c0-1.4-1.1-2.5-2.5-2.5
			S1309.5,972.4,1309.5,973.7z"/>
		<g id="XMLID_442_">
			
				<rect id="XMLID_416_" x="1318.8" y="800.5" transform="matrix(0.466 -0.8848 0.8848 0.466 -1.1328 1600.0482)" class="st56" width="12.6" height="0.9"/>
			
				<rect id="XMLID_412_" x="1315.9" y="794.6" transform="matrix(0.8857 -0.4643 0.4643 0.8857 -221.3892 702.7229)" class="st56" width="0.9" height="12.6"/>
		</g>
		<g id="XMLID_438_">
			<circle id="XMLID_409_" class="st56" cx="1320.7" cy="809.2" r="4.8"/>
			<circle id="XMLID_408_" class="st56" cx="1329.4" cy="792.7" r="4.8"/>
			<circle id="XMLID_402_" class="st56" cx="1312" cy="792.7" r="4.8"/>
		</g>
	</g>
	<g id="XMLID_436_">
		<path id="XMLID_441_" class="st16" d="M1667,874.7h-249.6c-4.8,0-8.7-3.9-8.7-8.7V762.2c0-4.8,3.9-8.7,8.7-8.7H1667
			c4.8,0,8.7,3.9,8.7,8.7V866C1675.6,870.8,1671.7,874.7,1667,874.7z"/>
		<path id="XMLID_440_" class="st16" d="M1412.1,845.4l-12.5,49.1c2.3-3.8,6.3-9.3,13-13.6c1-0.6,4.7-2.9,11.4-4.9
			c5.5-1.6,14.8-3.6,27-2.5C1438,864.2,1425,854.8,1412.1,845.4z"/>
		<text id="XMLID_439_" transform="matrix(1 0 0 1 1425.2595 781.3467)"><tspan x="0" y="0" class="st20 st21">User selects social media</tspan><tspan x="0" y="27.6" class="st20 st21">applications to share </tspan><tspan x="0" y="55.2" class="st20 st21">media to and then </tspan><tspan x="0" y="82.8" class="st20 st21">authenticate.</tspan></text>
	</g>
	<g id="XMLID_450_">
		<path id="XMLID_448_" class="st57" d="M1355.7,356.7h9.3c0-13.4-5.5-25.6-14.3-34.5c-8.8-8.8-21-14.3-34.5-14.3v9.3
			C1338,317.2,1355.7,334.9,1355.7,356.7z"/>
		<path id="XMLID_447_" class="st57" d="M1339.1,356.6C1339.1,356.6,1339.1,356.7,1339.1,356.6l9.4,0c0-8.9-3.6-16.9-9.4-22.7
			c-5.8-5.8-13.9-9.4-22.7-9.4v9.3c6.1,0,11.8,2.4,16.1,6.7C1336.7,344.8,1339.1,350.5,1339.1,356.6z"/>
		<path id="XMLID_445_" class="st57" d="M1322.7,356.6c1.8,0,3.4-0.7,4.6-1.9c1.2-1.2,1.9-2.8,1.9-4.6c0-1.8-0.7-3.4-1.9-4.6
			c-1.2-1.2-2.8-1.9-4.6-1.9c-1.8,0-3.4,0.7-4.6,1.9c-1.2,1.2-1.9,2.8-1.9,4.6c0,1.8,0.7,3.4,1.9,4.6
			C1319.3,355.9,1320.9,356.6,1322.7,356.6z"/>
		<path id="XMLID_451_" class="st57" d="M1303.1,294.7v75.1h75.1v-75.1H1303.1z M1373.5,365.2h-65.8v-65.8h65.8V365.2z"/>
	</g>
	<g id="XMLID_453_">
		<path id="XMLID_449_" class="st16" d="M1434.8,140H1262c-2.5,0-4.6-2.1-4.6-4.6V95.2c0-2.5,2.1-4.6,4.6-4.6h172.8
			c2.5,0,4.6,2.1,4.6,4.6v40.3C1439.4,138,1437.3,140,1434.8,140z"/>
		<text id="XMLID_452_" transform="matrix(1 0 0 1 1294.3499 121.3419)" class="st20 st21">News Feed</text>
	</g>
	<polygon id="XMLID_458_" class="st16" points="1332.3,133.3 1340.6,187 1354.2,133.3 	"/>
	<g id="XMLID_459_">
		<g id="XMLID_466_">
			<path id="XMLID_501_" class="st58" d="M1730.9,630.7v83.8c0,0-47.6,4.9-47.6-18.3c0,0,12.8,1.6,10.2-9c-3.3-13.5-1.5-35.4,0-47.3
				C1694.9,627.9,1730.9,630.7,1730.9,630.7z"/>
			<path id="XMLID_500_" class="st58" d="M1730.7,630.7v83.8c0,0,47.6,4.9,47.6-18.3c0,0-12.8,1.6-10.2-9c3.3-13.5,1.5-35.4,0-47.3
				C1766.6,627.9,1730.7,630.7,1730.7,630.7z"/>
			<path id="XMLID_499_" class="st59" d="M1731.7,702.1v-12.2c0,0,19.4-0.6,19.4,11.1L1731.7,702.1z"/>
			<path id="XMLID_498_" class="st59" d="M1730,702.1v-12.2c0,0-19.4-0.6-19.4,11.1L1730,702.1z"/>
			<g id="XMLID_477_">
				<g id="XMLID_480_">
					<rect id="XMLID_497_" x="1723.2" y="689.9" class="st60" width="15.4" height="17.2"/>
					<path id="XMLID_496_" class="st61" d="M1723.2,691.9c0,0,6.5,4.1,15.4,3.2v-5.2h-15.4V691.9z"/>
					<ellipse id="XMLID_495_" class="st61" cx="1701" cy="663.1" rx="7.5" ry="8.6"/>
					<ellipse id="XMLID_494_" class="st61" cx="1760.8" cy="663.1" rx="7.5" ry="8.6"/>
					<path id="XMLID_493_" class="st60" d="M1760.7,646.8c0-12.6-9.2-21.9-29.9-21.9c-20.6,0-29.9,9.2-29.9,21.9
						c0,12.6-2.2,45.9,29.9,45.9C1762.9,692.6,1760.7,659.4,1760.7,646.8z"/>
					<g id="XMLID_484_">
						<g id="XMLID_490_">
							<ellipse id="XMLID_492_" class="st62" cx="1716.3" cy="661.1" rx="3.2" ry="3.5"/>
							<circle id="XMLID_491_" class="st23" cx="1714.9" cy="659.5" r="1"/>
						</g>
						<path id="XMLID_489_" class="st63" d="M1711.1,653.4c1.5,0.6,4-2,9.6,0.3c1,0.4,1.6-3.5-4.4-3.5
							C1711.1,650.2,1710.2,653.1,1711.1,653.4z"/>
						<g id="XMLID_486_">
							<ellipse id="XMLID_488_" class="st62" cx="1745.8" cy="661.1" rx="3.2" ry="3.5"/>
							<circle id="XMLID_487_" class="st23" cx="1744.4" cy="659.5" r="1"/>
						</g>
						<path id="XMLID_485_" class="st63" d="M1750.6,653.4c-1.5,0.6-4-2-9.6,0.3c-1,0.4-1.6-3.5,4.4-3.5
							C1750.6,650.2,1751.5,653.1,1750.6,653.4z"/>
					</g>
					<path id="XMLID_483_" class="st61" d="M1730.9,673.5c-3.2,0-5.1-2.4-5.1-1.2c0,1.2,0.9,3.3,5.1,3.3c4.2,0,5.1-2.2,5.1-3.3
						C1736,671.1,1734.1,673.5,1730.9,673.5z"/>
					<path id="XMLID_482_" class="st61" d="M1730.9,684.1c-1.1,0-1.8-0.8-1.8-0.4s0.3,1.2,1.8,1.2s1.8-0.8,1.8-1.2
						S1732,684.1,1730.9,684.1z"/>
					<path id="XMLID_481_" class="st64" d="M1730.9,681.2c-5.1,0-8.1-2.1-8.1-1.5c0,0.5,1.5,2.6,8.1,2.6c6.6,0,8.1-2.1,8.1-2.6
						C1739,679.1,1735.9,681.2,1730.9,681.2z"/>
				</g>
				<circle id="XMLID_479_" class="st65" cx="1712.2" cy="672.4" r="4.4"/>
				<circle id="XMLID_478_" class="st65" cx="1750.1" cy="672.4" r="4.4"/>
			</g>
			<path id="XMLID_476_" class="st66" d="M1730.9,696.8v19.4h-33.7C1697.2,708.3,1713.2,696.8,1730.9,696.8z"/>
			<path id="XMLID_475_" class="st66" d="M1730.9,696.8v19.4h33.7C1764.6,708.3,1748.6,696.8,1730.9,696.8z"/>
			<path id="XMLID_474_" class="st67" d="M1730.9,715.3v-18.5c-4.9,0-9.7,0.9-14.1,2.4L1730.9,715.3z"/>
			<path id="XMLID_473_" class="st67" d="M1730.9,715.3v-18.5c4.9,0,9.7,0.9,14.1,2.4L1730.9,715.3z"/>
			<path id="XMLID_472_" class="st68" d="M1730.9,696.8c-3.6,0-7.1,0.5-10.4,1.3c0.5,2.9,2.4,8.8,10.4,8.8c8,0,9.9-5.9,10.4-8.8
				C1738,697.3,1734.4,696.8,1730.9,696.8z"/>
			<path id="XMLID_471_" class="st60" d="M1723.2,697.5c0,0,0,6.9,7.7,6.9c7.7,0,7.7-6.9,7.7-6.9S1730.6,694.6,1723.2,697.5z"/>
			<path id="XMLID_470_" class="st69" d="M1719.1,698.2c0.2-1.5-9-0.4-8.9,3.8c0.1,4.2,10.2,7.5,12.9,9c2.8,1.5,7.7,5.1,7.7,5.1
				s0.9-3.6-3.4-6.3C1723.1,707.1,1718.8,700.2,1719.1,698.2z"/>
			<path id="XMLID_469_" class="st69" d="M1742.5,698.2c-0.2-1.5,9-0.4,8.9,3.8c-0.1,4.2-10.2,7.5-12.9,9c-2.8,1.5-7.7,5.1-7.7,5.1
				s-0.9-3.6,3.4-6.3C1738.5,707.1,1742.8,700.2,1742.5,698.2z"/>
			<path id="XMLID_468_" class="st70" d="M1730.9,608c-34.6,0-39.2,30.2-39.2,52.5c0,22.3,11.5,35.2,20.5,38.8
				c0,0-14.4-25.5-7.3-49.1c5.8-19.3,26-13.6,26-13.6s20.2-5.7,26,13.6c7.1,23.6-7.3,49.1-7.3,49.1c9-3.6,20.5-16.6,20.5-38.8
				C1770.1,638.2,1765.5,608,1730.9,608z"/>
			<path id="XMLID_467_" class="st70" d="M1742.6,641.9c0,0-13,6.5-24.5,5.2c-11.5-1.3-15.9,10.6-15.2,18.5l-3.8-17.5l6.9-13.9
				l19.7-10.2l18.7,0.9l8.8,7.7l7.5,9.3l5.3,6.1l-2.5,18.9l-5.4,6.5C1758.1,673.5,1763,649.2,1742.6,641.9z"/>
		</g>
		<circle id="XMLID_462_" class="st71" cx="1730.7" cy="666.6" r="70"/>
	</g>
	<g id="XMLID_454_">
		<path id="XMLID_504_" class="st16" d="M2139.2,735.1h-292c-6.3,0-11.4-5.1-11.4-11.4V569c0-6.3,5.1-11.4,11.4-11.4h292
			c6.3,0,11.4,5.1,11.4,11.4v154.8C2150.6,730,2145.5,735.1,2139.2,735.1z"/>
		<path id="XMLID_503_" class="st16" d="M1837.3,593.5l-40.2,45.1c4.3-2.9,11.1-6.6,19.5-7.7c1.3-0.2,5.8-0.7,13,0.6
			c5.9,1.1,15.2,3.7,25.3,11C1849,626.1,1843.1,609.8,1837.3,593.5z"/>
		<text id="XMLID_502_" transform="matrix(0.8439 0 0 1 1854.8756 589.535)"><tspan x="0" y="0" class="st20 st72">User profile: the user recieves</tspan><tspan x="0" y="33.2" class="st20 st72">notifications from all his/her</tspan><tspan x="0" y="66.5" class="st20 st72"> favorite social media apps </tspan><tspan x="0" y="99.7" class="st20 st72">selected in order of time</tspan><tspan x="0" y="132.9" class="st20 st72">recieved.</tspan></text>
	</g>
	<g id="XMLID_505_">
		<circle id="XMLID_511_" class="st73" cx="1722.8" cy="343.4" r="35.2"/>
		<line id="XMLID_510_" class="st74" x1="1746.5" y1="369.5" x2="1773.9" y2="398"/>
		<path id="XMLID_509_" class="st75" d="M1689.4,354.4c1.5,4.5,3.9,8.8,7.3,12.6l49.7-49.7c-3.8-3.4-8-5.8-12.6-7.3L1689.4,354.4z"
			/>
		<path id="XMLID_506_" class="st76" d="M1722.8,380.4c-20.4,0-37-16.6-37-37s16.6-37,37-37s37,16.6,37,37
			C1759.8,363.8,1743.2,380.4,1722.8,380.4z M1722.8,309.9c-18.5,0-33.5,15-33.5,33.5c0,18.5,15,33.5,33.5,33.5s33.5-15,33.5-33.5
			C1756.3,325,1741.3,309.9,1722.8,309.9z"/>
	</g>
	<path id="XMLID_514_" class="st16" d="M1883.5,482.1h-172.8c-2.5,0-4.6-2.1-4.6-4.6v-40.3c0-2.5,2.1-4.6,4.6-4.6h172.8
		c2.5,0,4.6,2.1,4.6,4.6v40.3C1888,480,1886,482.1,1883.5,482.1z"/>
	<text id="XMLID_515_" transform="matrix(1 0 0 1 1764.5668 465.1343)" class="st20 st21">Search</text>
	<path id="XMLID_513_" class="st16" d="M1709.2,437.7c0.5-4.2,1.5-9.4,3.5-14.9c4.4-12.1,11.6-20.3,16.4-24.8
		c0.5,7.4,1.9,17.3,5.6,28.3c3.5,10.4,8,18.8,11.8,24.8C1734.1,446.6,1721.6,442.1,1709.2,437.7z"/>
	<g id="XMLID_532_">
		<rect id="XMLID_531_" x="1876.7" y="103.7" class="st77" width="9.1" height="122.2"/>
		<path id="XMLID_556_" class="st78" d="M1885.8,228.1h-9.1c-1.2,0-2.3-1-2.3-2.3V103.7c0-1.2,1-2.3,2.3-2.3h9.1
			c1.2,0,2.3,1,2.3,2.3v122.2C1888,227.1,1887,228.1,1885.8,228.1z M1879,223.6h4.5V105.9h-4.5V223.6z"/>
		<rect id="XMLID_528_" x="1989.9" y="103.7" class="st77" width="9.1" height="122.2"/>
		<path id="XMLID_552_" class="st78" d="M1998.9,228.1h-9.1c-1.2,0-2.3-1-2.3-2.3V103.7c0-1.2,1-2.3,2.3-2.3h9.1
			c1.2,0,2.3,1,2.3,2.3v122.2C2001.2,227.1,2000.2,228.1,1998.9,228.1z M1992.1,223.6h4.5V105.9h-4.5V223.6z"/>
		<path id="XMLID_525_" class="st79" d="M1998.9,155.7l-19.8,2.9c-27.4,4.1-55.2,4.1-82.6,0l-19.8-2.9v-38.5l19.8,2.9
			c27.4,4.1,55.2,4.1,82.6,0l19.8-2.9V155.7z"/>
		<path id="XMLID_547_" class="st78" d="M1937.8,163.9c-13.9,0-27.8-1-41.6-3.1l-19.8-2.9c-1.1-0.2-1.9-1.1-1.9-2.2v-38.5
			c0-0.7,0.3-1.3,0.8-1.7c0.5-0.4,1.2-0.6,1.8-0.5l19.8,2.9c27.2,4,54.8,4,82,0l19.8-2.9c0.7-0.1,1.3,0.1,1.8,0.5
			c0.5,0.4,0.8,1.1,0.8,1.7v38.5c0,1.1-0.8,2.1-1.9,2.2l-19.8,2.9C1965.6,162.9,1951.7,163.9,1937.8,163.9z M1879,153.7l17.9,2.6
			c27.2,4,54.8,4,82,0l17.9-2.6v-33.9l-17.2,2.5c-27.6,4.1-55.7,4.1-83.3,0l-17.2-2.5C1879,119.9,1879,153.7,1879,153.7z
			 M1998.9,155.7L1998.9,155.7L1998.9,155.7z"/>
		<g id="XMLID_540_">
			<path id="XMLID_521_" class="st80" d="M1908.1,132.5c0.4,0,0.7,0,1.1,0.1c0.4,0,0.7,0.1,1,0.3c0.3,0.1,0.5,0.3,0.7,0.6
				c0.2,0.3,0.3,0.6,0.3,1.1s-0.1,0.8-0.3,1.1c-0.2,0.3-0.4,0.5-0.7,0.6c-0.3,0.1-0.6,0.2-1,0.3c-0.4,0-0.7,0.1-1.1,0.1h-3.2v3.4
				h1.7c0.3,0,0.7,0,1.1,0c0.4,0,0.7,0.1,1,0.2c0.3,0.1,0.5,0.3,0.7,0.6c0.2,0.3,0.3,0.6,0.3,1.1s-0.1,0.8-0.3,1.1
				c-0.2,0.3-0.4,0.5-0.7,0.6c-0.3,0.1-0.6,0.2-1,0.2c-0.4,0-0.7,0-1.1,0h-1.7v4.2c0,0.4,0,0.8,0,1.1c0,0.4-0.1,0.7-0.2,1
				c-0.1,0.3-0.3,0.5-0.6,0.7c-0.3,0.2-0.7,0.3-1.2,0.3c-0.5,0-0.9-0.1-1.2-0.3c-0.3-0.2-0.5-0.4-0.6-0.7c-0.1-0.3-0.2-0.6-0.2-1
				c0-0.4,0-0.7,0-1.1v-12.5c0-0.4,0-0.8,0-1.1c0-0.4,0.1-0.7,0.2-1c0.1-0.3,0.3-0.5,0.6-0.7s0.7-0.3,1.2-0.3L1908.1,132.5
				C1908.1,132.5,1908.1,132.5,1908.1,132.5z"/>
			<path id="XMLID_520_" class="st80" d="M1913.7,135.6c0-0.4,0-0.8,0.1-1.1c0-0.4,0.1-0.7,0.3-1c0.1-0.3,0.4-0.5,0.7-0.7
				c0.3-0.2,0.7-0.3,1.2-0.3s0.9,0.1,1.2,0.3c0.3,0.2,0.5,0.4,0.7,0.7c0.1,0.3,0.2,0.6,0.3,1c0,0.4,0.1,0.7,0.1,1.1V148
				c0,0.4,0,0.8-0.1,1.1c0,0.4-0.1,0.7-0.3,1c-0.1,0.3-0.4,0.5-0.7,0.7c-0.3,0.2-0.7,0.3-1.2,0.3c-0.5,0-0.9-0.1-1.2-0.3
				c-0.3-0.2-0.5-0.4-0.7-0.7c-0.1-0.3-0.2-0.6-0.3-1c0-0.4-0.1-0.7-0.1-1.1L1913.7,135.6L1913.7,135.6z"/>
			<path id="XMLID_519_" class="st80" d="M1932.5,145.6h0.3v-11c0-0.3,0-0.5,0.1-0.8c0-0.3,0.1-0.5,0.2-0.7c0.1-0.2,0.3-0.3,0.5-0.4
				s0.6-0.2,1-0.2c0.5,0,0.8,0.1,1.1,0.2c0.3,0.1,0.5,0.3,0.6,0.4c0.1,0.2,0.2,0.4,0.3,0.7s0.1,0.5,0.1,0.8V148c0,0.4,0,0.8,0,1.1
				c0,0.4-0.1,0.7-0.2,1c-0.1,0.3-0.3,0.5-0.6,0.7c-0.3,0.2-0.6,0.3-1.1,0.3h-1.8c-0.4,0-0.8-0.1-1-0.2c-0.3-0.2-0.5-0.4-0.7-0.6
				c-0.2-0.2-0.3-0.5-0.4-0.7c-0.1-0.3-0.2-0.5-0.3-0.6l-4-10.8h-0.3v11c0,0.3,0,0.5-0.1,0.8c0,0.3-0.1,0.5-0.2,0.7
				c-0.1,0.2-0.3,0.3-0.5,0.4c-0.2,0.1-0.6,0.2-1,0.2c-0.5,0-0.8-0.1-1.1-0.2c-0.3-0.1-0.5-0.3-0.6-0.4c-0.1-0.2-0.2-0.4-0.3-0.7
				s-0.1-0.5-0.1-0.8v-13.4c0-0.4,0-0.8,0-1.1c0-0.4,0.1-0.7,0.2-1c0.1-0.3,0.3-0.5,0.6-0.7s0.7-0.3,1.1-0.3h1.8
				c0.4,0,0.8,0.1,1.1,0.3c0.3,0.2,0.5,0.4,0.7,0.6c0.2,0.2,0.3,0.5,0.5,0.8L1932.5,145.6z"/>
			<path id="XMLID_518_" class="st80" d="M1940.6,135.6c0-0.4,0-0.8,0.1-1.1c0-0.4,0.1-0.7,0.3-1c0.1-0.3,0.4-0.5,0.7-0.7
				c0.3-0.2,0.7-0.3,1.2-0.3s0.9,0.1,1.2,0.3c0.3,0.2,0.5,0.4,0.7,0.7c0.1,0.3,0.2,0.6,0.3,1c0,0.4,0.1,0.7,0.1,1.1V148
				c0,0.4,0,0.8-0.1,1.1s-0.1,0.7-0.3,1c-0.1,0.3-0.4,0.5-0.7,0.7c-0.3,0.2-0.7,0.3-1.2,0.3s-0.9-0.1-1.2-0.3
				c-0.3-0.2-0.5-0.4-0.7-0.7c-0.1-0.3-0.2-0.6-0.3-1s-0.1-0.7-0.1-1.1L1940.6,135.6L1940.6,135.6z"/>
			<path id="XMLID_517_" class="st80" d="M1952.5,137.2c0,0.4,0.1,0.7,0.3,1s0.5,0.6,0.8,0.8c0.3,0.3,0.7,0.5,1.2,0.8
				c0.4,0.3,0.9,0.5,1.3,0.8c0.5,0.3,0.9,0.6,1.3,0.9c0.4,0.3,0.8,0.7,1.2,1.1c0.3,0.4,0.6,0.9,0.8,1.4c0.2,0.5,0.3,1.1,0.3,1.8v0.1
				c0,0.7-0.1,1.4-0.3,1.9c-0.2,0.5-0.4,1-0.7,1.4c-0.3,0.4-0.6,0.7-1,1s-0.8,0.5-1.2,0.6c-0.4,0.2-0.9,0.3-1.3,0.3
				s-0.9,0.1-1.2,0.1h-0.1c-0.8,0-1.4-0.1-2-0.2c-0.6-0.2-1.1-0.4-1.5-0.6c-0.4-0.3-0.7-0.5-1-0.9s-0.5-0.7-0.6-1
				c-0.2-0.3-0.3-0.7-0.3-1c-0.1-0.3-0.1-0.7-0.1-1c0-0.3,0.1-0.6,0.2-0.8c0.1-0.2,0.2-0.4,0.4-0.6c0.2-0.1,0.4-0.3,0.6-0.3
				s0.5-0.1,0.7-0.1c0.2,0,0.5,0,0.7,0.1c0.2,0.1,0.5,0.2,0.7,0.3c0.2,0.1,0.4,0.3,0.5,0.6c0.1,0.2,0.2,0.5,0.2,0.8
				c0,0.7,0.2,1.1,0.5,1.4c0.3,0.2,0.7,0.4,1.2,0.4c0.3,0,0.5,0,0.7-0.1c0.2-0.1,0.4-0.2,0.6-0.3c0.2-0.1,0.3-0.3,0.4-0.6
				c0.1-0.2,0.1-0.5,0.1-0.9c0-0.5-0.1-0.9-0.3-1.2s-0.5-0.7-0.8-1c-0.3-0.3-0.7-0.6-1.2-0.9c-0.4-0.3-0.9-0.6-1.3-0.9
				c-0.5-0.3-0.9-0.6-1.3-0.9c-0.4-0.3-0.8-0.7-1.2-1c-0.3-0.4-0.6-0.8-0.8-1.2s-0.3-1-0.3-1.5v-0.2c0-0.9,0.1-1.7,0.4-2.4
				s0.6-1.1,1.1-1.5c0.5-0.4,1.1-0.6,1.7-0.8c0.7-0.2,1.5-0.2,2.4-0.2h0.3c0.8,0,1.5,0.1,2.1,0.3c0.6,0.2,1,0.4,1.4,0.7
				c0.4,0.3,0.7,0.6,0.9,0.9c0.2,0.3,0.4,0.7,0.5,1c0.1,0.3,0.2,0.6,0.2,0.9c0,0.3,0,0.5,0,0.7c0,0.3-0.1,0.5-0.2,0.7
				s-0.2,0.4-0.4,0.5c-0.2,0.1-0.4,0.3-0.6,0.4s-0.5,0.1-0.8,0.1c-0.2,0-0.4,0-0.6-0.1c-0.2-0.1-0.4-0.2-0.6-0.3
				c-0.2-0.1-0.3-0.3-0.4-0.5c-0.1-0.2-0.2-0.3-0.2-0.5c0-0.7-0.1-1.2-0.4-1.5c-0.3-0.3-0.6-0.4-1.1-0.4c-0.2,0-0.5,0-0.7,0
				c-0.2,0-0.4,0.1-0.6,0.2c-0.2,0.1-0.3,0.3-0.4,0.5C1952.5,136.4,1952.5,136.7,1952.5,137.2z"/>
			<path id="XMLID_516_" class="st80" d="M1962.6,135.6c0-0.4,0-0.8,0.1-1.1c0-0.4,0.1-0.7,0.3-1c0.1-0.3,0.3-0.5,0.6-0.7
				c0.3-0.2,0.6-0.3,1.1-0.3c0.5,0,0.8,0.1,1.1,0.3c0.3,0.2,0.5,0.4,0.6,0.7c0.1,0.3,0.2,0.6,0.3,1c0,0.4,0.1,0.7,0.1,1.1v4.2h3.6
				v-4.2c0-0.4,0-0.8,0.1-1.1c0-0.4,0.1-0.7,0.3-1c0.1-0.3,0.3-0.5,0.6-0.7c0.3-0.2,0.6-0.3,1.1-0.3c0.5,0,0.8,0.1,1.1,0.3
				c0.3,0.2,0.5,0.4,0.6,0.7c0.1,0.3,0.2,0.6,0.3,1c0,0.4,0.1,0.7,0.1,1.1V148c0,0.4,0,0.8-0.1,1.1c0,0.4-0.1,0.7-0.3,1
				c-0.1,0.3-0.3,0.5-0.6,0.7c-0.3,0.2-0.6,0.3-1.1,0.3c-0.5,0-0.8-0.1-1.1-0.3c-0.3-0.2-0.5-0.4-0.6-0.7c-0.1-0.3-0.2-0.6-0.3-1
				c0-0.4-0.1-0.7-0.1-1.1v-4.4h-3.6v4.4c0,0.4,0,0.8-0.1,1.1s-0.1,0.7-0.3,1c-0.1,0.3-0.3,0.5-0.6,0.7c-0.3,0.2-0.6,0.3-1.1,0.3
				c-0.5,0-0.8-0.1-1.1-0.3c-0.3-0.2-0.5-0.4-0.6-0.7c-0.1-0.3-0.2-0.6-0.3-1s-0.1-0.7-0.1-1.1V135.6z"/>
		</g>
		<g id="XMLID_535_">
			<path id="XMLID_512_" class="st79" d="M1912.9,203.2c-1.2,0-2.3-1-2.3-2.3v-15.8c0-1.2,1-2.3,2.3-2.3c1.2,0,2.3,1,2.3,2.3V201
				C1915.2,202.2,1914.2,203.2,1912.9,203.2z"/>
			<path id="XMLID_194_" class="st79" d="M1920.8,195.3H1905c-1.2,0-2.3-1-2.3-2.3c0-1.2,1-2.3,2.3-2.3h15.8c1.2,0,2.3,1,2.3,2.3
				C1923.1,194.3,1922.1,195.3,1920.8,195.3z"/>
			<path id="XMLID_193_" class="st79" d="M1955.9,216.8c-1.2,0-2.3-1-2.3-2.3v-15.8c0-1.2,1-2.3,2.3-2.3s2.3,1,2.3,2.3v15.8
				C1958.2,215.8,1957.2,216.8,1955.9,216.8z"/>
			<path id="XMLID_192_" class="st79" d="M1963.8,208.9H1948c-1.2,0-2.3-1-2.3-2.3c0-1.2,1-2.3,2.3-2.3h15.8c1.2,0,2.3,1,2.3,2.3
				C1966.1,207.9,1965.1,208.9,1963.8,208.9z"/>
		</g>
	</g>
	<g id="XMLID_534_">
		<path id="XMLID_546_" class="st81" d="M2035.6,521c0,3.3-2.6,5.9-5.9,5.9h-28.9c-3.3,0-5.9-2.6-5.9-5.9l0,0c0-3.3,2.6-5.9,5.9-5.9
			h28.9C2033,515.1,2035.6,517.7,2035.6,521L2035.6,521z"/>
		<circle id="XMLID_545_" class="st82" cx="2014.2" cy="457.4" r="23.3"/>
		<circle id="XMLID_544_" class="st82" cx="2001" cy="475.2" r="21"/>
		<path id="XMLID_543_" class="st82" d="M2050.9,475.8c0,11.6-9.4,21-21,21c-11.6,0-21-9.4-21-21c0-11.6,9.4-21,21-21
			C2041.5,454.8,2050.9,464.2,2050.9,475.8z"/>
		<circle id="XMLID_542_" class="st82" cx="2015.3" cy="482.3" r="21"/>
		<circle id="XMLID_541_" class="st83" cx="2022" cy="449.6" r="7.8"/>
		<path id="XMLID_539_" class="st5" d="M2015.3,521.6c-1.4,0-2.6-1.2-2.6-2.6v-55.3c0-1.4,1.2-2.6,2.6-2.6c1.4,0,2.6,1.2,2.6,2.6
			V519C2017.9,520.4,2016.7,521.6,2015.3,521.6z"/>
		<path id="XMLID_538_" class="st5" d="M2015.3,496.6c-0.6,0-1.1-0.2-1.6-0.5l-18.5-14.4c-1.1-0.9-1.3-2.5-0.5-3.6
			c0.9-1.1,2.5-1.3,3.6-0.5l18.5,14.4c1.1,0.9,1.3,2.5,0.5,3.6C2016.8,496.2,2016.1,496.6,2015.3,496.6z"/>
		<path id="XMLID_537_" class="st5" d="M2016,486.9c-0.8,0-1.5-0.3-2-1c-0.9-1.1-0.7-2.8,0.5-3.6l12.1-9.4c1.1-0.9,2.8-0.7,3.6,0.5
			c0.9,1.1,0.7,2.8-0.5,3.6l-12.1,9.4C2017.1,486.7,2016.6,486.9,2016,486.9z"/>
		<path id="XMLID_536_" class="st5" d="M2023.8,523.5H2007c-1.4,0-2.6-1.2-2.6-2.6c0-1.4,1.2-2.6,2.6-2.6h16.9
			c1.4,0,2.6,1.2,2.6,2.6C2026.4,522.4,2025.2,523.5,2023.8,523.5z"/>
	</g>
</g>
<text id="XMLID_533_" transform="matrix(1 0 0 1 1625.2446 818.2563)" class="st84 st20 st85">AppEasy user journey</text>
<text id="XMLID_548_" transform="matrix(1 0 0 1 1600.7714 865.4998)" class="st84"><tspan x="0" y="0" class="st86 st20 st87">Note:The user journey represents the scenario created</tspan><tspan x="0" y="34.8" class="st86 st20 st87">earlier ,which shows how the users could interact with the final design.</tspan><tspan x="0" y="104.4" class="st86 st20 st87">this also helped to understand user behaviour and helped identifying</tspan><tspan x="0" y="139.2" class="st86 st20 st87">the possible functions of the application.</tspan><tspan x="0" y="208.8" class="st86 st20 st87">before creating the user journey i considered the following:</tspan><tspan x="0" y="243.6" class="st86 st20 st87">1. the users goal.</tspan><tspan x="0" y="278.4" class="st86 st20 st87">2.motivations.</tspan><tspan x="0" y="313.2" class="st86 st20 st87">3. what they want to achieve.</tspan></text>
</svg>
