<?xml version="1.0" encoding="utf-8"?>
<!-- Generator: Adobe Illustrator 19.0.0, SVG Export Plug-In . SVG Version: 6.00 Build 0)  -->
<svg version="1.1" id="Layer_1" xmlns="http://www.w3.org/2000/svg" xmlns:xlink="http://www.w3.org/1999/xlink" x="0px" y="0px"
	 viewBox="0 0 1500 1008" style="enable-background:new 0 0 1500 1008;" xml:space="preserve">
<style type="text/css">
	.st0{display:none;fill:#FFFFFF;}
	.st1{fill:#5D5D5D;}
	.st2{fill:#FFFFFF;}
	.st3{fill:#7E8282;}
	.st4{fill:#FFFFFF;stroke:#3F3D3C;stroke-width:2;stroke-miterlimit:10;}
	.st5{font-family:'MyriadPro-Regular';}
	.st6{font-size:12px;}
	.st7{fill:#999898;}
	.st8{fill:#BFBFBF;}
	.st9{fill:#CECCCC;}
	.st10{display:none;fill:#31AFAC;}
	.st11{fill:#E8E6E6;}
	.st12{fill:#514F4F;}
</style>
<image style="display:none;overflow:visible;" width="9010" height="4958" xlink:href="bootstrap websites themes/AppStation Free Website Template - Free-CSS.com/AppStation/img/sketches.png"  transform="matrix(0.1661 0 0 0.1661 0.9628 108.7478)">
</image>
<rect x="828.6" y="169.1" class="st0" width="0" height="0"/>
<g>
	<path class="st1" d="M197,919.6H84.1c-19.7,0-35.9-16.1-35.9-35.9V602.2c0-19.7,16.1-35.9,35.9-35.9H197
		c19.7,0,35.9,16.1,35.9,35.9v281.5C232.8,903.5,216.7,919.6,197,919.6z"/>
	<rect x="60" y="593.1" class="st2" width="161" height="299.8"/>
</g>
<g>
	<path class="st1" d="M435.3,919.6H322.4c-19.7,0-35.9-16.1-35.9-35.9V602.2c0-19.7,16.1-35.9,35.9-35.9h112.9
		c19.7,0,35.9,16.1,35.9,35.9v281.5C471.2,903.5,455,919.6,435.3,919.6z"/>
	<rect x="298.4" y="593.1" class="st2" width="161" height="299.8"/>
</g>
<g>
	<path class="st1" d="M672.5,919.6H559.6c-19.7,0-35.9-16.1-35.9-35.9V602.2c0-19.7,16.1-35.9,35.9-35.9h112.9
		c19.7,0,35.9,16.1,35.9,35.9v281.5C708.3,903.5,692.2,919.6,672.5,919.6z"/>
	<rect x="535.5" y="593.1" class="st2" width="161" height="299.8"/>
</g>
<g>
	<path class="st1" d="M912.3,919.6H799.4c-19.7,0-35.9-16.1-35.9-35.9V602.2c0-19.7,16.1-35.9,35.9-35.9h112.9
		c19.7,0,35.9,16.1,35.9,35.9v281.5C948.1,903.5,932,919.6,912.3,919.6z"/>
	<rect x="775.4" y="593.1" class="st2" width="161" height="299.8"/>
</g>
<g>
	<path class="st1" d="M1147.9,919.6h-112.9c-19.7,0-35.9-16.1-35.9-35.9V602.2c0-19.7,16.1-35.9,35.9-35.9h112.9
		c19.7,0,35.9,16.1,35.9,35.9v281.5C1183.8,903.5,1167.7,919.6,1147.9,919.6z"/>
	<rect x="1011" y="593.1" class="st2" width="161" height="299.8"/>
</g>
<g>
	<path class="st1" d="M1399.6,919.6h-112.9c-19.7,0-35.9-16.1-35.9-35.9V602.2c0-19.7,16.1-35.9,35.9-35.9h112.9
		c19.7,0,35.9,16.1,35.9,35.9v281.5C1435.5,903.5,1419.3,919.6,1399.6,919.6z"/>
	<rect x="1262.7" y="593.1" class="st2" width="161" height="299.8"/>
</g>
<g>
	<path class="st1" d="M668.1,403.9H555.3c-19.7,0-35.9-16.1-35.9-35.9V86.4c0-19.7,16.1-35.9,35.9-35.9h112.9
		c19.7,0,35.9,16.1,35.9,35.9V368C704,387.7,687.9,403.9,668.1,403.9z"/>
	<rect x="531.2" y="77.3" class="st2" width="161" height="299.8"/>
</g>
<g>
	<path class="st1" d="M907.9,403.9H795.1c-19.7,0-35.9-16.1-35.9-35.9V86.4c0-19.7,16.1-35.9,35.9-35.9h112.9
		c19.7,0,35.9,16.1,35.9,35.9V368C943.8,387.7,927.7,403.9,907.9,403.9z"/>
	<rect x="771" y="77.3" class="st2" width="161" height="299.8"/>
</g>
<g>
	<path class="st1" d="M1143.6,403.9h-112.9c-19.7,0-35.9-16.1-35.9-35.9V86.4c0-19.7,16.1-35.9,35.9-35.9h112.9
		c19.7,0,35.9,16.1,35.9,35.9V368C1179.5,387.7,1163.3,403.9,1143.6,403.9z"/>
	<rect x="1006.7" y="77.3" class="st2" width="161" height="299.8"/>
</g>
<g>
	<path class="st1" d="M1395.3,403.9h-112.9c-19.7,0-35.9-16.1-35.9-35.9V86.4c0-19.7,16.1-35.9,35.9-35.9h112.9
		c19.7,0,35.9,16.1,35.9,35.9V368C1431.2,387.7,1415,403.9,1395.3,403.9z"/>
	<rect x="1258.4" y="77.3" class="st2" width="161" height="299.8"/>
</g>
<g>
	<g>
		<path class="st1" d="M192.6,403.9H79.8c-19.7,0-35.9-16.1-35.9-35.9V86.4c0-19.7,16.1-35.9,35.9-35.9h112.9
			c19.7,0,35.9,16.1,35.9,35.9V368C228.5,387.7,212.4,403.9,192.6,403.9z"/>
		<rect x="55.7" y="77.3" class="st2" width="161" height="299.8"/>
	</g>
	<rect x="50.2" y="348.8" class="st1" width="168.5" height="28.3"/>
	<circle class="st2" cx="140.5" cy="377.1" r="18.5"/>
</g>
<g>
	<g>
		<path class="st1" d="M668.1,403.9H555.3c-19.7,0-35.9-16.1-35.9-35.9V86.4c0-19.7,16.1-35.9,35.9-35.9h112.9
			c19.7,0,35.9,16.1,35.9,35.9V368C704,387.7,687.9,403.9,668.1,403.9z"/>
		<rect x="531.2" y="77.3" class="st2" width="161" height="299.8"/>
	</g>
	<rect x="525.7" y="348.8" class="st1" width="168.5" height="28.3"/>
	<circle class="st2" cx="616" cy="377.1" r="18.5"/>
</g>
<g>
	<g>
		<path class="st1" d="M907.9,403.9H795.1c-19.7,0-35.9-16.1-35.9-35.9V86.4c0-19.7,16.1-35.9,35.9-35.9h112.9
			c19.7,0,35.9,16.1,35.9,35.9V368C943.8,387.7,927.7,403.9,907.9,403.9z"/>
		<rect x="771" y="77.3" class="st2" width="161" height="299.8"/>
	</g>
	<rect x="765.5" y="348.8" class="st1" width="168.5" height="28.3"/>
	<circle class="st2" cx="855.8" cy="377.1" r="18.5"/>
</g>
<g>
	<g>
		<path class="st1" d="M1143.6,403.9h-112.9c-19.7,0-35.9-16.1-35.9-35.9V86.4c0-19.7,16.1-35.9,35.9-35.9h112.9
			c19.7,0,35.9,16.1,35.9,35.9V368C1179.5,387.7,1163.3,403.9,1143.6,403.9z"/>
		<rect x="1006.7" y="77.3" class="st2" width="161" height="299.8"/>
	</g>
	<rect x="1001.2" y="348.8" class="st1" width="168.5" height="28.3"/>
	<circle class="st2" cx="1091.5" cy="377.1" r="18.5"/>
</g>
<g>
	<g>
		<path class="st1" d="M1395.3,403.9h-112.9c-19.7,0-35.9-16.1-35.9-35.9V86.4c0-19.7,16.1-35.9,35.9-35.9h112.9
			c19.7,0,35.9,16.1,35.9,35.9V368C1431.2,387.7,1415,403.9,1395.3,403.9z"/>
		<rect x="1258.4" y="77.3" class="st2" width="161" height="299.8"/>
	</g>
	<rect x="1252.9" y="348.8" class="st1" width="168.5" height="28.3"/>
	<circle class="st2" cx="1343.2" cy="377.1" r="18.5"/>
</g>
<g>
	<path class="st1" d="M435.3,919.6H322.4c-19.7,0-35.9-16.1-35.9-35.9V602.2c0-19.7,16.1-35.9,35.9-35.9h112.9
		c19.7,0,35.9,16.1,35.9,35.9v281.5C471.2,903.5,455,919.6,435.3,919.6z"/>
	<rect x="298.4" y="593.1" class="st2" width="161" height="299.8"/>
</g>
<g>
	<path class="st1" d="M672.5,919.6H559.6c-19.7,0-35.9-16.1-35.9-35.9V602.2c0-19.7,16.1-35.9,35.9-35.9h112.9
		c19.7,0,35.9,16.1,35.9,35.9v281.5C708.3,903.5,692.2,919.6,672.5,919.6z"/>
	<rect x="535.5" y="593.1" class="st2" width="161" height="299.8"/>
</g>
<g>
	<path class="st1" d="M912.3,919.6H799.4c-19.7,0-35.9-16.1-35.9-35.9V602.2c0-19.7,16.1-35.9,35.9-35.9h112.9
		c19.7,0,35.9,16.1,35.9,35.9v281.5C948.1,903.5,932,919.6,912.3,919.6z"/>
	<rect x="775.4" y="593.1" class="st2" width="161" height="299.8"/>
</g>
<g>
	<path class="st1" d="M1147.9,919.6h-112.9c-19.7,0-35.9-16.1-35.9-35.9V602.2c0-19.7,16.1-35.9,35.9-35.9h112.9
		c19.7,0,35.9,16.1,35.9,35.9v281.5C1183.8,903.5,1167.7,919.6,1147.9,919.6z"/>
	<rect x="1011" y="593.1" class="st2" width="161" height="299.8"/>
</g>
<g>
	<path class="st1" d="M1399.6,919.6h-112.9c-19.7,0-35.9-16.1-35.9-35.9V602.2c0-19.7,16.1-35.9,35.9-35.9h112.9
		c19.7,0,35.9,16.1,35.9,35.9v281.5C1435.5,903.5,1419.3,919.6,1399.6,919.6z"/>
	<rect x="1262.7" y="593.1" class="st2" width="161" height="299.8"/>
</g>
<path class="st1" d="M197,919.6H84.1c-19.7,0-35.9-16.1-35.9-35.9V602.2c0-19.7,16.1-35.9,35.9-35.9H197c19.7,0,35.9,16.1,35.9,35.9
	v281.5C232.8,903.5,216.7,919.6,197,919.6z"/>
<rect x="60" y="593.1" class="st3" width="161" height="299.8"/>
<rect x="54.5" y="864.6" class="st1" width="168.5" height="28.3"/>
<circle class="st2" cx="144.9" cy="892.9" r="18.5"/>
<g>
	<g>
		<path class="st1" d="M435.3,919.6H322.4c-19.7,0-35.9-16.1-35.9-35.9V602.2c0-19.7,16.1-35.9,35.9-35.9h112.9
			c19.7,0,35.9,16.1,35.9,35.9v281.5C471.2,903.5,455,919.6,435.3,919.6z"/>
		<rect x="298.4" y="593.1" class="st2" width="161" height="299.8"/>
	</g>
	<rect x="292.9" y="864.6" class="st1" width="168.5" height="28.3"/>
	<circle class="st2" cx="383.2" cy="892.9" r="18.5"/>
</g>
<g>
	<g>
		<path class="st1" d="M672.5,919.6H559.6c-19.7,0-35.9-16.1-35.9-35.9V602.2c0-19.7,16.1-35.9,35.9-35.9h112.9
			c19.7,0,35.9,16.1,35.9,35.9v281.5C708.3,903.5,692.2,919.6,672.5,919.6z"/>
		<rect x="535.5" y="593.1" class="st2" width="161" height="299.8"/>
	</g>
	<rect x="530" y="864.6" class="st1" width="168.5" height="28.3"/>
	<circle class="st2" cx="620.4" cy="892.9" r="18.5"/>
</g>
<g>
	<g>
		<path class="st1" d="M912.3,919.6H799.4c-19.7,0-35.9-16.1-35.9-35.9V602.2c0-19.7,16.1-35.9,35.9-35.9h112.9
			c19.7,0,35.9,16.1,35.9,35.9v281.5C948.1,903.5,932,919.6,912.3,919.6z"/>
		<rect x="775.4" y="593.1" class="st2" width="161" height="299.8"/>
	</g>
	<rect x="769.8" y="864.6" class="st1" width="168.5" height="28.3"/>
	<circle class="st2" cx="860.2" cy="892.9" r="18.5"/>
</g>
<g>
	<g>
		<path class="st1" d="M1147.9,919.6h-112.9c-19.7,0-35.9-16.1-35.9-35.9V602.2c0-19.7,16.1-35.9,35.9-35.9h112.9
			c19.7,0,35.9,16.1,35.9,35.9v281.5C1183.8,903.5,1167.7,919.6,1147.9,919.6z"/>
		<rect x="1011" y="593.1" class="st2" width="161" height="299.8"/>
	</g>
	<rect x="1005.5" y="864.6" class="st1" width="168.5" height="28.3"/>
	<circle class="st2" cx="1095.8" cy="892.9" r="18.5"/>
</g>
<g>
	<g>
		<path class="st1" d="M1399.6,919.6h-112.9c-19.7,0-35.9-16.1-35.9-35.9V602.2c0-19.7,16.1-35.9,35.9-35.9h112.9
			c19.7,0,35.9,16.1,35.9,35.9v281.5C1435.5,903.5,1419.3,919.6,1399.6,919.6z"/>
		<rect x="1262.7" y="593.1" class="st2" width="161" height="299.8"/>
	</g>
	<rect x="1257.2" y="864.6" class="st1" width="168.5" height="28.3"/>
	<circle class="st2" cx="1347.5" cy="892.9" r="18.5"/>
</g>
<g>
	<rect x="71.6" y="174.1" class="st4" width="30.2" height="27.5"/>
	<rect x="170.2" y="174.1" class="st4" width="30.2" height="27.5"/>
	<rect x="119.3" y="174.1" class="st4" width="30.2" height="27.5"/>
</g>
<g>
	<rect x="71.8" y="267.4" class="st4" width="30.2" height="27.5"/>
	<rect x="170.4" y="267.4" class="st4" width="30.2" height="27.5"/>
	<rect x="119.5" y="267.4" class="st4" width="30.2" height="27.5"/>
</g>
<g>
	<rect x="71.2" y="219.7" class="st4" width="30.2" height="27.5"/>
	<rect x="169.7" y="219.7" class="st4" width="30.2" height="27.5"/>
	<rect x="118.8" y="219.7" class="st4" width="30.2" height="27.5"/>
</g>
<rect x="140.5" y="313.7" class="st4" width="60" height="21.3"/>
<rect x="72" y="313.7" class="st4" width="60" height="21.3"/>
<text transform="matrix(1 0 0 1 86.1689 327.8059)" class="st5 st6">Text</text>
<text transform="matrix(1 0 0 1 159.0347 327.8059)" class="st5 st6">Text</text>
<text transform="matrix(1 0 0 1 118.848 116.9824)" class="st5 st6">Text</text>
<text transform="matrix(1 0 0 1 97.5646 137.4585)" class="st5 st6">*************</text>
<g>
	<g>
		<path class="st1" d="M431,403.9H318.1c-19.7,0-35.9-16.1-35.9-35.9V86.4c0-19.7,16.1-35.9,35.9-35.9H431
			c19.7,0,35.9,16.1,35.9,35.9V368C466.9,387.7,450.7,403.9,431,403.9z"/>
		<rect x="294.1" y="77.3" class="st2" width="161" height="299.8"/>
	</g>
	<g>
		<g>
			<path class="st1" d="M431,403.9H318.1c-19.7,0-35.9-16.1-35.9-35.9V86.4c0-19.7,16.1-35.9,35.9-35.9H431
				c19.7,0,35.9,16.1,35.9,35.9V368C466.9,387.7,450.7,403.9,431,403.9z"/>
			<rect x="294.1" y="77.3" class="st2" width="161" height="299.8"/>
		</g>
		<rect x="288.5" y="348.8" class="st1" width="168.5" height="28.3"/>
		<circle class="st2" cx="378.9" cy="377.1" r="18.5"/>
	</g>
	<rect x="309.4" y="187.9" class="st7" width="132.9" height="116.8"/>
	<g>
		<rect x="333.1" y="117" width="1.5" height="53.6"/>
		<rect x="414.5" y="117" width="1.5" height="53.6"/>
		<rect x="333.1" y="169.6" width="82.8" height="1.8"/>
		<rect x="334.1" y="117" width="81.9" height="1.8"/>
	</g>
	<rect x="326" y="143.7" transform="matrix(0.8461 0.5331 -0.5331 0.8461 134.5689 -177.4455)" width="97.1" height="1.2"/>
	<rect x="326" y="143.7" transform="matrix(-0.8461 0.5331 -0.5331 -0.8461 768.3224 66.6861)" width="97.1" height="1.2"/>
</g>
<text transform="matrix(1 0 0 1 83.9287 191.529)" class="st5 st6">X</text>
<text transform="matrix(1 0 0 1 83.9287 237.5389)" class="st5 st6">X</text>
<text transform="matrix(1 0 0 1 130.9158 191.5291)" class="st5 st6">X</text>
<text transform="matrix(1 0 0 1 180.4229 191.5293)" class="st5 st6">X</text>
<text transform="matrix(1 0 0 1 130.6477 237.2746)" class="st5 st6">X</text>
<text transform="matrix(1 0 0 1 132.0656 284.9593)" class="st5 st6">X</text>
<text transform="matrix(1 0 0 1 84.3747 285.7094)" class="st5 st6">X</text>
<text transform="matrix(1 0 0 1 180.4229 237.2747)" class="st5 st6">X</text>
<text transform="matrix(1 0 0 1 181.4359 284.2091)" class="st5 st6">X</text>
<g>
	<path class="st1" d="M670.7,403.9H557.8c-19.7,0-35.9-16.1-35.9-35.9V86.4c0-19.7,16.1-35.9,35.9-35.9h112.9
		c19.7,0,35.9,16.1,35.9,35.9V368C706.6,387.7,690.4,403.9,670.7,403.9z"/>
	<rect x="533.8" y="77.3" class="st2" width="161" height="299.8"/>
</g>
<g>
	<g>
		<path class="st1" d="M670.7,403.9H557.8c-19.7,0-35.9-16.1-35.9-35.9V86.4c0-19.7,16.1-35.9,35.9-35.9h112.9
			c19.7,0,35.9,16.1,35.9,35.9V368C706.6,387.7,690.4,403.9,670.7,403.9z"/>
		<rect x="533.8" y="77.3" class="st2" width="161" height="299.8"/>
	</g>
	<rect x="528.3" y="348.8" class="st1" width="168.5" height="28.3"/>
	<circle class="st2" cx="618.6" cy="377.1" r="18.5"/>
</g>
<rect x="549.1" y="187.9" class="st7" width="132.9" height="116.8"/>
<g>
	<g>
		<rect x="572.9" y="117" width="1.5" height="53.6"/>
		<rect x="654.2" y="117" width="1.5" height="53.6"/>
		<rect x="572.9" y="169.6" width="82.8" height="1.8"/>
		<rect x="573.8" y="117" width="81.9" height="1.8"/>
	</g>
	<rect x="565.7" y="143.7" transform="matrix(0.8461 0.5331 -0.5331 0.8461 171.4745 -305.247)" width="97.1" height="1.2"/>
	<rect x="565.7" y="143.7" transform="matrix(-0.8461 0.5331 -0.5331 -0.8461 1210.8898 -61.1155)" width="97.1" height="1.2"/>
</g>
<g>
	<path class="st7" d="M671.4,338.9H559.7c-5.8,0-10.6-4.8-10.6-10.6v0c0-5.8,4.8-10.6,10.6-10.6h111.8c5.8,0,10.6,4.8,10.6,10.6v0
		C682,334.1,677.3,338.9,671.4,338.9z"/>
	<text transform="matrix(1 0 0 1 607.6467 331.9713)" class="st5 st6">Text</text>
</g>
<g>
	<path class="st7" d="M910.4,338.4H798.7c-5.8,0-10.6-4.8-10.6-10.6v0c0-5.8,4.8-10.6,10.6-10.6h111.8c5.8,0,10.6,4.8,10.6,10.6v0
		C921,333.6,916.3,338.4,910.4,338.4z"/>
	<text transform="matrix(1 0 0 1 846.6467 331.4701)" class="st5 st6">Text</text>
</g>
<g>
	<circle class="st7" cx="799.5" cy="151.1" r="18.6"/>
	<circle class="st7" cx="849.7" cy="151.1" r="18.6"/>
	<circle class="st7" cx="902.5" cy="151.1" r="18.6"/>
</g>
<g>
	<circle class="st7" cx="800" cy="208.1" r="18.6"/>
	<circle class="st7" cx="850.3" cy="208.1" r="18.6"/>
	<circle class="st7" cx="903" cy="208.1" r="18.6"/>
</g>
<circle class="st7" cx="798.8" cy="264.9" r="18.6"/>
<circle class="st7" cx="849" cy="264.9" r="18.6"/>
<circle class="st7" cx="901.7" cy="264.9" r="18.6"/>
<rect x="770.8" y="90.6" class="st8" width="161.2" height="33.7"/>
<text transform="matrix(1 0 0 1 837.3204 108.584)" class="st5 st6">Text</text>
<rect x="1006.6" y="90.6" class="st8" width="161.2" height="33.7"/>
<text transform="matrix(1 0 0 1 76.6133 25.5215)" class="st5 st6">PASSWORD REQUIRED</text>
<path class="st1" d="M170.5,410.2v23.9h146.3v-11.9h3.3c-1.6-4.5-3.3-9-4.9-13.4c-1.2,4.4-2.4,8.8-3.7,13.2c1,0,1.9,0.1,2.9,0.1
	c0.1,3.3,0.3,6.6,0.4,9.8l-142,0l-0.3-21.4L170.5,410.2z"/>
<text transform="matrix(1 0 0 1 1078.9031 109.584)" class="st5 st6">Text</text>
<g>
	<rect x="1017" y="178.9" class="st9" width="142.3" height="81.1"/>
	<g>
		<g>
			<rect x="1034.6" y="205.1" width="0.8" height="28.1"/>
			<rect x="1078.2" y="205.1" width="0.8" height="28.1"/>
			<rect x="1034.6" y="232.8" width="44.4" height="1"/>
			<rect x="1035.1" y="205.1" width="43.9" height="1"/>
		</g>
		<polygon points="1079,232.8 1034.9,205.6 1034.6,206.2 1078.6,233.3 		"/>
		<polygon points="1034.6,232.8 1078.7,205.6 1079,206.2 1034.9,233.3 		"/>
	</g>
	<g>
		<g>
			<rect x="1102.5" y="204.9" width="0.8" height="28.1"/>
			<rect x="1146.1" y="204.9" width="0.8" height="28.1"/>
			<rect x="1102.5" y="232.6" width="44.4" height="1"/>
			<rect x="1103" y="204.9" width="43.9" height="1"/>
		</g>
		<polygon points="1146.9,232.6 1102.8,205.4 1102.5,205.9 1146.6,233.1 		"/>
		<polygon points="1102.5,232.6 1146.6,205.4 1146.9,205.9 1102.8,233.1 		"/>
	</g>
	<text transform="matrix(1.0215 0 0 1 1078.9971 195.4863)" class="st5 st6">Text</text>
	<rect x="1017" y="260" class="st1" width="142.3" height="17.6"/>
	<text transform="matrix(1.0215 0 0 1 1038.1426 272.4248)" class="st5 st6">Text</text>
	<text transform="matrix(1.0215 0 0 1 1107.5234 272.4248)" class="st5 st6">Text</text>
</g>
<text transform="matrix(1 0 0 1 1078.9027 157.9603)" class="st5 st6">Text</text>
<g>
	<rect x="1258.2" y="92.7" class="st8" width="161.2" height="33.7"/>
	<g>
		<g>
			<rect x="1388.7" y="99.6" width="0.4" height="19.3"/>
			<rect x="1410.7" y="99.6" width="0.4" height="19.3"/>
			<rect x="1388.7" y="118.6" width="22.5" height="0.7"/>
			<rect x="1388.9" y="99.6" width="22.2" height="0.7"/>
		</g>
		<polygon points="1411.1,118.6 1388.8,99.9 1388.7,100.3 1411,118.9 		"/>
		<polygon points="1388.7,118.6 1411,99.9 1411.1,100.3 1388.9,118.9 		"/>
	</g>
	<g>
		<g>
			<rect x="1262.7" y="99.8" width="0.4" height="19.3"/>
			<rect x="1284.8" y="99.8" width="0.4" height="19.3"/>
			<rect x="1262.7" y="118.7" width="22.5" height="0.7"/>
			<rect x="1263" y="99.8" width="22.2" height="0.7"/>
		</g>
		<polygon points="1285.2,118.7 1262.9,100.1 1262.7,100.5 1285,119.1 		"/>
		<polygon points="1262.7,118.7 1285,100.1 1285.2,100.5 1262.9,119.1 		"/>
	</g>
	<text transform="matrix(1 0 0 1 1328.0353 113.5034)" class="st5 st6">Text</text>
</g>
<g>
	<path class="st7" d="M1399,338.4h-111.8c-5.8,0-10.6-4.8-10.6-10.6v0c0-5.8,4.8-10.6,10.6-10.6H1399c5.8,0,10.6,4.8,10.6,10.6v0
		C1409.6,333.6,1404.9,338.4,1399,338.4z"/>
	<text transform="matrix(1 0 0 1 1335.248 331.4701)" class="st5 st6">Text</text>
</g>
<g>
	<rect x="1276.7" y="152.9" class="st7" width="32.4" height="32.4"/>
	<rect x="1324.6" y="152.9" class="st7" width="32.4" height="32.4"/>
	<rect x="1372.5" y="152.9" class="st7" width="32.4" height="32.4"/>
</g>
<g>
	<rect x="1276.8" y="203.3" class="st7" width="32.4" height="32.4"/>
	<rect x="1324.7" y="203.3" class="st7" width="32.4" height="32.4"/>
	<rect x="1372.5" y="203.3" class="st7" width="32.4" height="32.4"/>
</g>
<g>
	<rect x="1277.6" y="248.3" class="st7" width="32.4" height="32.4"/>
	<rect x="1325.6" y="248.3" class="st7" width="32.4" height="32.4"/>
	<rect x="1373.4" y="248.3" class="st7" width="32.4" height="32.4"/>
</g>
<circle class="st2" cx="140.5" cy="723.5" r="76.5"/>
<g>
	<rect x="298.3" y="607" class="st8" width="161.2" height="33.7"/>
	<g>
		<g>
			<rect x="428.7" y="613.8" width="0.4" height="19.3"/>
			<rect x="450.8" y="613.8" width="0.4" height="19.3"/>
			<rect x="428.7" y="632.8" width="22.5" height="0.7"/>
			<rect x="429" y="613.8" width="22.2" height="0.7"/>
		</g>
		<polygon points="451.2,632.8 428.9,614.2 428.7,614.5 451,633.1 		"/>
		<polygon points="428.7,632.8 451,614.2 451.2,614.5 428.9,633.1 		"/>
	</g>
	<g>
		<g>
			<rect x="302.7" y="614" width="0.4" height="19.3"/>
			<rect x="324.8" y="614" width="0.4" height="19.3"/>
			<rect x="302.7" y="632.9" width="22.5" height="0.7"/>
			<rect x="303" y="614" width="22.2" height="0.7"/>
		</g>
		<polygon points="325.2,632.9 302.9,614.3 302.7,614.7 325,633.3 		"/>
		<polygon points="302.7,632.9 325,614.3 325.2,614.7 302.9,633.3 		"/>
	</g>
	<text transform="matrix(1 0 0 1 368.0593 627.7083)" class="st5 st6">Text</text>
</g>
<circle class="st10" cx="378.9" cy="752.7" r="76.5"/>
<circle class="st7" cx="377.1" cy="686.3" r="18.6"/>
<circle class="st7" cx="383.1" cy="818.6" r="18.6"/>
<circle class="st7" cx="439.9" cy="752.7" r="18.6"/>
<circle class="st7" cx="317" cy="752.7" r="18.6"/>
<circle class="st7" cx="329" cy="704.9" r="18.6"/>
<circle class="st7" cx="423.5" cy="704.9" r="18.6"/>
<circle class="st7" cx="423.5" cy="795.7" r="18.6"/>
<circle class="st7" cx="329" cy="800" r="18.6"/>
<g>
	<g>
		<rect x="359.2" y="735.5" width="0.7" height="33.8"/>
		<rect x="397.9" y="735.5" width="0.7" height="33.8"/>
		<rect x="359.2" y="768.7" width="39.4" height="1.1"/>
		<rect x="359.6" y="735.5" width="39" height="1.1"/>
	</g>
	<polygon points="398.6,768.7 359.5,736.1 359.2,736.7 398.3,769.4 	"/>
	<polygon points="359.2,768.7 398.3,736.1 398.6,736.7 359.5,769.4 	"/>
</g>
<circle class="st7" cx="569.3" cy="686.3" r="18.6"/>
<circle class="st7" cx="569.3" cy="769.9" r="18.6"/>
<circle class="st7" cx="569.3" cy="837.1" r="18.6"/>
<rect x="600.1" y="667.8" class="st11" width="96.4" height="55.7"/>
<rect x="600.1" y="743.4" class="st11" width="96.4" height="55.7"/>
<rect x="600.1" y="818.6" class="st11" width="96.4" height="46.1"/>
<g>
	<rect x="535.4" y="610.9" class="st8" width="161.2" height="33.7"/>
	<g>
		<g>
			<rect x="665.9" y="617.7" width="0.4" height="19.3"/>
			<rect x="687.9" y="617.7" width="0.4" height="19.3"/>
			<rect x="665.9" y="636.7" width="22.5" height="0.7"/>
			<rect x="666.1" y="617.7" width="22.2" height="0.7"/>
		</g>
		<polygon points="688.3,636.7 666,618.1 665.9,618.4 688.1,637.1 		"/>
		<polygon points="665.9,636.7 688.2,618.1 688.3,618.4 666,637.1 		"/>
	</g>
	<g>
		<g>
			<rect x="539.9" y="617.9" width="0.4" height="19.3"/>
			<rect x="561.9" y="617.9" width="0.4" height="19.3"/>
			<rect x="539.9" y="636.9" width="22.5" height="0.7"/>
			<rect x="540.1" y="617.9" width="22.2" height="0.7"/>
		</g>
		<polygon points="562.3,636.9 540.1,618.2 539.9,618.6 562.2,637.2 		"/>
		<polygon points="539.9,636.9 562.2,618.2 562.3,618.6 540.1,637.2 		"/>
	</g>
	<text transform="matrix(1 0 0 1 605.2181 631.6277)" class="st5 st6">Text</text>
</g>
<g>
	<rect x="1262.8" y="610.9" class="st8" width="161.2" height="33.7"/>
	<g>
		<g>
			<rect x="1393.3" y="617.8" width="0.4" height="19.3"/>
			<rect x="1415.3" y="617.8" width="0.4" height="19.3"/>
			<rect x="1393.3" y="636.8" width="22.5" height="0.7"/>
			<rect x="1393.5" y="617.8" width="22.2" height="0.7"/>
		</g>
		<polygon points="1415.7,636.8 1393.4,618.1 1393.3,618.5 1415.5,637.1 		"/>
		<polygon points="1393.3,636.8 1415.5,618.1 1415.7,618.5 1393.4,637.1 		"/>
	</g>
	<g>
		<g>
			<rect x="1267.3" y="618" width="0.4" height="19.3"/>
			<rect x="1289.3" y="618" width="0.4" height="19.3"/>
			<rect x="1267.3" y="636.9" width="22.5" height="0.7"/>
			<rect x="1267.5" y="618" width="22.2" height="0.7"/>
		</g>
		<polygon points="1289.7,636.9 1267.4,618.3 1267.3,618.7 1289.6,637.3 		"/>
		<polygon points="1267.3,636.9 1289.6,618.3 1289.7,618.7 1267.5,637.3 		"/>
	</g>
	<text transform="matrix(1 0 0 1 1332.6129 631.6987)" class="st5 st6">Text</text>
</g>
<rect x="1010.9" y="610.9" class="st8" width="161.2" height="33.7"/>
<g>
	<g>
		<rect x="1141.3" y="617.8" width="0.4" height="19.3"/>
		<rect x="1163.4" y="617.8" width="0.4" height="19.3"/>
		<rect x="1141.3" y="636.7" width="22.5" height="0.7"/>
		<rect x="1141.6" y="617.8" width="22.2" height="0.7"/>
	</g>
	<polygon points="1163.8,636.7 1141.5,618.1 1141.3,618.5 1163.6,637.1 	"/>
	<polygon points="1141.3,636.7 1163.6,618.1 1163.8,618.5 1141.5,637.1 	"/>
</g>
<g>
	<g>
		<rect x="1015.4" y="618" width="0.4" height="19.3"/>
		<rect x="1037.4" y="618" width="0.4" height="19.3"/>
		<rect x="1015.4" y="636.9" width="22.5" height="0.7"/>
		<rect x="1015.6" y="618" width="22.2" height="0.7"/>
	</g>
	<polygon points="1037.8,636.9 1015.5,618.3 1015.4,618.6 1037.6,637.3 	"/>
	<polygon points="1015.4,636.9 1037.6,618.3 1037.8,618.6 1015.5,637.3 	"/>
</g>
<text transform="matrix(1 0 0 1 1080.6932 631.675)" class="st5 st6">Text</text>
<rect x="775.4" y="590.8" class="st11" width="96.4" height="273.9"/>
<g>
	<g>
		<rect x="785.8" y="647" width="0.4" height="19.3"/>
		<rect x="807.9" y="647" width="0.4" height="19.3"/>
		<rect x="785.8" y="665.9" width="22.5" height="0.7"/>
		<rect x="786.1" y="647" width="22.2" height="0.7"/>
	</g>
	<polygon points="808.3,665.9 786,647.3 785.8,647.7 808.1,666.3 	"/>
	<polygon points="785.8,665.9 808.1,647.3 808.3,647.7 786,666.3 	"/>
</g>
<g>
	<g>
		<rect x="785.8" y="704.9" width="0.4" height="19.3"/>
		<rect x="807.9" y="704.9" width="0.4" height="19.3"/>
		<rect x="785.8" y="723.8" width="22.5" height="0.7"/>
		<rect x="786.1" y="704.9" width="22.2" height="0.7"/>
	</g>
	<polygon points="808.3,723.9 786,705.2 785.8,705.6 808.1,724.2 	"/>
	<polygon points="785.8,723.9 808.1,705.2 808.3,705.6 786,724.2 	"/>
</g>
<g>
	<g>
		<rect x="785.8" y="762" width="0.4" height="19.3"/>
		<rect x="807.9" y="762" width="0.4" height="19.3"/>
		<rect x="785.8" y="780.9" width="22.5" height="0.7"/>
		<rect x="786.1" y="762" width="22.2" height="0.7"/>
	</g>
	<polygon points="808.3,780.9 786,762.3 785.8,762.7 808.1,781.3 	"/>
	<polygon points="785.8,780.9 808.1,762.3 808.3,762.7 786,781.3 	"/>
</g>
<text transform="matrix(1 0 0 1 819.4453 665.9103)" class="st5 st6">Text</text>
<text transform="matrix(1 0 0 1 819.4451 723.4786)" class="st5 st6">Text</text>
<text transform="matrix(1 0 0 1 819.4451 780.934)" class="st5 st6">Text</text>
<g>
	<g>
		<rect x="1067.9" y="667.3" width="0.8" height="37.5"/>
		<rect x="1110.8" y="667.3" width="0.8" height="37.5"/>
		<rect x="1067.9" y="704.1" width="43.7" height="1.3"/>
		<rect x="1068.4" y="667.3" width="43.2" height="1.3"/>
	</g>
	<polygon points="1111.6,704.1 1068.2,667.9 1067.9,668.6 1111.2,704.8 	"/>
	<polygon points="1067.9,704.1 1111.2,667.9 1111.6,668.6 1068.2,704.8 	"/>
</g>
<text transform="matrix(1 0 0 1 1079.6932 727.9105)" class="st5 st6">Text</text>
<rect x="1011" y="743" class="st7" width="161.1" height="19.7"/>
<g>
	<g>
		<rect x="1015.8" y="747.9" width="0.2" height="9.7"/>
		<rect x="1026.9" y="747.9" width="0.2" height="9.7"/>
		<rect x="1015.8" y="757.4" width="11.3" height="0.3"/>
		<rect x="1015.9" y="747.9" width="11.2" height="0.3"/>
	</g>
	<polygon points="1027.1,757.4 1015.8,748 1015.8,748.2 1027,757.6 	"/>
	<polygon points="1015.8,757.4 1027,748 1027.1,748.2 1015.8,757.6 	"/>
</g>
<text transform="matrix(1 0 0 1 1077.3197 755.9393)" class="st5 st6">Text</text>
<g>
	<g>
		<rect x="1021.2" y="785.9" width="0.2" height="9.7"/>
		<rect x="1032.3" y="785.9" width="0.2" height="9.7"/>
		<rect x="1021.2" y="795.4" width="11.3" height="0.3"/>
		<rect x="1021.3" y="785.9" width="11.2" height="0.3"/>
	</g>
	<polygon points="1032.5,795.4 1021.3,786.1 1021.2,786.2 1032.5,795.6 	"/>
	<polygon points="1021.2,795.4 1032.5,786.1 1032.5,786.2 1021.3,795.6 	"/>
</g>
<g>
	<g>
		<rect x="1021.2" y="806.3" width="0.2" height="9.7"/>
		<rect x="1032.3" y="806.3" width="0.2" height="9.7"/>
		<rect x="1021.2" y="815.9" width="11.3" height="0.3"/>
		<rect x="1021.3" y="806.3" width="11.2" height="0.3"/>
	</g>
	<polygon points="1032.5,815.9 1021.3,806.5 1021.2,806.7 1032.5,816.1 	"/>
	<polygon points="1021.2,815.9 1032.5,806.5 1032.5,806.7 1021.3,816.1 	"/>
</g>
<g>
	<g>
		<rect x="1021.2" y="826.7" width="0.2" height="9.7"/>
		<rect x="1032.3" y="826.7" width="0.2" height="9.7"/>
		<rect x="1021.2" y="836.2" width="11.3" height="0.3"/>
		<rect x="1021.3" y="826.7" width="11.2" height="0.3"/>
	</g>
	<polygon points="1032.5,836.2 1021.3,826.8 1021.2,827 1032.5,836.4 	"/>
	<polygon points="1021.2,836.2 1032.5,826.8 1032.5,827 1021.3,836.4 	"/>
</g>
<g>
	<g>
		<rect x="1021.4" y="847" width="0.2" height="9.7"/>
		<rect x="1032.5" y="847" width="0.2" height="9.7"/>
		<rect x="1021.4" y="856.5" width="11.3" height="0.3"/>
		<rect x="1021.6" y="847" width="11.2" height="0.3"/>
	</g>
	<polygon points="1032.7,856.5 1021.5,847.1 1021.4,847.3 1032.7,856.7 	"/>
	<polygon points="1021.4,856.5 1032.7,847.1 1032.7,847.3 1021.5,856.7 	"/>
</g>
<rect x="1048.7" y="786.2" class="st7" width="109.4" height="9.5"/>
<text transform="matrix(1 0 0 1 1089.7405 794.4382)" class="st5 st6">Text</text>
<rect x="1048.7" y="806.5" class="st7" width="109.4" height="9.5"/>
<text transform="matrix(1 0 0 1 1089.7405 814.723)" class="st5 st6">Text</text>
<rect x="1048.7" y="826.9" class="st7" width="109.4" height="9.5"/>
<text transform="matrix(1 0 0 1 1089.7405 835.075)" class="st5 st6">Text</text>
<rect x="1048.7" y="847.1" class="st7" width="109.4" height="9.5"/>
<text transform="matrix(1 0 0 1 1089.7405 855.2806)" class="st5 st6">Text</text>
<path class="st7" d="M1388,689.4h-79.6c-6.1,0-11.1-5-11.1-11.1l0,0c0-6.1,5-11.1,11.1-11.1h79.6c6.1,0,11.1,5,11.1,11.1l0,0
	C1399,684.5,1394,689.4,1388,689.4z"/>
<text transform="matrix(1 0 0 1 1332.6133 680.3583)" class="st5 st6">Text</text>
<text transform="matrix(1 0 0 1 1267.6791 714.5379)" class="st5 st6">Text</text>
<rect x="1273.3" y="720.3" class="st11" width="60.8" height="32.4"/>
<rect x="1347.5" y="720.3" class="st11" width="60.8" height="32.4"/>
<rect x="1262.7" y="771.3" class="st7" width="163" height="93.4"/>
<rect x="1296.4" y="771.9" class="st12" width="1.7" height="93.4"/>
<rect x="1328.2" y="771.9" class="st12" width="1.7" height="93.4"/>
<rect x="1365.2" y="771.9" class="st12" width="1.7" height="93.4"/>
<rect x="1398.2" y="771.3" class="st12" width="1.7" height="93.4"/>
<rect x="1262.7" y="794.5" class="st12" width="163" height="2.5"/>
<rect x="1262.8" y="821.6" class="st12" width="163" height="2.5"/>
<rect x="1262.8" y="845.8" class="st12" width="163" height="2.5"/>
<text transform="matrix(1 0 0 1 350.7738 25.5215)" class="st5 st6">ABOUT PAGE</text>
<text transform="matrix(1 0 0 1 586.4059 25.5215)" class="st5 st6">ABOUT PAGE</text>
<text transform="matrix(1 0 0 1 793.8298 25.5215)" class="st5 st6">AUTHENTICATION PAGE</text>
<text transform="matrix(1 0 0 1 1057.0374 25.5215)" class="st5 st6">HOMEPAGE</text>
<text transform="matrix(1 0 0 1 1310.0145 25.5215)" class="st5 st6">DEVICE GALLERY</text>
<text transform="matrix(1 0 0 1 109.939 526.5762)" class="st5 st6">CAMERA</text>
<text transform="matrix(1 0 0 1 329.0043 526.5762)" class="st5 st6">APP SELLECTION</text>
<text transform="matrix(1 0 0 1 577.6416 526.5762)" class="st5 st6">NEWS FEED</text>
<text transform="matrix(1 0 0 1 806.4375 525.3125)" class="st5 st6">SLIDE-IN MENU</text>
<text transform="matrix(1 0 0 1 1080.7383 522.7842)" class="st5 st6">USER PROFILE</text>
<text transform="matrix(1 0 0 1 1273.2758 522.7842)" class="st5 st6">APPLICATION SEARCH</text>
<path class="st1" d="M428.7,410.2v23.9H575v-11.9h3.3c-1.6-4.5-3.3-9-4.9-13.4c-1.2,4.4-2.4,8.8-3.7,13.2c1,0,1.9,0.1,2.9,0.1
	c0.1,3.3,0.3,6.6,0.4,9.8l-142,0l-0.3-21.4L428.7,410.2z"/>
<path class="st1" d="M684.4,410.2v23.9h146.3v-11.9h3.3c-1.6-4.5-3.3-9-4.9-13.4c-1.2,4.4-2.4,8.8-3.7,13.2c1,0,1.9,0.1,2.9,0.1
	c0.1,3.3,0.3,6.6,0.4,9.8l-142,0l-0.3-21.4L684.4,410.2z"/>
<path class="st1" d="M907.5,410.2v23.9h146.3v-11.9h3.3c-1.6-4.5-3.3-9-4.9-13.4c-1.2,4.4-2.4,8.8-3.7,13.2c1,0,1.9,0.1,2.9,0.1
	c0.1,3.3,0.3,6.6,0.4,9.8l-142,0l-0.3-21.4L907.5,410.2z"/>
<path class="st1" d="M1138.3,410.2v23.9h146.3v-11.9h3.3c-1.6-4.5-3.3-9-4.9-13.4c-1.2,4.4-2.4,8.8-3.7,13.2c1,0,1.9,0.1,2.9,0.1
	c0.1,3.3,0.3,6.6,0.4,9.8l-142,0l-0.3-21.4L1138.3,410.2z"/>
<polygon class="st1" points="1382.8,414.4 1382.8,470.8 128.5,465.1 128.5,489.5 121.6,489.5 128.5,504 137.8,491.3 131.4,490.9 
	131.9,468.2 1384.9,472.6 1384.1,414.4 "/>
</svg>
