<?xml version="1.0" encoding="iso-8859-1"?>
<!-- Generator: Adobe Illustrator 19.0.0, SVG Export Plug-In . SVG Version: 6.00 Build 0)  -->
<svg version="1.1" id="Capa_1" xmlns="http://www.w3.org/2000/svg" xmlns:xlink="http://www.w3.org/1999/xlink" x="0px" y="0px"
	 viewBox="0 0 482.296 482.296" style="enable-background:new 0 0 482.296 482.296;" xml:space="preserve">
<path style="fill:#F9EDE0;" d="M305.148,341.056L305.148,341.056C305.148,341.056,305.148,341.048,305.148,341.056
	c6.184-3.992,11.968-8.552,17.312-13.576c0.224-0.208,0.448-0.416,0.664-0.624c4.968-4.744,9.52-9.928,13.64-15.456
	c0.64-0.856,1.264-1.72,1.88-2.592c1.344-1.896,2.64-3.832,3.872-5.808c1.208-1.952,2.392-3.92,3.496-5.936
	c0.752-1.376,1.448-2.776,2.152-4.184c0.904-1.808,1.76-3.648,2.576-5.504c0.504-1.136,1.032-2.264,1.496-3.416
	c1.16-2.888,2.2-5.832,3.144-8.824c0.336-1.048,0.632-2.112,0.944-3.176c0.8-2.8,1.528-5.632,2.136-8.504
	c0.112-0.536,0.256-1.056,0.36-1.584c0.664-3.384,1.152-6.832,1.536-10.312c0.096-0.88,0.176-1.768,0.256-2.656
	c0.312-3.584,0.536-7.2,0.536-10.856V184v-16c-101.704,0-184-32.2-184-72c0,30.952-25.048,56-56,56v32v54.04
	c0,3.656,0.224,7.272,0.536,10.856c0.08,0.888,0.16,1.776,0.256,2.656c0.384,3.472,0.872,6.92,1.536,10.312
	c0.104,0.536,0.248,1.056,0.36,1.584c0.608,2.872,1.328,5.704,2.136,8.504c0.304,1.064,0.608,2.12,0.944,3.176
	c0.944,2.992,1.984,5.936,3.144,8.824c0.464,1.152,1,2.28,1.496,3.416c0.816,1.856,1.672,3.696,2.576,5.504
	c0.704,1.4,1.4,2.808,2.152,4.184c1.104,2.024,2.288,3.992,3.496,5.936c1.232,1.976,2.528,3.912,3.872,5.808
	c0.616,0.872,1.24,1.736,1.88,2.592c4.12,5.528,8.672,10.704,13.64,15.456c0.224,0.208,0.44,0.416,0.664,0.624
	c5.344,5.024,11.128,9.584,17.304,13.576c0,0,0.008,0,0.008,0.008c0,0,0,0-0.008,0V400h-56l120,72l120-72h-56v-58.944H305.148z
	 M185.148,248c-22.088,0-40-17.912-40-40s17.912-40,40-40s40,17.912,40,40S207.236,248,185.148,248z M257.148,208
	c0-22.088,17.912-40,40-40s40,17.912,40,40s-17.912,40-40,40S257.148,230.088,257.148,208z"/>
<path style="fill:#8C8A85;" d="M177.148,400v-58.944l0,0c-6.176-3.992-11.96-8.544-17.304-13.576
	c-0.224-0.208-0.448-0.416-0.664-0.624c-4.968-4.744-9.52-9.928-13.64-15.456c-0.64-0.856-1.264-1.72-1.88-2.592
	c-1.344-1.896-2.64-3.832-3.872-5.808c-1.208-1.952-2.392-3.92-3.496-5.936c-0.752-1.376-1.448-2.776-2.152-4.184
	c-0.904-1.808-1.76-3.648-2.576-5.504c-0.504-1.136-1.032-2.264-1.496-3.416c-1.16-2.888-2.2-5.832-3.144-8.824
	c-0.336-1.048-0.632-2.112-0.944-3.176c-0.8-2.8-1.528-5.632-2.136-8.504c-0.112-0.536-0.256-1.056-0.36-1.584
	c-0.664-3.384-1.152-6.832-1.536-10.312c-0.096-0.88-0.176-1.768-0.256-2.656c-0.32-3.592-0.544-7.2-0.544-10.864V184v-32
	c30.952,0,56-25.048,56-56c0,39.8,82.296,72,184,72v16v54.04c0,3.656-0.224,7.272-0.536,10.856c-0.08,0.888-0.16,1.776-0.256,2.656
	c-0.384,3.472-0.872,6.92-1.536,10.312c-0.104,0.536-0.248,1.056-0.36,1.584c-0.608,2.872-1.328,5.704-2.136,8.504
	c-0.304,1.064-0.608,2.12-0.944,3.176c-0.944,2.992-1.984,5.936-3.144,8.824c-0.464,1.152-1,2.28-1.496,3.416
	c-0.816,1.856-1.672,3.696-2.576,5.504c-0.704,1.4-1.4,2.808-2.152,4.184c-1.104,2.024-2.288,3.992-3.496,5.936
	c-1.232,1.976-2.528,3.912-3.872,5.808c-0.616,0.872-1.24,1.736-1.88,2.592c-4.12,5.528-8.672,10.704-13.64,15.456
	c-0.224,0.208-0.44,0.416-0.664,0.624c-5.344,5.024-11.128,9.584-17.304,13.576l0,0V400h56h48V176c0-92.784-75.216-168-168-168
	s-168,75.216-168,168v224h48H177.148z"/>
<polygon style="fill:#EFECE8;" points="241.148,472 121.148,400 145.148,480 337.148,480 361.148,400 "/>
<g>
	<path style="fill:#D38181;" d="M73.148,400h-16c-26.512,0-48,21.488-48,48v32h136l-24-80H73.148z"/>
	<path style="fill:#D38181;" d="M425.148,400h-16h-48l-24,80h136v-32C473.148,421.488,451.66,400,425.148,400z"/>
</g>
<g>
	<circle style="fill:#EFECE8;" cx="185.148" cy="208" r="40"/>
	<circle style="fill:#EFECE8;" cx="297.148" cy="208" r="40"/>
</g>
<path style="fill:#4B413A;" d="M425.148,392h-8V176c0-97.048-78.952-176-176-176s-176,78.952-176,176v216h-8
	c-30.872,0-56,25.128-56,56v32h16v-32c0-22.056,17.944-40,40-40h16h42.048l22.288,74.296l15.328-4.592l-18.064-60.216l102.28,61.368
	c1.272,0.76,2.696,1.144,4.12,1.144c1.424,0,2.848-0.384,4.12-1.144l102.28-61.368l-18.064,60.208l15.328,4.592L367.1,408h42.048h16
	c22.056,0,40,17.944,40,40v32h16v-32C481.148,417.128,456.02,392,425.148,392z M150.028,408h27.12c4.424,0,8-3.576,8-8v-45.264
	c16.496,8.224,34.896,13.056,54.376,13.256l1.624,0.008l1.576-0.008c19.504-0.2,37.912-5.032,54.424-13.264V400c0,4.424,3.576,8,8,8
	h27.12l-91.12,54.672L150.028,408z M353.148,180.688l-10.936,10.936c-2.272-6.224-5.768-11.84-10.232-16.56
	c6.944,0.424,13.976,0.752,21.176,0.872v4.752H353.148z M329.148,208c0,17.648-14.352,32-32,32s-32-14.352-32-32s14.352-32,32-32
	S329.148,190.352,329.148,208z M249.868,200h-17.44c-3.824-22.664-23.536-40-47.28-40c-20.712,0-38.344,13.208-45.064,31.624
	l-10.936-10.936v-21.184c22.432-2.808,41.288-17.264,50.304-37.112c15.904,19.568,49.256,35.472,92.648,44.736
	C260.532,174.248,252.22,186.104,249.868,200z M217.148,208c0,17.648-14.352,32-32,32s-32-14.352-32-32s14.352-32,32-32
	S217.148,190.352,217.148,208z M129.148,203.312l8.176,8.176c1.8,24.84,22.536,44.512,47.824,44.512
	c23.736,0,43.448-17.336,47.28-40h17.448c3.824,22.664,23.536,40,47.28,40c25.288,0,46.024-19.672,47.824-44.512l8.168-8.176v34.736
	c0,62.208-49.608,113.328-110.624,113.944L241.148,352l-1.424-0.008c-60.968-0.616-110.576-51.736-110.576-113.944V203.312z
	 M361.148,392h-48v-46.592c33.752-23.472,56-62.928,56-107.36V168c0-4.424-3.576-8-8-8c-105.28,0-176-33.096-176-64
	c0-4.424-3.576-8-8-8s-8,3.576-8,8c0,26.472-21.528,48-48,48c-4.424,0-8,3.576-8,8v86.048c0,44.44,22.256,83.896,56,107.368V392h-48
	h-40V176c0-88.224,71.776-160,160-160s160,71.776,160,160v216H361.148z"/>
<g>
</g>
<g>
</g>
<g>
</g>
<g>
</g>
<g>
</g>
<g>
</g>
<g>
</g>
<g>
</g>
<g>
</g>
<g>
</g>
<g>
</g>
<g>
</g>
<g>
</g>
<g>
</g>
<g>
</g>
</svg>
